<svg width="116" height="116" viewBox="0 0 116 116" fill="none" xmlns="http://www.w3.org/2000/svg">
<g clip-path="url(#clip0_35_765)">
<path d="M65.6052 33.2266L64.1772 34.6577C64.1591 34.6758 64.1591 34.7051 64.1772 34.7231L65.6052 36.1543C65.6232 36.1724 65.6524 36.1724 65.6704 36.1543L67.0984 34.7231C67.1164 34.7051 67.1164 34.6758 67.0984 34.6577L65.6704 33.2266C65.6524 33.2085 65.6232 33.2085 65.6052 33.2266Z" fill="white"/>
<path d="M49.0308 33.2353L47.6109 34.6583C47.5907 34.6786 47.5907 34.7115 47.6109 34.7319L49.0308 36.1548C49.051 36.1752 49.0839 36.1752 49.1042 36.1548L50.524 34.7319C50.5443 34.7115 50.5443 34.6786 50.524 34.6583L49.1042 33.2353C49.0839 33.215 49.051 33.215 49.0308 33.2353Z" fill="white"/>
<path d="M53.1745 37.3833L51.7465 38.8145C51.7285 38.8325 51.7285 38.8618 51.7465 38.8799L53.1745 40.311C53.1925 40.3291 53.2217 40.3291 53.2398 40.311L54.6677 38.8799C54.6858 38.8618 54.6858 38.8325 54.6677 38.8145L53.2398 37.3833C53.2217 37.3652 53.1925 37.3652 53.1745 37.3833Z" fill="white"/>
<path d="M61.4622 37.3805L60.0317 38.8091C60.0137 38.8272 60.0136 38.8565 60.0316 38.8746L61.4571 40.3082C61.4751 40.3263 61.5043 40.3264 61.5224 40.3083L62.9528 38.8797C62.9709 38.8616 62.971 38.8323 62.953 38.8143L61.5275 37.3806C61.5095 37.3625 61.4802 37.3625 61.4622 37.3805Z" fill="white"/>
<path d="M52.5224 41.9385H50.4683C50.4524 41.9385 50.4395 41.9514 50.4395 41.9674V44.026C50.4395 44.042 50.4524 44.0549 50.4683 44.0549H52.5224C52.5383 44.0549 52.5512 44.042 52.5512 44.026V41.9674C52.5512 41.9514 52.5383 41.9385 52.5224 41.9385Z" fill="white"/>
<path d="M68.0095 41.9712L68.0059 44.0183C68.0059 44.0374 68.0214 44.053 68.0405 44.053L70.083 44.0566C70.1021 44.0566 70.1177 44.0411 70.1177 44.022L70.1213 41.9749C70.1213 41.9557 70.1058 41.9402 70.0867 41.9401L68.0442 41.9366C68.025 41.9365 68.0095 41.952 68.0095 41.9712Z" fill="white"/>
<path d="M44.5837 41.9712L44.5801 44.0183C44.5801 44.0374 44.5956 44.053 44.6147 44.053L46.6572 44.0566C46.6764 44.0566 46.6919 44.0411 46.6919 44.022L46.6955 41.9749C46.6955 41.9557 46.68 41.9402 46.6609 41.9401L44.6184 41.9366C44.5993 41.9365 44.5837 41.952 44.5837 41.9712Z" fill="white"/>
<path d="M56.2937 41.9712L56.2901 44.0183C56.2901 44.0374 56.3055 44.053 56.3247 44.053L58.3672 44.0566C58.3863 44.0566 58.4018 44.0411 58.4019 44.022L58.4054 41.9749C58.4055 41.9557 58.39 41.9402 58.3709 41.9401L56.3283 41.9366C56.3092 41.9365 56.2937 41.952 56.2937 41.9712Z" fill="white"/>
<path d="M64.2237 41.9385H62.1927C62.1704 41.9385 62.1523 41.9566 62.1523 41.979V44.0145C62.1523 44.0368 62.1704 44.0549 62.1927 44.0549H64.2237C64.246 44.0549 64.2641 44.0368 64.2641 44.0145V41.979C64.2641 41.9566 64.246 41.9385 64.2237 41.9385Z" fill="white"/>
<path d="M61.4686 45.6773L60.0325 47.1166C60.0167 47.1324 60.0167 47.1581 60.0325 47.1739L61.4686 48.6132C61.4844 48.629 61.51 48.629 61.5257 48.6132L62.9619 47.1739C62.9776 47.1581 62.9776 47.1324 62.9619 47.1166L61.5257 45.6773C61.51 45.6615 61.4844 45.6615 61.4686 45.6773Z" fill="white"/>
<path d="M53.1846 45.6757L51.7403 47.1232C51.7268 47.1367 51.7268 47.1587 51.7403 47.1722L53.1846 48.6197C53.1981 48.6333 53.22 48.6333 53.2336 48.6197L54.6779 47.1722C54.6914 47.1587 54.6914 47.1367 54.6779 47.1232L53.2336 45.6757C53.22 45.6621 53.1981 45.6621 53.1846 45.6757Z" fill="white"/>
<path d="M58.7141 56.806C58.7025 56.806 58.691 56.806 58.6852 56.8234C58.6852 56.8234 58.6852 56.8292 58.6852 56.835C58.7314 57.0258 58.766 57.1877 58.766 57.3959C58.766 66.174 58.766 70.8812 58.766 71.5173C58.766 71.951 58.8064 72.35 58.8756 72.7085C59.0314 73.4834 59.6373 73.7205 60.347 73.7899C61.224 73.8766 62.101 73.8535 62.9838 73.8535C63.0127 73.8535 63.0357 73.8766 63.0357 73.9055V76.5251C63.0357 76.5424 63.0242 76.5598 63.0011 76.5598C61.3971 76.635 59.845 76.7159 58.3217 76.4384C57.5197 76.2938 56.7408 75.9815 56.1926 75.3859C55.5349 74.6746 55.4137 73.6511 55.4137 72.7201C55.4137 69.0307 55.4137 63.9882 55.4137 57.5867C55.4137 57.3149 55.4368 57.0894 55.506 56.8292C55.506 56.8176 55.506 56.806 55.4945 56.806C55.4945 56.806 55.4887 56.806 55.4829 56.806C55.2983 56.8639 55.1021 56.8928 54.9002 56.8928C54.0058 56.8986 53.1346 56.8986 52.2806 56.8928C52.2575 56.8928 52.2402 56.8754 52.2402 56.8523V54.1807C52.2402 54.1691 52.2518 54.1576 52.2633 54.1576C53.4 54.1576 54.1385 54.1576 54.4905 54.1576C54.854 54.1576 55.1598 54.1402 55.4656 54.2443C55.4772 54.2443 55.4945 54.2443 55.5002 54.227C55.5002 54.227 55.5002 54.2154 55.5002 54.2096C55.4425 54.0072 55.4137 53.8048 55.4137 53.6024C55.4137 51.6305 55.4137 50.0634 55.4137 48.8953C55.4137 48.8779 55.431 48.8606 55.4483 48.8606H58.7256C58.7487 48.8606 58.766 48.8779 58.766 48.9011C58.766 51.6305 58.766 53.1745 58.766 53.5446C58.766 53.7701 58.7372 53.9899 58.6795 54.2038C58.6795 54.2212 58.6795 54.2327 58.6968 54.2385C58.6968 54.2385 58.7083 54.2385 58.7141 54.2385C58.9045 54.1807 59.1237 54.1518 59.3834 54.1518C60.5604 54.1576 61.7894 54.1576 63.0704 54.1518C63.0934 54.1518 63.1107 54.1691 63.1107 54.1923V56.8465C63.1107 56.8697 63.0877 56.8928 63.0646 56.8928C61.726 56.8928 60.4797 56.8928 59.3199 56.8928C59.0949 56.8928 58.9045 56.8581 58.7083 56.806H58.7141Z" fill="white"/>
<path d="M49.0459 49.8258L47.6016 51.2733C47.5881 51.2869 47.5881 51.3088 47.6016 51.3224L49.0459 52.7699C49.0594 52.7834 49.0814 52.7834 49.0949 52.7699L50.5392 51.3224C50.5527 51.3088 50.5527 51.2869 50.5392 51.2733L49.0949 49.8258C49.0814 49.8123 49.0594 49.8123 49.0459 49.8258Z" fill="white"/>
<path d="M65.6042 49.8335L64.1762 51.2647C64.1582 51.2827 64.1582 51.312 64.1762 51.3301L65.6042 52.7612C65.6222 52.7793 65.6514 52.7793 65.6695 52.7612L67.0974 51.3301C67.1155 51.312 67.1155 51.2827 67.0974 51.2647L65.6695 49.8335C65.6514 49.8154 65.6222 49.8154 65.6042 49.8335Z" fill="white"/>
<path d="M50.6644 69.4297C50.4452 70.3376 50.1221 71.1876 49.7066 71.9741C48.3392 74.5647 45.9793 76.1145 43.1289 76.6002C41.3114 76.9067 39.4881 76.8778 37.6648 76.5077C36.9032 76.3516 36.1704 76.1203 35.455 75.8022C32.6277 74.5532 30.7986 72.188 30.2505 69.1637C29.61 65.6304 30.4928 61.8774 33.372 59.5297C34.7453 58.4078 36.4416 57.7023 38.1957 57.4016C42.9501 56.5863 49.1066 57.9683 50.4914 63.3925C50.4914 63.4156 50.4856 63.4388 50.4625 63.4446C50.4625 63.4446 50.4567 63.4446 50.451 63.4446H47.0179C46.989 63.4446 46.9602 63.4272 46.9486 63.3983C46.8217 63.1265 46.6428 62.8316 46.4236 62.5078C45.2407 60.7903 43.4809 60.079 41.4557 59.9981C38.6284 59.8766 35.7838 60.7498 34.3818 63.3752C33.5797 64.8729 33.424 66.7349 33.7182 68.4408C34.0413 70.3433 35.0741 71.9798 36.759 72.9282C37.5725 73.385 38.5072 73.6684 39.5631 73.7783C41.7499 74.0096 44.231 73.4949 45.835 71.8584C46.4986 71.1818 46.9255 70.3723 47.116 69.4355C47.116 69.4239 47.1333 69.4123 47.1448 69.4123H50.6529C50.6644 69.4123 50.6702 69.4181 50.6702 69.4297H50.6644Z" fill="white"/>
<path d="M83.1553 57.8583C83.1553 57.8467 83.1669 57.8352 83.1784 57.8352H86.4384C86.4557 57.8352 86.4672 57.8467 86.4672 57.8641C86.4672 69.8285 86.4672 75.8541 86.4672 75.9408C86.4557 77.693 85.8037 79.3295 84.4824 80.4918C82.6822 82.0705 80.0742 82.5967 77.7489 82.7355C76.468 82.8107 75.0717 82.7991 73.5657 82.6951C72.5618 82.6257 71.6559 82.4753 70.8423 82.2324C68.6498 81.5848 66.9188 79.8731 66.4976 77.5947C66.4976 77.5658 66.5149 77.5311 66.5437 77.5253C66.5437 77.5253 66.5495 77.5253 66.5553 77.5253H70.2076C70.2365 77.5253 70.2596 77.5427 70.2653 77.5658C70.8135 79.4163 72.8676 79.8673 74.5293 79.9714C75.614 80.0408 76.6757 80.0234 77.7085 79.9251C78.9433 79.8095 80.2069 79.5203 81.2339 78.7975C82.9418 77.5889 83.1842 75.3337 83.1207 73.3907C83.1092 73.0148 83.213 72.61 83.3111 72.2862C83.3169 72.263 83.3169 72.2457 83.3111 72.2341C83.3053 72.1936 83.2649 72.1705 83.2246 72.1763C83.2015 72.1763 83.1842 72.1936 83.1784 72.211C82.3533 73.6162 81.1878 74.6224 79.6876 75.2354C78.3086 75.7963 76.7969 75.9755 75.2275 75.9755C71.9848 75.9813 68.6844 74.8537 66.8034 72.1069C65.3436 69.9673 65.0551 67.2436 65.5802 64.6993C65.8167 63.5485 66.2206 62.5076 66.7976 61.5708C69.0479 57.9277 73.3234 56.7769 77.3623 57.2858C78.1413 57.3841 78.8683 57.5634 79.5491 57.8294C81.0551 58.4192 82.2379 59.4023 83.2246 60.7092C83.2476 60.7381 83.288 60.7439 83.3169 60.7207C83.3342 60.7092 83.3457 60.6918 83.3457 60.6687C83.3457 60.6398 83.3457 60.6167 83.34 60.5935C83.1092 59.6683 83.1611 58.9628 83.1611 57.8525L83.1553 57.8583ZM70.8539 61.9062C69.5441 63.1957 68.9152 64.7976 68.9729 66.7059C69.071 70.0193 71.0731 72.5522 74.3562 73.1536C78.1355 73.8475 82.2321 72.2457 83.2015 68.1747C83.7323 65.9368 83.2188 63.4444 81.5051 61.8368C80.6512 61.0388 79.6414 60.4837 78.4759 60.1772C75.8333 59.4832 72.8214 59.9632 70.8596 61.9004L70.8539 61.9062Z" fill="white"/>
</g>
<defs>
<clipPath id="clip0_35_765">
<rect width="56.4182" height="49.5636" fill="white" transform="translate(30.0547 33.2183)"/>
</clipPath>
</defs>
</svg>
