<svg width="116" height="116" viewBox="0 0 116 116" fill="none" xmlns="http://www.w3.org/2000/svg">
<g clip-path="url(#clip0_35_481)">
<path d="M17.5966 49.8071C17.672 49.8448 17.6909 49.9389 17.6532 49.9953C17.6532 49.9953 17.6532 50.0141 17.6343 50.033C16.71 50.9175 16.0498 51.5761 15.6537 52.0466C15.3142 52.4418 15.2199 52.8558 15.3896 53.3263C15.484 53.6086 15.9744 54.0038 16.2007 54.2673C17.8795 56.1304 17.8984 59.1415 16.3516 61.0422C15.5594 62.002 15.0124 62.9053 15.9932 63.9968C16.8987 64.9943 17.4268 65.5965 17.6154 65.7658C17.6532 65.8035 17.6532 65.8411 17.6154 65.8788C14.239 67.9489 10.0704 68.3064 6.63741 66.4245C1.52565 63.6393 -0.0965282 57.2031 3.09125 52.3289C4.86433 49.6378 7.92007 47.9817 11.1456 47.8499C13.4845 47.7558 15.5217 48.5839 17.5966 49.7883V49.8071ZM8.69343 57.6924C8.65571 59.2544 9.9195 60.5341 11.5228 60.5717C13.1261 60.6094 14.4465 59.3673 14.4842 57.8241C14.522 56.2621 13.2582 54.9824 11.6549 54.9448C10.0515 54.9071 8.73116 56.1492 8.69343 57.6924Z" fill="white"/>
<path d="M19.5587 66.0858C19.5021 66.1047 19.4266 66.0858 19.37 66.0482C18.5024 65.1825 17.8233 64.4486 17.314 63.8652C16.4275 62.8301 17.0688 61.8139 17.8987 60.8541C18.1251 60.5906 18.3514 60.139 18.5589 59.5367C19.3134 57.3537 18.8419 55.4341 17.1631 53.7969C16.5595 53.2135 16.5784 52.5924 17.182 51.8961C17.8987 51.1057 18.691 50.2965 19.5587 49.4684C19.6341 49.3932 19.7473 49.3932 19.8227 49.4684C21.4826 50.8987 22.6144 52.5736 23.1803 54.4932C24.3875 58.5581 22.9916 62.943 19.9359 65.86C19.8227 65.9729 19.6907 66.0482 19.5398 66.1047L19.5587 66.0858Z" fill="white"/>
<path d="M51.6999 54.625C50.6059 53.5899 49.3987 53.0253 48.0783 52.95C44.9282 52.7618 42.7968 55.6036 43.2683 58.577C43.9851 62.9807 49.0025 63.7899 51.8131 60.7788C51.8508 60.7412 51.9262 60.7224 51.964 60.7788L54.1332 62.9431C54.152 62.9619 54.152 62.9995 54.1332 63.0372C53.5296 63.6206 52.9448 64.091 52.3601 64.4674C49.8325 66.0671 46.0223 66.1423 43.4569 64.6368C40.7785 63.0936 39.3826 60.3648 39.5335 57.2973C39.7599 53.2511 42.8533 50.146 46.9088 49.8637C47.9462 49.7884 48.8516 49.826 49.6439 49.9578C51.2849 50.2212 52.7185 50.9364 53.9823 52.1032C54.02 52.1408 54.02 52.1973 53.9823 52.2349L51.8697 54.6061C51.8131 54.6626 51.7188 54.6626 51.6622 54.6061L51.6999 54.625Z" fill="white"/>
<path d="M55.6426 50.1836C55.6426 50.1836 55.6426 50.1648 55.6614 50.1648C56.1896 50.1648 58.6229 50.1648 62.9801 50.1648C64.4514 50.1648 66.564 50.3153 67.8089 51.0493C70.3931 52.5548 70.6383 56.074 69.4311 58.577C68.8275 59.8379 67.3562 60.5907 65.9981 60.9106C65.5266 61.0235 64.5269 61.08 62.9801 61.08C61.5654 61.08 60.3771 61.0611 59.4717 61.0235C59.434 61.0235 59.3962 61.0423 59.3962 61.0988V65.1449C59.3962 65.1826 59.3774 65.2014 59.3396 65.2014H55.7746C55.6992 65.2014 55.6426 65.1449 55.6426 65.0696V50.1836ZM59.3019 53.6087V57.6549C59.3208 57.7301 59.3962 57.8054 59.4717 57.8054H64.1307C65.3945 57.7678 66.4131 56.9774 66.3942 55.9988V55.1895C66.3942 54.2109 65.3568 53.4205 64.1119 53.4205H59.4528C59.3774 53.4393 59.3019 53.5146 59.3019 53.5899V53.6087Z" fill="white"/>
<path d="M30.517 60.0825V65.2578C30.517 65.2955 30.4982 65.3143 30.4605 65.3143H26.6691C26.6125 65.3143 26.5748 65.2766 26.5748 65.2202C26.5559 64.9003 26.6502 64.3357 26.6502 63.884C26.6502 56.9209 26.6502 52.9124 26.6502 51.8773C26.6502 51.4257 26.6313 50.9364 26.5748 50.3718C26.5748 50.3153 26.6125 50.2777 26.6502 50.2777H38.8166C38.8732 50.2777 38.9109 50.3153 38.9109 50.3718V53.5711C38.9109 53.6087 38.8732 53.6464 38.8354 53.6464H30.5548C30.517 53.6464 30.4982 53.6652 30.4982 53.7028C30.385 54.6438 30.385 55.6412 30.4982 56.6951C30.4982 56.7327 30.5359 56.7703 30.5925 56.7703H37.1001C37.1755 56.7703 37.2321 56.8268 37.2321 56.9021V59.9132C37.2321 59.9508 37.1944 59.9696 37.1567 59.9696H30.5925C30.5548 59.9696 30.517 60.0073 30.517 60.0449V60.0825Z" fill="white"/>
<path d="M109.608 53.684C112.701 54.0792 114.889 56.9397 114.493 60.0825C114.097 63.2253 111.249 65.446 108.155 65.0508C105.062 64.6556 102.874 61.7951 103.27 58.6522C103.666 55.5094 106.514 53.2888 109.608 53.684ZM108.665 54.8319C106.269 54.9449 104.439 57.0714 104.553 59.5556C104.666 62.0585 106.703 63.9969 109.08 63.884C111.475 63.7711 113.305 61.6445 113.192 59.1604C113.079 56.6574 111.041 54.719 108.665 54.8319Z" fill="white"/>
<path d="M83.0498 64.8625H75.1087C75.0709 64.8625 75.0332 64.8249 75.0332 64.7873V53.9285C75.0332 53.8909 75.0709 53.8533 75.1087 53.8533H82.9555C82.9932 53.8533 83.0309 53.8909 83.0309 53.9285V54.926C83.0309 54.9636 82.9932 55.0012 82.9555 55.0012H76.3724C76.3347 55.0012 76.297 55.0389 76.297 55.0765V58.6522C76.297 58.6898 76.3347 58.7275 76.3724 58.7275H82.2387C82.2764 58.7275 82.3142 58.7651 82.3142 58.8027V59.8002C82.3142 59.8378 82.2764 59.8754 82.2387 59.8754H76.3724C76.3347 59.8754 76.297 59.9131 76.297 59.9507V63.6016C76.297 63.6393 76.3347 63.6769 76.3724 63.6769H83.0498C83.0875 63.6769 83.1252 63.7146 83.1252 63.7522V64.7684C83.1252 64.8061 83.0875 64.8437 83.0498 64.8437V64.8625Z" fill="white"/>
<path d="M88.2936 63.8652C90.6137 63.8652 91.6322 62.2655 91.6322 60.0825C91.6322 59.2921 91.6322 57.2408 91.6322 53.9286C91.6322 53.891 91.67 53.8533 91.7077 53.8533H92.8394C92.8772 53.8533 92.9149 53.891 92.9149 53.9286C92.9149 58.05 92.9149 60.2707 92.9149 60.6471C92.8583 63.3759 90.9909 65.032 88.3124 65.032C85.6528 65.032 83.7665 63.3947 83.71 60.6471C83.71 60.2895 83.71 58.05 83.71 53.9286C83.71 49.8072 83.7477 53.8533 83.7854 53.8533H84.9172C84.9549 53.8533 84.9926 53.891 84.9926 53.9286C84.9926 57.222 84.9926 59.2733 84.9926 60.0825C84.9926 62.2467 86.0112 63.8652 88.3313 63.8464L88.2936 63.8652Z" fill="white"/>
<path d="M99.9314 60.346C99.8937 60.346 99.8748 60.3836 99.8937 60.4212C99.8937 60.4212 99.8937 60.4212 99.8937 60.4401L103.232 64.8438C103.232 64.8438 103.232 64.8438 103.232 64.8626H101.723C101.704 64.8626 101.667 64.8626 101.667 64.8249L98.5167 60.6659C98.479 60.6094 98.4224 60.5718 98.3469 60.5906H95.4987C95.4421 60.5906 95.3855 60.6471 95.3855 60.7035V64.7308C95.3855 64.8061 95.3289 64.8814 95.2346 64.8814H94.216C94.1406 64.8814 94.084 64.8249 94.084 64.7497V53.9474C94.084 53.9098 94.1217 53.8721 94.1406 53.8721C96.5738 53.8533 98.3469 53.8721 99.4598 53.8721C101.252 53.9098 102.893 55.2271 102.817 57.2031C102.761 58.9157 101.799 59.9508 99.9314 60.3271V60.346ZM95.3666 55.0954V59.405C95.3666 59.4238 95.4044 59.4614 95.4232 59.4614H98.9505C100.384 59.4614 101.535 58.5393 101.535 57.3913V57.0902C101.535 55.9611 100.365 55.0389 98.9317 55.0389H95.4044C95.3855 55.0389 95.3478 55.0766 95.3478 55.0954H95.3666Z" fill="white"/>
</g>
<defs>
<clipPath id="clip0_35_481">
<rect width="113.1" height="19.8167" fill="white" transform="translate(1.4502 47.85)"/>
</clipPath>
</defs>
</svg>
