<svg width="116" height="116" viewBox="0 0 116 116" fill="none" xmlns="http://www.w3.org/2000/svg">
<g clip-path="url(#clip0_35_602)">
<path d="M63.5468 40.1407C63.2773 40.0733 63.0212 39.9924 62.7652 39.9115C62.4148 39.7902 62.1588 39.7228 61.9836 39.6959C61.2019 39.5611 60.4203 39.5611 59.6252 39.6959C58.601 39.8441 57.6037 40.1541 56.6334 40.6528C56.0405 40.9494 55.5419 41.2324 55.1376 41.475C55.0702 41.475 54.9893 41.4885 54.8815 41.5559C54.8815 41.4346 54.8411 41.3403 54.7333 41.2729C53.3183 40.2889 51.7281 39.6419 49.9492 39.3454C49.747 39.305 49.491 39.305 49.1675 39.3454C48.4129 39.3724 47.6447 39.4802 46.8496 39.6689C48.3859 38.2941 50.4208 36.7171 52.2806 36.2049C53.2374 35.9353 54.2616 35.814 55.3397 35.841C57.469 35.8949 59.2209 36.6227 60.892 37.8762C61.7949 38.5636 62.6843 39.305 63.5333 40.1272L63.5468 40.1407Z" fill="white"/>
<path d="M54.8807 41.5695L52.7515 42.9578C51.9833 43.5508 51.4712 43.9687 51.2286 44.2113C50.2314 45.1817 49.2341 46.2331 48.2504 47.4057C47.9269 47.7966 47.4418 47.4192 47.1318 47.2035C44.6791 45.4918 43.1967 44.4539 42.6577 44.09C42.3882 43.9148 42.186 43.6587 42.4825 43.4026C43.9514 42.1356 45.4069 40.8955 46.8488 39.6825C47.6439 39.4937 48.4121 39.3859 49.1668 39.359C49.4902 39.332 49.7462 39.332 49.9484 39.359C51.7138 39.6555 53.304 40.3025 54.7325 41.2864C54.8268 41.3538 54.8807 41.4482 54.8807 41.5695ZM67.4542 43.7934L63.5595 40.1407C63.29 40.0733 63.0339 39.9925 62.7779 39.9116C62.4275 39.7903 62.1714 39.7229 61.9963 39.6959C61.2146 39.5611 60.433 39.5611 59.6379 39.6959C58.6137 39.8442 57.6164 40.1542 56.6461 40.6529C56.0532 40.9494 55.5546 41.2325 55.1503 41.4751L56.5653 42.4725C58.3981 43.8204 59.8266 45.3435 61.2416 47.1496C61.565 47.5675 61.8345 47.8236 62.3197 47.5001C64.5568 46.0713 66.2548 44.9796 67.4138 44.2248C67.4272 44.2248 67.4542 44.1978 67.4677 44.1843C67.5755 44.063 67.5755 43.8878 67.4677 43.78L67.4542 43.7934Z" fill="white"/>
<path d="M73.9236 51.5975C72.832 50.8966 71.1744 49.8318 68.9643 48.4166C68.7217 48.2683 68.4792 48.2413 68.2366 48.3627C68.1962 48.3761 68.1557 48.4031 68.1288 48.4435C66.4442 50.6001 64.9618 52.1906 62.8056 53.7137L61.9027 54.3472C61.8084 54.4146 61.6736 54.4281 61.5658 54.3607C60.609 53.835 59.6926 53.215 58.8031 52.5141C57.469 51.3954 56.1887 50.0744 54.9354 48.5648C54.6659 48.2279 54.3155 48.3222 53.9786 48.5648C51.0407 50.6136 49.4505 51.7323 49.181 51.921C48.9923 52.0558 48.8845 52.3119 49.0732 52.4871C50.5556 53.7676 51.9976 55.0076 53.4126 56.2072L54.585 56.4633C55.3667 56.5981 56.1348 56.6116 56.876 56.4903C57.3207 56.4229 57.9541 56.2881 58.4797 56.0859C59.7465 55.5737 60.4877 55.2502 61.2828 54.6841C61.5119 54.5224 61.7679 54.5224 62.0509 54.6841C63.4255 55.4255 64.7327 56.0455 66.2286 56.2746C67.6032 56.4768 68.9239 56.3016 70.2041 55.7624C71.4035 54.6572 72.6029 53.5385 73.8158 52.4063C74.0853 52.1502 74.3144 51.8806 73.9101 51.6245L73.9236 51.5975Z" fill="white"/>
<path d="M66.2555 56.2477C67.6301 56.4499 68.9507 56.2746 70.231 55.7355C69.7728 56.1803 69.0451 56.8138 68.0478 57.636C66.5924 58.8356 65.083 59.6578 63.2637 59.9543C61.404 60.2643 59.5847 60.0487 57.8327 59.2939C57.3206 59.0782 56.7007 58.7143 55.9595 58.1886C55.1105 57.5955 54.275 56.9216 53.4395 56.1938L54.6119 56.4499C55.3935 56.5846 56.1617 56.5981 56.9029 56.4768C57.3476 56.4094 57.981 56.2746 58.5066 56.059C59.7733 55.5468 60.5145 55.2233 61.3096 54.6572C61.5387 54.4955 61.7948 54.4955 62.0778 54.6572C63.4524 55.3985 64.7596 56.0185 66.2555 56.2477Z" fill="white"/>
<path d="M22.5512 65.3189C21.7157 65.1167 20.8397 65.0493 19.9099 65.1167C19.007 65.1706 18.131 65.4672 18.0501 66.5185C18.0367 66.7476 18.0367 66.9902 18.0501 67.2598C18.0501 67.3137 18.0906 67.3542 18.1445 67.3542H22.2952C22.3356 67.3542 22.3626 67.3811 22.3626 67.4216V70.1443C22.3626 70.1982 22.3221 70.2251 22.2817 70.2251H18.131C18.0906 70.2251 18.0501 70.2656 18.0501 70.306V79.8354C18.0501 79.8759 18.0097 79.9163 17.9693 79.9163H14.3172C14.2768 79.9163 14.2363 79.8759 14.2363 79.8354C14.2363 75.4144 14.2363 71.263 14.2363 67.3542C14.2363 66.1276 14.3037 65.2919 14.4519 64.8471C15.274 62.4479 18.0771 62.0975 20.2872 62.2323C21.1093 62.2862 21.8505 62.421 22.5108 62.6501C22.5917 62.6771 22.6321 62.7445 22.6321 62.8253V65.265C22.6321 65.3054 22.6051 65.3324 22.5647 65.3324C22.5647 65.3324 22.5647 65.3324 22.5512 65.3324V65.3189Z" fill="white"/>
<path d="M34.0064 68.6346C34.0064 68.6615 34.0333 68.6885 34.0603 68.6885C34.0738 68.6885 34.1007 68.6885 34.1007 68.675C35.2732 67.3541 36.7556 66.8554 38.5479 67.1923C40.9198 67.6371 41.7822 69.942 41.8362 72.0581C41.8901 73.6217 41.917 75.0639 41.5397 76.4252C40.758 79.2153 38.4805 80.0375 35.8257 80.1319C33.8986 80.1993 32.0658 79.9297 30.3004 79.3501C30.2465 79.3366 30.2061 79.2827 30.2061 79.2153V62.5018C30.2061 62.4613 30.2465 62.4209 30.2869 62.4209H33.3595C33.4134 62.4209 33.4673 62.4613 33.4808 62.5152L33.939 64.2405C33.9794 64.3753 33.9929 64.5236 33.9929 64.6718V68.6211L34.0064 68.6346ZM34.0199 70.7103V77.18C34.0199 77.2474 34.0603 77.3014 34.1277 77.3283C34.8554 77.6114 36.0413 77.7192 36.7286 77.3687C37.7663 76.8296 37.9684 75.5761 37.9819 74.4978C37.9954 73.5543 38.0628 72.3412 37.7932 71.3842C37.5641 70.5755 37.0116 70.279 36.1896 70.225C35.4484 70.1711 34.7611 70.2924 34.1007 70.6024C34.0603 70.6294 34.0199 70.6698 34.0199 70.7238V70.7103Z" fill="white"/>
<path d="M69.0582 66.4781C69.0043 66.4781 68.9639 66.4376 68.9639 66.3837V63.6071C68.9639 63.5667 69.0043 63.5262 69.0447 63.5262H72.1578C72.1847 63.5262 72.2117 63.5532 72.2251 63.5802C72.4273 64.3754 72.8585 65.4672 72.7372 66.4242C72.7372 66.4646 72.6968 66.4916 72.6564 66.4916H69.0447L69.0582 66.4781Z" fill="white"/>
<path d="M24.3701 66.3972V63.6071C24.3701 63.5667 24.4105 63.5262 24.451 63.5262H27.5775C27.6044 63.5262 27.6314 63.5397 27.6314 63.5802C27.8335 64.3754 28.2783 65.4672 28.157 66.4242C28.157 66.4646 28.1165 66.4916 28.0761 66.4916H24.4645C24.4105 66.4916 24.3701 66.4511 24.3701 66.3972Z" fill="white"/>
<path d="M53.4659 70.5756C53.439 70.5756 53.412 70.5756 53.3986 70.5352C53.3986 70.5352 53.3986 70.5352 53.3986 70.5217V67.9068C53.3986 67.8529 53.439 67.8125 53.4794 67.7855C55.4739 67.1251 57.5088 66.9364 59.5842 67.2194C60.0828 67.2868 60.5815 67.4486 61.0801 67.7316C62.4008 68.4325 62.7377 69.8478 62.7377 71.2226C62.7377 74.417 62.7377 77.288 62.7377 79.8354C62.7377 79.8624 62.7107 79.8894 62.6838 79.8894H59.6516C59.6112 79.8894 59.5842 79.8624 59.5707 79.822L59.3416 78.7302C59.3416 78.6898 59.2877 78.6628 59.2473 78.6628C59.2203 78.6628 59.2069 78.6763 59.1934 78.7032C58.7082 79.4041 58.0479 79.8354 57.1989 79.9972C54.4632 80.4959 52.28 79.2693 52.4013 76.2636C52.4956 73.9183 54.1263 73.0826 56.1612 72.7591C56.9698 72.6378 57.8592 72.5165 58.8565 72.4087C58.9239 72.4087 58.9778 72.3548 58.9778 72.2874C59.0182 71.7887 58.9643 71.3439 58.8026 70.9665C58.2635 69.713 54.4767 70.333 53.4794 70.5756H53.4659ZM58.9239 74.4305C58.6948 74.444 58.3713 74.4709 57.9536 74.5249C56.9967 74.6192 56.1882 74.7405 56.0803 75.8727C56.013 76.5332 56.1882 77.4767 56.9563 77.6519C57.6167 77.8002 58.2366 77.6923 58.816 77.3284C58.9373 77.261 59.0047 77.1262 59.0047 76.978V74.4844C59.0047 74.444 58.9778 74.417 58.9373 74.417L58.9239 74.4305Z" fill="white"/>
<path d="M85.351 79.8893H81.6989C81.6585 79.8893 81.6315 79.8624 81.6315 79.8219C81.6315 77.3958 81.6315 74.6866 81.6315 71.7078C81.6315 71.0204 81.4698 70.4677 80.7151 70.3195C79.8931 70.1577 78.9632 70.3464 78.222 70.6564C78.1681 70.6834 78.1277 70.7373 78.1277 70.8047V79.8085C78.1277 79.8489 78.0872 79.8893 78.0468 79.8893H74.4352C74.3813 79.8893 74.3408 79.8489 74.3408 79.795V67.3676C74.3408 67.3407 74.3543 67.3272 74.3812 67.3272H77.5212C77.5482 67.3272 77.5886 67.3542 77.5886 67.3811L77.966 68.8368C77.966 68.8773 78.0199 68.9042 78.0603 68.8907C78.0738 68.8907 78.0872 68.8907 78.1007 68.8638C79.4618 67.3407 81.1868 66.8015 83.2487 67.2329C84.6368 67.5294 85.4319 68.7559 85.4588 70.1038C85.4723 71.4652 85.4723 74.7 85.4588 79.8085C85.4588 79.8624 85.4184 79.8893 85.378 79.8893H85.351Z" fill="white"/>
<path d="M98.127 79.8085C98.127 79.8624 98.0866 79.8893 98.0461 79.8893H94.394C94.3536 79.8893 94.3266 79.8624 94.3266 79.8219C94.3266 77.3958 94.3266 74.6866 94.3266 71.7213C94.3266 71.0473 94.1649 70.4812 93.4103 70.333C92.5882 70.1712 91.6583 70.3599 90.9171 70.6699C90.8632 70.6969 90.8228 70.7508 90.8228 70.8182V79.8219C90.8228 79.8624 90.7824 79.9028 90.7285 79.9028H87.1168C87.0629 79.9028 87.0225 79.8489 87.0225 79.795V67.3811C87.0225 67.3542 87.0494 67.3407 87.0764 67.3407H90.2164C90.2433 67.3407 90.2837 67.3676 90.2837 67.3946L90.6611 68.8368C90.6611 68.8773 90.715 68.9042 90.7554 68.8907C90.7689 68.8907 90.7824 68.8907 90.7958 68.8638C92.157 67.3407 93.8685 66.8015 95.9303 67.2329C97.3184 67.5294 98.1135 68.7559 98.127 70.1038C98.1405 71.4652 98.1405 74.7 98.127 79.795V79.8085Z" fill="white"/>
<path d="M47.4285 79.8893H43.7629C43.7359 79.8893 43.709 79.8624 43.709 79.8354V67.3677C43.709 67.3407 43.7225 67.3272 43.7494 67.3272H46.8759C46.9298 67.3272 46.9703 67.3542 46.9703 67.4081L47.3746 69.3086C47.3746 69.3625 47.4419 69.3895 47.4958 69.3895C47.5228 69.3895 47.5497 69.3625 47.5632 69.3355C47.9945 68.4864 48.6144 67.8529 49.4364 67.462C50.0564 67.1655 50.6763 67.0981 51.2962 67.2598C51.3636 67.2733 51.4175 67.3407 51.4175 67.4081V70.8047C51.4175 70.8451 51.377 70.8856 51.3366 70.8856C50.2315 70.7373 48.6818 70.7778 47.6441 71.2899C47.5767 71.3169 47.5497 71.3843 47.5497 71.4517V79.795C47.5497 79.8489 47.5093 79.8893 47.4554 79.8893H47.4285Z" fill="white"/>
<path d="M28.1165 67.3407H24.424C24.3943 67.3407 24.3701 67.3648 24.3701 67.3946V79.8489C24.3701 79.8787 24.3943 79.9028 24.424 79.9028H28.1165C28.1463 79.9028 28.1705 79.8787 28.1705 79.8489V67.3946C28.1705 67.3648 28.1463 67.3407 28.1165 67.3407Z" fill="white"/>
<path d="M72.724 67.3271H69.0314C69.0017 67.3271 68.9775 67.3513 68.9775 67.3811V79.8354C68.9775 79.8651 69.0017 79.8893 69.0314 79.8893H72.724C72.7537 79.8893 72.7779 79.8651 72.7779 79.8354V67.3811C72.7779 67.3513 72.7537 67.3271 72.724 67.3271Z" fill="white"/>
<path d="M102.291 78.528C102.291 79.2828 101.684 79.8893 100.929 79.8893C100.175 79.8893 99.5684 79.2828 99.5684 78.528C99.5684 77.7732 100.175 77.1666 100.929 77.1666C101.684 77.1666 102.291 77.7732 102.291 78.528ZM100.943 77.3688C100.323 77.3553 99.8109 77.8675 99.7975 78.501C99.784 79.148 100.269 79.6737 100.889 79.6871C101.509 79.7006 102.021 79.1884 102.035 78.5549C102.048 77.908 101.563 77.3823 100.943 77.3688Z" fill="white"/>
<path d="M101.482 79.0806C101.509 79.121 101.482 79.1749 101.455 79.2019C101.428 79.2154 101.388 79.2154 101.361 79.2019C101.186 79.1075 101.064 78.9458 101.01 78.7571C100.983 78.6897 100.903 78.6492 100.835 78.6627C100.781 78.6762 100.741 78.7301 100.741 78.784V79.0806C100.741 79.148 100.687 79.1884 100.62 79.1884C100.552 79.1884 100.512 79.1345 100.512 79.0671V77.9349C100.512 77.881 100.539 77.8405 100.593 77.8405C100.889 77.7866 101.469 77.7866 101.469 78.2045C101.469 78.3527 101.401 78.474 101.28 78.5819C101.239 78.6088 101.239 78.6627 101.253 78.7032L101.482 79.0671V79.0806ZM100.714 78.164L100.741 78.4066C100.741 78.4605 100.795 78.4875 100.835 78.4875H100.903C101.064 78.4605 101.186 78.3662 101.186 78.2584V78.2179C101.172 78.1101 101.024 78.0427 100.862 78.0562H100.795C100.741 78.0562 100.714 78.1101 100.714 78.164Z" fill="white"/>
</g>
<defs>
<clipPath id="clip0_35_602">
<rect width="88.0545" height="44.2909" fill="white" transform="translate(14.2363 35.8545)"/>
</clipPath>
</defs>
</svg>
