<svg width="320" height="36" viewBox="0 0 320 36" fill="none" xmlns="http://www.w3.org/2000/svg">
<path d="M317.092 0V25.5926C317.092 26.6296 317.309 27.3333 317.742 27.7037C318.202 28.0741 318.954 28.2593 320 28.2593V29.037C319.566 29.0123 318.903 28.9877 318.01 28.963C317.143 28.9136 316.263 28.8889 315.37 28.8889C314.503 28.8889 313.623 28.9136 312.73 28.963C311.837 28.9877 311.174 29.0123 310.74 29.037V28.2593C311.786 28.2593 312.526 28.0741 312.96 27.7037C313.419 27.3333 313.648 26.6296 313.648 25.5926V4.44444C313.648 3.33333 313.444 2.51852 313.036 2C312.628 1.45679 311.863 1.18518 310.74 1.18518V0.407406C311.557 0.481481 312.347 0.518519 313.113 0.518519C313.852 0.518519 314.554 0.481481 315.217 0.407406C315.906 0.308642 316.531 0.17284 317.092 0Z" fill="#B8CAD8"/>
<path d="M298.916 29.2963C297.87 29.2963 296.965 29.1111 296.199 28.7407C295.434 28.3457 294.848 27.8025 294.439 27.1111C294.057 26.4198 293.865 25.6173 293.865 24.7037C293.865 23.6173 294.121 22.7284 294.631 22.037C295.166 21.3457 295.842 20.7901 296.659 20.3704C297.475 19.9506 298.329 19.6049 299.222 19.3333C300.14 19.037 301.008 18.7654 301.824 18.5185C302.64 18.2469 303.303 17.9383 303.814 17.5926C304.349 17.2469 304.617 16.7901 304.617 16.2222V13.9259C304.617 12.8889 304.451 12.0988 304.12 11.5556C303.813 11.0123 303.393 10.6543 302.857 10.4815C302.321 10.2839 301.722 10.1852 301.059 10.1852C300.421 10.1852 299.732 10.2716 298.993 10.4444C298.278 10.6173 297.704 10.9753 297.271 11.5185C297.755 11.6173 298.176 11.8642 298.533 12.2593C298.89 12.6543 299.069 13.1605 299.069 13.7778C299.069 14.3951 298.865 14.8889 298.457 15.2593C298.049 15.6049 297.526 15.7778 296.888 15.7778C296.148 15.7778 295.6 15.5556 295.243 15.1111C294.911 14.642 294.745 14.1235 294.745 13.5556C294.745 12.9136 294.911 12.3951 295.243 12C295.574 11.6049 295.995 11.2346 296.506 10.8889C297.092 10.4938 297.845 10.1605 298.763 9.88889C299.707 9.59259 300.765 9.44444 301.939 9.44444C302.985 9.44444 303.877 9.5679 304.617 9.81481C305.357 10.037 305.969 10.3704 306.454 10.8148C307.117 11.4074 307.55 12.1358 307.754 13C307.959 13.8395 308.061 14.8519 308.061 16.037V26.3333C308.061 26.9506 308.15 27.3951 308.328 27.6667C308.532 27.9383 308.839 28.0741 309.247 28.0741C309.527 28.0741 309.795 28.0123 310.05 27.8889C310.305 27.7654 310.611 27.5679 310.968 27.2963L311.389 27.9259C310.854 28.321 310.344 28.6543 309.859 28.9259C309.374 29.1728 308.724 29.2963 307.908 29.2963C307.168 29.2963 306.556 29.1728 306.071 28.9259C305.586 28.679 305.216 28.321 304.961 27.8519C304.732 27.358 304.617 26.7407 304.617 26C303.928 27.1111 303.099 27.9383 302.13 28.4815C301.186 29.0247 300.115 29.2963 298.916 29.2963ZM300.293 27.8148C301.135 27.8148 301.913 27.5802 302.627 27.1111C303.367 26.642 304.03 25.9383 304.617 25V17.7407C304.311 18.1605 303.865 18.5185 303.278 18.8148C302.691 19.0864 302.053 19.3704 301.365 19.6667C300.676 19.9383 300.013 20.2716 299.375 20.6667C298.763 21.037 298.253 21.5309 297.845 22.1481C297.437 22.7654 297.232 23.5679 297.232 24.5556C297.232 25.5432 297.5 26.3333 298.036 26.9259C298.597 27.5185 299.35 27.8148 300.293 27.8148Z" fill="#B8CAD8"/>
<path d="M287.645 3.81481V10H293.308V10.7407H287.645V25.0741C287.645 26.2346 287.862 27.0494 288.296 27.5185C288.73 27.9877 289.329 28.2222 290.094 28.2222C290.859 28.2222 291.523 27.9259 292.084 27.3333C292.645 26.716 293.13 25.6914 293.538 24.2593L294.303 24.4444C294.048 25.8765 293.538 27.0864 292.773 28.0741C292.033 29.0617 290.885 29.5556 289.329 29.5556C288.462 29.5556 287.748 29.4444 287.186 29.2222C286.625 29.0247 286.128 28.7284 285.694 28.3333C285.133 27.7654 284.738 27.0864 284.508 26.2963C284.304 25.5062 284.202 24.4568 284.202 23.1481V10.7407H280.529V10H284.202V4.33333C284.84 4.30864 285.452 4.25926 286.039 4.18518C286.625 4.11111 287.161 3.98765 287.645 3.81481Z" fill="#B8CAD8"/>
<path d="M276.166 0.703705C276.829 0.703705 277.403 0.938273 277.888 1.40741C278.372 1.87654 278.615 2.4321 278.615 3.07408C278.615 3.71605 278.372 4.27161 277.888 4.74074C277.403 5.20988 276.829 5.44445 276.166 5.44445C275.503 5.44445 274.929 5.20988 274.444 4.74074C273.959 4.27161 273.717 3.71605 273.717 3.07408C273.717 2.4321 273.959 1.87654 274.444 1.40741C274.929 0.938273 275.503 0.703705 276.166 0.703705ZM278.155 9.55556V25.5926C278.155 26.6296 278.372 27.3333 278.806 27.7037C279.265 28.0741 280.017 28.2593 281.063 28.2593V29.037C280.63 29.0124 279.966 28.9877 279.074 28.963C278.206 28.9136 277.326 28.8889 276.434 28.8889C275.566 28.8889 274.686 28.9136 273.794 28.963C272.901 28.9877 272.238 29.0124 271.804 29.037V28.2593C272.85 28.2593 273.589 28.0741 274.023 27.7037C274.482 27.3333 274.712 26.6296 274.712 25.5926V14C274.712 12.8889 274.508 12.0741 274.1 11.5556C273.692 11.0123 272.926 10.7407 271.804 10.7407V9.96296C272.62 10.037 273.411 10.0741 274.176 10.0741C274.916 10.0741 275.617 10.037 276.281 9.96296C276.969 9.8642 277.594 9.7284 278.155 9.55556Z" fill="#B8CAD8"/>
<path d="M257.189 9.55556V32.2963C257.189 33.358 257.507 34.0617 258.145 34.4074C258.808 34.7778 259.714 34.963 260.862 34.963V35.7407C260.301 35.7161 259.523 35.679 258.528 35.6296C257.533 35.6049 256.474 35.5926 255.352 35.5926C254.561 35.5926 253.771 35.6049 252.98 35.6296C252.215 35.679 251.628 35.7161 251.22 35.7407V34.963C252.138 34.963 252.789 34.8025 253.171 34.4815C253.554 34.1605 253.745 33.5556 253.745 32.6667V14C253.745 12.8889 253.541 12.0741 253.133 11.5556C252.725 11.0123 251.96 10.7407 250.837 10.7407V9.96296C251.653 10.037 252.444 10.0741 253.209 10.0741C253.949 10.0741 254.651 10.037 255.314 9.96296C256.002 9.8642 256.627 9.72839 257.189 9.55556ZM263.31 9.44444C264.662 9.44444 265.874 9.80247 266.945 10.5185C268.017 11.2099 268.858 12.2346 269.471 13.5926C270.108 14.9506 270.427 16.6296 270.427 18.6296C270.427 19.963 270.261 21.284 269.93 22.5926C269.598 23.8765 269.075 25.0494 268.361 26.1111C267.672 27.1481 266.767 27.9877 265.644 28.6296C264.548 29.2469 263.221 29.5556 261.665 29.5556C260.466 29.5556 259.421 29.284 258.528 28.7407C257.66 28.1975 257.074 27.5432 256.768 26.7778L257.15 26.2593C257.507 26.9506 258.018 27.5309 258.681 28C259.37 28.4691 260.224 28.7037 261.244 28.7037C262.673 28.7037 263.782 28.2716 264.573 27.4074C265.364 26.5432 265.912 25.3951 266.218 23.963C266.55 22.5062 266.716 20.9012 266.716 19.1481C266.716 17.1728 266.55 15.5556 266.218 14.2963C265.887 13.037 265.389 12.0988 264.726 11.4815C264.063 10.8642 263.247 10.5556 262.277 10.5556C261.028 10.5556 259.892 11.0617 258.872 12.0741C257.852 13.0617 257.201 14.5679 256.921 16.5926L256.462 16.0741C256.742 13.9753 257.507 12.3457 258.757 11.1852C260.033 10.0247 261.55 9.44444 263.31 9.44444Z" fill="#B8CAD8"/>
<path d="M239.013 29.2963C237.967 29.2963 237.061 29.1111 236.296 28.7407C235.531 28.3457 234.944 27.8025 234.536 27.1111C234.153 26.4198 233.962 25.6173 233.962 24.7037C233.962 23.6173 234.217 22.7284 234.727 22.037C235.263 21.3457 235.939 20.7901 236.755 20.3704C237.572 19.9506 238.426 19.6049 239.319 19.3333C240.237 19.037 241.104 18.7654 241.921 18.5185C242.737 18.2469 243.4 17.9383 243.91 17.5926C244.446 17.2469 244.714 16.7901 244.714 16.2222V13.9259C244.714 12.8889 244.548 12.0988 244.216 11.5556C243.91 11.0123 243.489 10.6543 242.954 10.4815C242.418 10.2839 241.819 10.1852 241.155 10.1852C240.518 10.1852 239.829 10.2716 239.089 10.4444C238.375 10.6173 237.801 10.9753 237.367 11.5185C237.852 11.6173 238.273 11.8642 238.63 12.2593C238.987 12.6543 239.166 13.1605 239.166 13.7778C239.166 14.3951 238.962 14.8889 238.554 15.2593C238.145 15.6049 237.623 15.7778 236.985 15.7778C236.245 15.7778 235.697 15.5556 235.34 15.1111C235.008 14.642 234.842 14.1235 234.842 13.5556C234.842 12.9136 235.008 12.3951 235.34 12C235.671 11.6049 236.092 11.2346 236.602 10.8889C237.189 10.4938 237.941 10.1605 238.86 9.88889C239.803 9.59259 240.862 9.44444 242.035 9.44444C243.081 9.44444 243.974 9.5679 244.714 9.81481C245.453 10.037 246.066 10.3704 246.55 10.8148C247.213 11.4074 247.647 12.1358 247.851 13C248.055 13.8395 248.157 14.8519 248.157 16.037V26.3333C248.157 26.9506 248.247 27.3951 248.425 27.6667C248.629 27.9383 248.935 28.0741 249.343 28.0741C249.624 28.0741 249.892 28.0123 250.147 27.8889C250.402 27.7654 250.708 27.5679 251.065 27.2963L251.486 27.9259C250.95 28.321 250.44 28.6543 249.956 28.9259C249.471 29.1728 248.82 29.2963 248.004 29.2963C247.264 29.2963 246.652 29.1728 246.168 28.9259C245.683 28.679 245.313 28.321 245.058 27.8519C244.828 27.358 244.714 26.7407 244.714 26C244.025 27.1111 243.196 27.9383 242.227 28.4815C241.283 29.0247 240.212 29.2963 239.013 29.2963ZM240.39 27.8148C241.232 27.8148 242.01 27.5802 242.724 27.1111C243.464 26.642 244.127 25.9383 244.714 25V17.7407C244.408 18.1605 243.961 18.5185 243.375 18.8148C242.788 19.0864 242.15 19.3704 241.461 19.6667C240.773 19.9383 240.11 20.2716 239.472 20.6667C238.86 21.037 238.349 21.5309 237.941 22.1481C237.533 22.7654 237.329 23.5679 237.329 24.5556C237.329 25.5432 237.597 26.3333 238.133 26.9259C238.694 27.5185 239.446 27.8148 240.39 27.8148Z" fill="#B8CAD8"/>
<path d="M221.852 2.29629C223.535 2.29629 224.912 2.54321 225.984 3.03703C227.081 3.50617 228.05 4.06173 228.892 4.7037C229.402 5.07407 229.784 5.12345 230.04 4.85185C230.32 4.55555 230.511 3.87654 230.613 2.81481H231.493C231.442 3.72839 231.404 4.8395 231.379 6.14814C231.353 7.45679 231.34 9.18518 231.34 11.3333H230.46C230.282 10.2716 230.116 9.4321 229.963 8.81481C229.81 8.17284 229.619 7.62963 229.389 7.18518C229.185 6.74074 228.904 6.29629 228.547 5.85185C227.757 4.8395 226.762 4.11111 225.563 3.66666C224.364 3.19753 223.101 2.96296 221.775 2.96296C220.525 2.96296 219.39 3.2716 218.37 3.88889C217.375 4.48148 216.508 5.34568 215.768 6.48148C215.054 7.61728 214.493 8.98765 214.084 10.5926C213.702 12.1975 213.511 14 213.511 16C213.511 18.0741 213.727 19.9136 214.161 21.5185C214.595 23.0988 215.194 24.4321 215.959 25.5185C216.75 26.6049 217.668 27.4321 218.714 28C219.785 28.5432 220.933 28.8148 222.158 28.8148C223.305 28.8148 224.504 28.5926 225.754 28.1481C227.004 27.7037 227.986 26.9877 228.7 26C229.262 25.2839 229.644 24.5062 229.848 23.6667C230.078 22.8272 230.282 21.6543 230.46 20.1481H231.34C231.34 22.3951 231.353 24.2099 231.379 25.5926C231.404 26.9506 231.442 28.0988 231.493 29.037H230.613C230.511 27.9753 230.333 27.3086 230.078 27.037C229.848 26.7654 229.453 26.8025 228.892 27.1481C227.948 27.7901 226.94 28.358 225.869 28.8518C224.823 29.321 223.471 29.5556 221.813 29.5556C219.39 29.5556 217.26 29.0247 215.424 27.963C213.613 26.9012 212.197 25.3704 211.177 23.3704C210.182 21.3704 209.684 18.963 209.684 16.1481C209.684 13.3827 210.207 10.963 211.253 8.88889C212.299 6.81481 213.727 5.19753 215.538 4.03703C217.375 2.87654 219.479 2.29629 221.852 2.29629Z" fill="#B8CAD8"/>
<path d="M197.435 0V25.5926C197.435 26.6296 197.652 27.3333 198.086 27.7037C198.545 28.0741 199.297 28.2593 200.343 28.2593V29.037C199.909 29.0123 199.246 28.9877 198.353 28.963C197.486 28.9136 196.606 28.8889 195.713 28.8889C194.846 28.8889 193.966 28.9136 193.073 28.963C192.181 28.9877 191.517 29.0123 191.084 29.037V28.2593C192.13 28.2593 192.869 28.0741 193.303 27.7037C193.762 27.3333 193.992 26.6296 193.992 25.5926V4.44444C193.992 3.33333 193.788 2.51852 193.379 2C192.971 1.45679 192.206 1.18518 191.084 1.18518V0.407406C191.9 0.481481 192.691 0.518519 193.456 0.518519C194.196 0.518519 194.897 0.481481 195.56 0.407406C196.249 0.308642 196.874 0.17284 197.435 0Z" fill="#F4F6F5"/>
<path d="M179.259 29.2963C178.213 29.2963 177.308 29.1111 176.542 28.7407C175.777 28.3457 175.191 27.8025 174.782 27.1111C174.4 26.4198 174.208 25.6173 174.208 24.7037C174.208 23.6173 174.464 22.7284 174.974 22.037C175.509 21.3457 176.185 20.7901 177.002 20.3704C177.818 19.9506 178.672 19.6049 179.565 19.3333C180.483 19.037 181.351 18.7654 182.167 18.5185C182.983 18.2469 183.646 17.9383 184.157 17.5926C184.692 17.2469 184.96 16.7901 184.96 16.2222V13.9259C184.96 12.8889 184.794 12.0988 184.463 11.5556C184.157 11.0123 183.736 10.6543 183.2 10.4815C182.664 10.2839 182.065 10.1852 181.402 10.1852C180.764 10.1852 180.075 10.2716 179.336 10.4444C178.621 10.6173 178.047 10.9753 177.614 11.5185C178.098 11.6173 178.519 11.8642 178.876 12.2593C179.234 12.6543 179.412 13.1605 179.412 13.7778C179.412 14.3951 179.208 14.8889 178.8 15.2593C178.392 15.6049 177.869 15.7778 177.231 15.7778C176.491 15.7778 175.943 15.5556 175.586 15.1111C175.254 14.642 175.089 14.1235 175.089 13.5556C175.089 12.9136 175.254 12.3951 175.586 12C175.918 11.6049 176.338 11.2346 176.849 10.8889C177.435 10.4938 178.188 10.1605 179.106 9.88889C180.05 9.59259 181.108 9.44444 182.282 9.44444C183.328 9.44444 184.22 9.5679 184.96 9.81481C185.7 10.037 186.312 10.3704 186.797 10.8148C187.46 11.4074 187.893 12.1358 188.097 13C188.302 13.8395 188.404 14.8519 188.404 16.037V26.3333C188.404 26.9506 188.493 27.3951 188.671 27.6667C188.875 27.9383 189.182 28.0741 189.59 28.0741C189.87 28.0741 190.138 28.0123 190.393 27.8889C190.648 27.7654 190.954 27.5679 191.311 27.2963L191.732 27.9259C191.197 28.321 190.687 28.6543 190.202 28.9259C189.717 29.1728 189.067 29.2963 188.251 29.2963C187.511 29.2963 186.899 29.1728 186.414 28.9259C185.929 28.679 185.559 28.321 185.304 27.8519C185.075 27.358 184.96 26.7407 184.96 26C184.271 27.1111 183.442 27.9383 182.473 28.4815C181.529 29.0247 180.458 29.2963 179.259 29.2963ZM180.636 27.8148C181.478 27.8148 182.256 27.5802 182.97 27.1111C183.71 26.642 184.373 25.9383 184.96 25V17.7407C184.654 18.1605 184.208 18.5185 183.621 18.8148C183.034 19.0864 182.396 19.3704 181.708 19.6667C181.019 19.9383 180.356 20.2716 179.718 20.6667C179.106 21.037 178.596 21.5309 178.188 22.1481C177.78 22.7654 177.576 23.5679 177.576 24.5556C177.576 25.5432 177.843 26.3333 178.379 26.9259C178.94 27.5185 179.693 27.8148 180.636 27.8148Z" fill="#F4F6F5"/>
<path d="M166.315 9.44444C167.131 9.44444 167.922 9.54321 168.687 9.74074C169.453 9.93827 170.141 10.2346 170.753 10.6296C171.34 11 171.787 11.4321 172.093 11.9259C172.399 12.3951 172.552 12.9136 172.552 13.4815C172.552 14.1481 172.36 14.6667 171.978 15.037C171.595 15.3827 171.111 15.5556 170.524 15.5556C169.963 15.5556 169.465 15.3951 169.032 15.0741C168.624 14.7531 168.42 14.2963 168.42 13.7037C168.42 13.1358 168.573 12.679 168.879 12.3333C169.21 11.9877 169.593 11.7654 170.027 11.6667C169.771 11.2222 169.312 10.8519 168.649 10.5556C168.011 10.2593 167.323 10.1111 166.583 10.1111C165.945 10.1111 165.308 10.2593 164.67 10.5556C164.032 10.8519 163.446 11.3457 162.91 12.037C162.374 12.7037 161.941 13.6296 161.609 14.8148C161.277 15.9753 161.112 17.4321 161.112 19.1852C161.112 21.358 161.367 23.0864 161.877 24.3704C162.387 25.6543 163.05 26.5802 163.866 27.1481C164.708 27.6914 165.626 27.963 166.621 27.963C167.284 27.963 167.96 27.8395 168.649 27.5926C169.338 27.3457 169.988 26.9506 170.6 26.4074C171.213 25.8395 171.736 25.0864 172.169 24.1482L172.896 24.4074C172.641 25.1975 172.22 26 171.633 26.8148C171.047 27.6049 170.282 28.2593 169.338 28.7778C168.394 29.2963 167.233 29.5556 165.856 29.5556C164.274 29.5556 162.846 29.1605 161.571 28.3704C160.295 27.5802 159.275 26.4568 158.51 25C157.77 23.5185 157.4 21.7654 157.4 19.7407C157.4 17.7161 157.77 15.9383 158.51 14.4074C159.275 12.8519 160.334 11.642 161.685 10.7778C163.037 9.88889 164.581 9.44444 166.315 9.44444Z" fill="#F4F6F5"/>
<path d="M151.427 0.703705C152.091 0.703705 152.665 0.938273 153.149 1.40741C153.634 1.87654 153.876 2.4321 153.876 3.07408C153.876 3.71605 153.634 4.27161 153.149 4.74074C152.665 5.20988 152.091 5.44445 151.427 5.44445C150.764 5.44445 150.19 5.20988 149.706 4.74074C149.221 4.27161 148.979 3.71605 148.979 3.07408C148.979 2.4321 149.221 1.87654 149.706 1.40741C150.19 0.938273 150.764 0.703705 151.427 0.703705ZM153.417 9.55556V25.5926C153.417 26.6296 153.634 27.3333 154.068 27.7037C154.527 28.0741 155.279 28.2593 156.325 28.2593V29.037C155.891 29.0124 155.228 28.9877 154.335 28.963C153.468 28.9136 152.588 28.8889 151.695 28.8889C150.828 28.8889 149.948 28.9136 149.055 28.963C148.163 28.9877 147.499 29.0124 147.066 29.037V28.2593C148.111 28.2593 148.851 28.0741 149.285 27.7037C149.744 27.3333 149.974 26.6296 149.974 25.5926V14C149.974 12.8889 149.769 12.0741 149.361 11.5556C148.953 11.0123 148.188 10.7407 147.066 10.7407V9.96296C147.882 10.037 148.673 10.0741 149.438 10.0741C150.178 10.0741 150.879 10.037 151.542 9.96296C152.231 9.8642 152.856 9.7284 153.417 9.55556Z" fill="#F4F6F5"/>
<path d="M141.235 3.81481V10H146.898V10.7407H141.235V25.0741C141.235 26.2346 141.452 27.0494 141.886 27.5185C142.319 27.9877 142.919 28.2222 143.684 28.2222C144.449 28.2222 145.113 27.9259 145.674 27.3333C146.235 26.716 146.72 25.6914 147.128 24.2593L147.893 24.4444C147.638 25.8765 147.128 27.0864 146.362 28.0741C145.623 29.0617 144.475 29.5556 142.919 29.5556C142.052 29.5556 141.337 29.4444 140.776 29.2222C140.215 29.0247 139.718 28.7284 139.284 28.3333C138.723 27.7654 138.327 27.0864 138.098 26.2963C137.894 25.5062 137.792 24.4568 137.792 23.1481V10.7407H134.119V10H137.792V4.33333C138.429 4.30864 139.042 4.25926 139.628 4.18518C140.215 4.11111 140.751 3.98765 141.235 3.81481Z" fill="#F4F6F5"/>
<path d="M126.545 9.44444C128.79 9.44444 130.537 10.1111 131.787 11.4444C133.063 12.7531 133.7 14.8025 133.7 17.5926H120.194L120.156 16.8889H130.027C130.078 15.679 129.976 14.5679 129.721 13.5556C129.466 12.5185 129.058 11.6914 128.497 11.0741C127.961 10.4568 127.26 10.1481 126.392 10.1481C125.219 10.1481 124.173 10.716 123.255 11.8519C122.362 12.9877 121.826 14.7901 121.648 17.2593L121.763 17.4074C121.712 17.7778 121.673 18.1852 121.648 18.6296C121.622 19.0741 121.61 19.5185 121.61 19.963C121.61 21.642 121.89 23.0864 122.451 24.2963C123.013 25.5062 123.739 26.4321 124.632 27.0741C125.551 27.6914 126.494 28 127.464 28C128.229 28 128.956 27.8889 129.645 27.6667C130.333 27.4198 130.971 27.0247 131.558 26.4815C132.144 25.9383 132.654 25.2099 133.088 24.2963L133.853 24.5926C133.573 25.4074 133.114 26.1975 132.476 26.963C131.838 27.7284 131.035 28.358 130.065 28.8519C129.096 29.321 127.974 29.5556 126.698 29.5556C124.862 29.5556 123.28 29.1481 121.954 28.3333C120.653 27.5185 119.645 26.3951 118.931 24.963C118.243 23.5062 117.898 21.8395 117.898 19.963C117.898 17.7901 118.255 15.9259 118.97 14.3704C119.684 12.7901 120.691 11.5802 121.992 10.7407C123.293 9.87654 124.811 9.44444 126.545 9.44444Z" fill="#F4F6F5"/>
<path d="M102.292 0.0370331V13.8889C102.955 12.2099 103.873 11.0494 105.047 10.4074C106.246 9.76543 107.495 9.44444 108.796 9.44444C109.766 9.44444 110.569 9.5679 111.207 9.81481C111.87 10.0617 112.418 10.4074 112.852 10.8518C113.337 11.3457 113.681 11.963 113.885 12.7037C114.089 13.4444 114.191 14.4444 114.191 15.7037V25.5926C114.191 26.6296 114.408 27.3333 114.842 27.7037C115.301 28.0741 116.053 28.2593 117.099 28.2593V29.037C116.666 29.0123 116.002 28.9876 115.11 28.963C114.217 28.9136 113.35 28.8889 112.508 28.8889C111.666 28.8889 110.837 28.9136 110.021 28.963C109.23 28.9876 108.631 29.0123 108.222 29.037V28.2593C109.141 28.2593 109.791 28.0741 110.174 27.7037C110.556 27.3333 110.748 26.6296 110.748 25.5926V14.8889C110.748 14.1235 110.684 13.4197 110.556 12.7778C110.429 12.1358 110.136 11.6173 109.676 11.2222C109.243 10.8272 108.567 10.6296 107.649 10.6296C106.603 10.6296 105.672 10.9136 104.855 11.4815C104.065 12.0494 103.44 12.8395 102.981 13.8518C102.521 14.8642 102.292 16.0247 102.292 17.3333V25.5926C102.292 26.6296 102.483 27.3333 102.866 27.7037C103.248 28.0741 103.899 28.2593 104.817 28.2593V29.037C104.409 29.0123 103.797 28.9876 102.981 28.963C102.19 28.9136 101.374 28.8889 100.532 28.8889C99.6901 28.8889 98.8228 28.9136 97.93 28.963C97.0373 28.9876 96.3741 29.0123 95.9404 29.037V28.2593C96.9863 28.2593 97.726 28.0741 98.1596 27.7037C98.6187 27.3333 98.8483 26.6296 98.8483 25.5926V4.48148C98.8483 3.37037 98.6443 2.55555 98.2361 2.03703C97.828 1.49382 97.0628 1.22222 95.9404 1.22222V0.444442C96.7567 0.518515 97.5474 0.555552 98.3127 0.555552C99.0524 0.555552 99.7538 0.518515 100.417 0.444442C101.106 0.345677 101.731 0.209873 102.292 0.0370331Z" fill="#F4F6F5"/>
<path d="M90.4519 3.81481V10H96.1146V10.7407H90.4519V25.0741C90.4519 26.2346 90.6687 27.0494 91.1023 27.5185C91.536 27.9877 92.1354 28.2222 92.9006 28.2222C93.6659 28.2222 94.3291 27.9259 94.8902 27.3333C95.4514 26.716 95.9361 25.6914 96.3442 24.2593L97.1094 24.4444C96.8543 25.8765 96.3442 27.0864 95.5789 28.0741C94.8392 29.0617 93.6914 29.5556 92.1354 29.5556C91.2681 29.5556 90.5539 29.4444 89.9927 29.2222C89.4316 29.0247 88.9342 28.7284 88.5005 28.3333C87.9394 27.7654 87.544 27.0864 87.3144 26.2963C87.1104 25.5062 87.0083 24.4568 87.0083 23.1481V10.7407H83.3352V10H87.0083V4.33333C87.646 4.30864 88.2582 4.25926 88.8449 4.18518C89.4316 4.11111 89.9672 3.98765 90.4519 3.81481Z" fill="#F4F6F5"/>
<path d="M74.2325 9.44444C75.865 9.44444 77.3317 9.79012 78.6326 10.4815C79.9335 11.1728 80.9666 12.2593 81.7318 13.7407C82.5226 15.2222 82.9179 17.1481 82.9179 19.5185C82.9179 21.8889 82.5226 23.8148 81.7318 25.2963C80.9666 26.7531 79.9335 27.8272 78.6326 28.5185C77.3317 29.2099 75.865 29.5556 74.2325 29.5556C72.6255 29.5556 71.1588 29.2099 69.8324 28.5185C68.5315 27.8272 67.4857 26.7531 66.695 25.2963C65.9297 23.8148 65.5471 21.8889 65.5471 19.5185C65.5471 17.1481 65.9297 15.2222 66.695 13.7407C67.4857 12.2593 68.5315 11.1728 69.8324 10.4815C71.1588 9.79012 72.6255 9.44444 74.2325 9.44444ZM74.2325 10.1852C72.7786 10.1852 71.5797 10.9136 70.6359 12.3704C69.7176 13.8272 69.2585 16.2099 69.2585 19.5185C69.2585 22.8272 69.7176 25.2099 70.6359 26.6667C71.5797 28.0988 72.7786 28.8148 74.2325 28.8148C75.6865 28.8148 76.8726 28.0988 77.7909 26.6667C78.7347 25.2099 79.2065 22.8272 79.2065 19.5185C79.2065 16.2099 78.7347 13.8272 77.7909 12.3704C76.8726 10.9136 75.6865 10.1852 74.2325 10.1852Z" fill="#F4F6F5"/>
<path d="M50.2418 9.55556V32.2963C50.2418 33.358 50.5607 34.0617 51.1984 34.4074C51.8616 34.7778 52.7671 34.963 53.9149 34.963V35.7407C53.3538 35.7161 52.5758 35.679 51.581 35.6296C50.5862 35.6049 49.5276 35.5926 48.4053 35.5926C47.6145 35.5926 46.8238 35.6049 46.033 35.6296C45.2678 35.679 44.6811 35.7161 44.273 35.7407V34.963C45.1913 34.963 45.8417 34.8025 46.2243 34.4815C46.607 34.1605 46.7983 33.5556 46.7983 32.6667V14C46.7983 12.8889 46.5942 12.0741 46.1861 11.5556C45.778 11.0123 45.0127 10.7407 43.8904 10.7407V9.96296C44.7066 10.037 45.4974 10.0741 46.2626 10.0741C47.0023 10.0741 47.7038 10.037 48.367 9.96296C49.0557 9.8642 49.6806 9.72839 50.2418 9.55556ZM56.3637 9.44444C57.7156 9.44444 58.9272 9.80247 59.9986 10.5185C61.0699 11.2099 61.9116 12.2346 62.5238 13.5926C63.1615 14.9506 63.4804 16.6296 63.4804 18.6296C63.4804 19.963 63.3146 21.284 62.983 22.5926C62.6514 23.8765 62.1285 25.0494 61.4142 26.1111C60.7255 27.1481 59.82 27.9877 58.6977 28.6296C57.6008 29.2469 56.2744 29.5556 54.7184 29.5556C53.5196 29.5556 52.4738 29.284 51.581 28.7407C50.7137 28.1975 50.127 27.5432 49.8209 26.7778L50.2036 26.2593C50.5607 26.9506 51.0708 27.5309 51.734 28C52.4227 28.4691 53.2772 28.7037 54.2976 28.7037C55.726 28.7037 56.8356 28.2716 57.6263 27.4074C58.4171 26.5432 58.9655 25.3951 59.2716 23.963C59.6032 22.5062 59.769 20.9012 59.769 19.1481C59.769 17.1728 59.6032 15.5556 59.2716 14.2963C58.94 13.037 58.4426 12.0988 57.7794 11.4815C57.1162 10.8642 56.2999 10.5556 55.3306 10.5556C54.0807 10.5556 52.9457 11.0617 51.9253 12.0741C50.905 13.0617 50.2546 14.5679 49.974 16.5926L49.5149 16.0741C49.7954 13.9753 50.5607 12.3457 51.8106 11.1852C53.0859 10.0247 54.6037 9.44444 56.3637 9.44444Z" fill="#F4F6F5"/>
<path d="M44.1996 9.96296V10.7037C43.715 10.7531 43.2686 10.963 42.8604 11.3333C42.4523 11.7037 42.0697 12.358 41.7126 13.2963L35.4377 29.2222H34.7872L27.7471 12.8148C27.2624 11.8519 26.7778 11.2716 26.2931 11.0741C25.834 10.8519 25.4514 10.7407 25.1453 10.7407V9.96296C25.7064 10.037 26.2931 10.0988 26.9053 10.1481C27.5175 10.1728 28.1807 10.1852 28.8949 10.1852C29.6857 10.1852 30.5147 10.1605 31.3819 10.1111C32.2747 10.0617 33.1037 10.0123 33.8689 9.96296V10.7407C33.2312 10.7407 32.6573 10.7901 32.1472 10.8889C31.6625 10.963 31.3564 11.2222 31.2289 11.6667C31.1013 12.0864 31.2544 12.8148 31.688 13.8519L36.3942 25.1481L36.1646 25.2222L40.5265 14.1852C40.8581 13.3704 40.9856 12.7284 40.9091 12.2593C40.8581 11.7654 40.603 11.3951 40.1439 11.1481C39.6847 10.9012 38.996 10.7531 38.0777 10.7037V9.96296C38.5369 9.98766 38.9322 10.0123 39.2638 10.037C39.5954 10.037 39.9143 10.0494 40.2204 10.0741C40.552 10.0741 40.9091 10.0741 41.2917 10.0741C41.8784 10.0741 42.4013 10.0617 42.8604 10.037C43.3451 10.0123 43.7915 9.98766 44.1996 9.96296ZM35.4377 29.2222L34.1368 32.4444C33.8817 33.0617 33.6139 33.5802 33.3333 34C33.0782 34.4198 32.7976 34.7654 32.4915 35.037C32.0834 35.4074 31.5987 35.6543 31.0376 35.7778C30.4764 35.9259 29.9662 36 29.5071 36C29.0225 36 28.5761 35.9136 28.1679 35.7407C27.7853 35.5679 27.4792 35.3086 27.2497 34.963C27.0201 34.642 26.9053 34.2469 26.9053 33.7778C26.9053 33.1852 27.0839 32.7037 27.441 32.3333C27.7981 31.9877 28.2955 31.8148 28.9332 31.8148C29.4688 31.8148 29.928 31.963 30.3106 32.2593C30.6932 32.5556 30.8845 32.9877 30.8845 33.5556C30.8845 33.9753 30.7825 34.321 30.5784 34.5926C30.3744 34.8642 30.132 35.0741 29.8515 35.2222C29.9025 35.2469 29.9407 35.2593 29.9662 35.2593C30.0173 35.2593 30.0555 35.2593 30.081 35.2593C30.7697 35.2593 31.3819 35.0247 31.9176 34.5556C32.4533 34.1111 32.9251 33.3827 33.3333 32.3704L34.7107 28.9259L35.4377 29.2222Z" fill="#F4F6F5"/>
<path d="M15.9934 29.037V28.2963C16.8606 28.2469 17.5111 28.1481 17.9447 28C18.4039 27.8518 18.71 27.5556 18.863 27.1111C19.0161 26.6667 19.0926 26 19.0926 25.1111V6.74074C19.0926 5.82716 19.0161 5.16049 18.863 4.74074C18.71 4.29629 18.4039 4 17.9447 3.85185C17.5111 3.67901 16.8606 3.58024 15.9934 3.55555V2.81481C16.5801 2.8395 17.3198 2.86419 18.2126 2.88888C19.1053 2.91358 19.9854 2.92592 20.8526 2.92592C21.8474 2.92592 22.7785 2.91358 23.6457 2.88888C24.513 2.86419 25.2144 2.8395 25.7501 2.81481V3.55555C24.8828 3.58024 24.2196 3.67901 23.7605 3.85185C23.3269 4 23.0335 4.29629 22.8805 4.74074C22.7274 5.16049 22.6509 5.82716 22.6509 6.74074V25.1111C22.6509 26 22.7274 26.6667 22.8805 27.1111C23.0335 27.5556 23.3269 27.8518 23.7605 28C24.2196 28.1481 24.8828 28.2469 25.7501 28.2963V29.037C25.2144 28.9877 24.513 28.963 23.6457 28.963C22.7785 28.9383 21.8474 28.9259 20.8526 28.9259C19.9854 28.9259 19.1053 28.9383 18.2126 28.963C17.3198 28.963 16.5801 28.9877 15.9934 29.037ZM0 29.037V28.2963C0.867265 28.2469 1.51771 28.1481 1.95135 28C2.41049 27.8518 2.71658 27.5556 2.86963 27.1111C3.02267 26.6667 3.0992 26 3.0992 25.1111V6.74074C3.0992 5.82716 3.02267 5.16049 2.86963 4.74074C2.71658 4.29629 2.41049 4 1.95135 3.85185C1.51771 3.67901 0.867265 3.58024 0 3.55555V2.81481C0.535663 2.8395 1.23713 2.86419 2.10439 2.88888C2.97166 2.91358 3.90269 2.92592 4.8975 2.92592C5.79027 2.92592 6.67029 2.91358 7.53755 2.88888C8.43032 2.86419 9.17005 2.8395 9.75673 2.81481V3.55555C8.88946 3.58024 8.22626 3.67901 7.76712 3.85185C7.33349 4 7.04015 4.29629 6.8871 4.74074C6.73406 5.16049 6.65753 5.82716 6.65753 6.74074V25.1111C6.65753 26 6.73406 26.6667 6.8871 27.1111C7.04015 27.5556 7.33349 27.8518 7.76712 28C8.22626 28.1481 8.88946 28.2469 9.75673 28.2963V29.037C9.17005 28.9877 8.43032 28.963 7.53755 28.963C6.67029 28.9383 5.79027 28.9259 4.8975 28.9259C3.90269 28.9259 2.97166 28.9383 2.10439 28.963C1.23713 28.963 0.535663 28.9877 0 29.037ZM5.31837 16.2222V15.4815H20.4317V16.2222H5.31837Z" fill="#F4F6F5"/>
</svg>
