<svg width="116" height="116" viewBox="0 0 116 116" fill="none" xmlns="http://www.w3.org/2000/svg">
<g clip-path="url(#clip0_35_674)">
<path d="M6.64939 60.0204C6.64939 60.0204 6.64939 59.9487 6.64939 59.8052C6.64939 59.7335 6.70413 59.6618 6.77713 59.6618L7.39757 59.626C7.45232 59.626 7.48881 59.5722 7.48881 59.5184C7.47056 59.375 7.48881 59.3033 7.58005 59.2853C7.74429 59.2495 7.90852 59.4108 8.09101 59.4108C8.14575 59.4108 8.2005 59.3571 8.2005 59.3033C8.2005 59.2316 8.18225 59.1599 8.14575 59.1061C8.14575 59.0702 8.14575 59.0344 8.164 59.0164C8.164 59.0164 8.18225 59.0164 8.2005 59.0164H8.7662C8.8027 59.0164 8.83919 59.0523 8.83919 59.0881V59.1061C8.82094 59.1599 8.83919 59.2674 8.87569 59.3929C8.89394 59.4467 8.96693 59.4825 9.02168 59.4646C9.02168 59.4646 9.02168 59.4646 9.03992 59.4646C9.40489 59.2495 9.60562 59.2316 9.64212 59.4288C9.64212 59.5005 9.73336 59.5363 9.78811 59.5184H9.84285C9.93409 59.4825 10.0071 59.5184 10.0436 59.608L10.0983 59.8052C10.0983 59.8769 10.1713 59.9128 10.2443 59.9128H10.591C10.6823 59.9128 10.7553 59.9666 10.7735 60.0562C10.7735 60.1279 10.8465 60.1638 10.9195 60.1638C10.9195 60.1638 10.9378 60.1638 10.956 60.1638C11.0472 60.1279 11.1385 60.1279 11.2115 60.1638C11.248 60.1638 11.2662 60.2176 11.248 60.2534C11.248 60.2713 11.2297 60.2893 11.1932 60.2893L10.8648 60.3789C10.8283 60.3789 10.81 60.4148 10.8283 60.4506L10.8648 60.5044C10.9013 60.5582 10.9743 60.612 11.0472 60.612C11.1202 60.612 11.1932 60.612 11.248 60.612C11.2845 60.612 11.3392 60.6478 11.4122 60.7195C11.5035 60.7912 11.5947 60.8629 11.6859 60.9167C11.7407 60.9526 11.8137 60.9705 11.8867 60.9526L12.2151 60.8629C12.2699 60.8629 12.3246 60.8629 12.3794 60.8809C12.6714 61.0781 12.9633 61.1856 13.2371 61.2394C13.31 61.2394 13.4013 61.2036 13.4013 61.1139C13.4013 61.1139 13.4013 61.096 13.4013 61.0781V60.845C13.383 60.7375 13.2918 60.6478 13.1823 60.6299C12.6349 60.5582 12.5619 60.0562 11.9232 60.2893C11.9049 60.2893 11.8684 60.2893 11.8502 60.2534C11.8502 60.2534 11.8502 60.2176 11.8502 60.1996C11.9049 60.1279 12.0144 60.0921 12.1969 60.0921C12.2334 60.0921 12.2699 60.0741 12.2699 60.0383C12.2699 60.0383 12.2699 60.0024 12.2516 59.9845C12.2516 59.9845 12.2334 59.9666 12.2151 59.9666C11.8684 59.9666 11.3575 59.8769 11.5035 59.4288C11.5764 59.1778 11.467 58.9985 11.1385 58.873C11.0837 58.8551 11.029 58.873 10.9925 58.9268C10.9743 58.9985 10.8465 59.0702 10.591 59.1419C10.5363 59.1419 10.4815 59.1419 10.445 59.1419C10.2808 59.0702 10.1166 59.0881 9.93409 59.2316C9.8976 59.2495 9.8611 59.2316 9.8246 59.2316C9.8246 59.2316 9.8246 59.1957 9.8246 59.1778C9.8246 59.0702 9.8246 58.9985 9.8246 58.9627C9.78811 58.9089 9.80636 58.8372 9.8611 58.8013C9.95234 58.7655 10.0071 58.7296 10.0253 58.6758C10.0253 58.64 10.0253 58.6041 9.98884 58.5862C9.98884 58.5862 9.97059 58.5862 9.95234 58.5862C9.67862 58.5862 9.51438 58.5862 9.44139 58.622C9.38664 58.64 9.3319 58.64 9.2954 58.622L8.87569 58.4607C8.80269 58.4248 8.71145 58.4607 8.67496 58.5324L8.62021 58.64C8.58371 58.6937 8.52897 58.7117 8.47422 58.6758C8.47422 58.6758 8.43773 58.6579 8.43773 58.64L8.25524 58.3352C8.237 58.2993 8.25524 58.2635 8.27349 58.2456C8.27349 58.2456 8.27349 58.2456 8.29174 58.2456C8.34649 58.2456 8.41948 58.2456 8.49247 58.2276C8.58371 58.2276 8.63846 58.2097 8.65671 58.1918C8.6932 58.1559 8.71145 58.1201 8.6932 58.0842C8.6932 58.0484 8.6932 58.0125 8.74795 57.9946C8.74795 57.9946 8.74795 57.9946 8.7662 57.9946C8.85744 57.9946 9.00343 57.9587 9.22241 57.8332C9.27715 57.7974 9.35015 57.7974 9.40489 57.8332C9.45964 57.8691 9.49613 57.8691 9.51438 57.8691C9.58738 57.8512 9.62387 57.7974 9.60562 57.7436C9.60562 57.7436 9.60562 57.6898 9.60562 57.636C9.60562 57.6002 9.64212 57.5643 9.69687 57.5643C9.69687 57.5643 9.71511 57.5643 9.73336 57.5643C9.80636 57.6002 9.97059 57.5823 10.2078 57.5105C10.2808 57.4926 10.3173 57.4209 10.2808 57.3492C10.2808 57.3133 10.2443 57.2954 10.2078 57.2775C9.8611 57.1161 9.53263 57.0624 9.35015 56.668C9.2589 56.4708 9.03992 56.4349 8.65671 56.5425C8.45598 56.5963 8.25524 56.5425 8.07276 56.3991C8.01801 56.3632 7.94502 56.3453 7.89028 56.3632C7.79903 56.3991 7.74429 56.417 7.72604 56.3991C7.70779 56.3991 7.68954 56.3991 7.68954 56.3632C7.68954 56.3632 7.68954 56.3273 7.72604 56.3273L7.90852 56.2736C7.96327 56.2736 7.98152 56.2019 7.96327 56.166C7.96327 56.1481 7.94502 56.1301 7.90852 56.1122C7.68954 56.0047 7.43407 56.0226 7.32458 56.2736C7.25158 56.4349 7.14209 56.5963 6.95961 56.7397H6.92311C6.90486 56.7217 6.92311 56.6859 6.92311 56.668C7.12384 56.5066 7.21509 56.3273 7.19684 56.1481C7.19684 56.0943 7.23333 56.0405 7.26983 56.0226C7.48881 55.9509 7.6713 55.915 7.85378 55.9509C7.89028 55.9509 7.92677 55.9688 7.96327 56.0047L8.32824 56.3273C8.40123 56.3811 8.49247 56.3991 8.58371 56.3453C8.67496 56.2915 8.80269 56.2556 8.98518 56.2556C9.02168 56.2556 9.05817 56.2198 9.05817 56.1839C9.05817 56.166 9.05817 56.1301 9.02168 56.1122C8.78445 55.9329 8.71145 55.6999 8.82094 55.3951C8.85744 55.3055 8.80269 55.2159 8.71145 55.18C8.6932 55.18 8.67496 55.18 8.63846 55.18C8.25524 55.2159 7.92677 55.3234 7.61655 55.5206C7.56181 55.5565 7.48881 55.5385 7.47056 55.4848C7.47056 55.4848 7.47056 55.4668 7.47056 55.4489C7.43407 55.2876 7.36107 55.2517 7.26983 55.2876C7.1056 55.3772 6.95961 55.4668 6.85012 55.5744C6.72238 55.682 6.5034 55.682 6.39391 55.5385C6.35741 55.5027 6.33916 55.4489 6.32092 55.4131C6.32092 55.4131 6.32092 55.3055 6.30267 55.1262C6.30267 55.0187 6.33916 54.9469 6.43041 54.9111C6.5399 54.8752 6.66764 54.8932 6.85012 54.929C6.88662 54.929 6.92311 54.929 6.94136 54.8932C6.94136 54.8752 6.94136 54.8573 6.94136 54.8394C6.74063 54.5705 6.52165 54.4271 6.28442 54.4271C6.28442 54.4271 6.24792 54.4271 6.24792 54.445C6.24792 54.4629 6.24792 54.4808 6.26617 54.4808C6.28442 54.4808 6.26617 54.4808 6.21143 54.4091C6.17493 54.3733 6.17493 54.3195 6.21143 54.2836C6.21143 54.2657 6.24792 54.2478 6.28442 54.2478C6.4669 54.2478 6.64939 54.2119 6.83187 54.1402C6.92311 54.1044 7.01435 54.1402 7.05085 54.2299V54.3195C7.08735 54.3733 7.14209 54.4091 7.19684 54.3912C7.21509 54.3912 7.23333 54.3912 7.25158 54.3553C7.32458 54.2657 7.45232 54.3016 7.6348 54.4988C7.79903 54.678 7.89028 54.7677 7.94502 54.8035C7.98152 54.8394 8.05451 54.8394 8.09101 54.8035C8.12751 54.7497 8.10926 54.678 8.07276 54.6422C7.83553 54.4808 7.74429 54.3016 7.78079 54.0864C7.78079 54.0327 7.74429 53.9789 7.68954 53.9789C7.68954 53.9789 7.6713 53.9789 7.65305 53.9789C7.50706 53.9968 7.39757 53.9789 7.32458 53.8534C7.28808 53.7996 7.21509 53.7637 7.14209 53.7817L6.74063 53.8892C6.70413 53.8892 6.64939 53.8892 6.63114 53.8534C6.4669 53.6562 6.43041 53.5128 6.5034 53.3873C6.5399 53.3156 6.5399 53.2439 6.5034 53.1721C6.48515 53.1363 6.5034 53.0825 6.52165 53.0646C6.52165 53.0646 6.5399 53.0646 6.55815 53.0646L7.05085 53.0108C7.12384 53.0108 7.17859 53.0467 7.19684 53.1184L7.23333 53.2618C7.23333 53.3156 7.30633 53.3514 7.36107 53.3335C7.36107 53.3335 7.36107 53.3335 7.37932 53.3335C7.58005 53.208 7.83553 53.2439 8.10926 53.459C8.164 53.4948 8.164 53.5665 8.12751 53.6203C8.09101 53.6562 8.10926 53.71 8.14575 53.7458C8.2005 53.7637 8.30999 53.7817 8.43773 53.7817C8.47422 53.7817 8.51072 53.8175 8.51072 53.8534C8.51072 53.8892 8.49247 53.9072 8.45598 53.9251C8.30999 53.9968 8.21875 54.1223 8.164 54.3195C8.1275 54.4629 8.21875 54.5884 8.36473 54.6063C8.47422 54.6243 8.56547 54.5884 8.63846 54.4988C8.6932 54.4091 8.80269 54.3374 8.96693 54.2657C9.20416 54.1581 9.35015 54.194 9.40489 54.3553C9.42314 54.4091 9.47789 54.4271 9.53263 54.4091L9.60562 54.3733C9.66037 54.3374 9.67862 54.2657 9.66037 54.2119C9.53263 53.943 9.3684 53.8713 9.16766 53.9968C9.13117 54.0327 9.07642 53.9968 9.03992 53.9789C9.03992 53.9789 9.03992 53.9789 9.03992 53.9609C9.03992 53.9251 9.03992 53.8713 9.03992 53.7637C9.03992 53.71 9.07642 53.6562 9.13117 53.6203C9.2954 53.4948 9.40489 53.4052 9.45964 53.3514C9.47789 53.3156 9.47789 53.2797 9.45964 53.2439C9.45964 53.2439 9.42314 53.2439 9.40489 53.2439C9.2589 53.2439 9.11292 53.2439 8.93043 53.1721C8.85744 53.1542 8.78445 53.1721 8.7297 53.2259C8.7297 53.2259 8.71145 53.2259 8.6932 53.2439C8.63846 53.2976 8.54722 53.2976 8.49247 53.2439C8.36473 53.1721 8.21875 53.1363 8.01801 53.1542C7.98152 53.1542 7.94502 53.1363 7.94502 53.1004C7.94502 53.0825 7.94502 53.0646 7.94502 53.0467C8.164 52.8136 8.40123 52.706 8.67496 52.7598C8.7297 52.7598 8.7662 52.7419 8.78445 52.6881C8.78445 52.6523 8.78445 52.6164 8.7297 52.5985C8.43773 52.4551 8.164 52.3833 7.89028 52.4192C7.83553 52.4192 7.79903 52.3833 7.79903 52.3475C7.79903 52.3116 7.81728 52.2758 7.85378 52.2579C8.21875 52.1503 8.51072 52.1144 8.7297 52.1682C8.78445 52.1682 8.82094 52.1682 8.85744 52.1144L8.89394 52.0607C8.89394 52.0607 8.91219 52.0427 8.93043 52.0607L9.49613 52.1144C9.55088 52.1144 9.62387 52.0965 9.66037 52.0427L9.78811 51.8097C9.84285 51.72 9.80636 51.6125 9.71511 51.5587C9.53263 51.4691 9.42314 51.3615 9.36839 51.2719C9.07642 50.7699 8.54722 50.6265 8.12751 51.1105C8.12751 51.1105 8.12751 51.1105 8.10926 51.1284L7.43407 51.5766C7.39757 51.5945 7.34282 51.5945 7.30633 51.5766C7.23333 51.5408 7.14209 51.5408 7.0326 51.5766C6.81362 51.6842 6.68588 51.487 6.44865 51.7021C6.41216 51.738 6.37566 51.7559 6.32092 51.738C6.28442 51.738 6.26617 51.738 6.24792 51.7021C6.21143 51.6663 6.21143 51.6304 6.24792 51.5945C6.33916 51.5049 6.35741 51.4153 6.32092 51.3077C6.32092 51.2719 6.32092 51.2181 6.35741 51.2001C6.35741 51.2001 6.37566 51.2001 6.39391 51.2001C6.70413 51.2001 6.92311 51.1464 7.0326 51.0567C7.08735 51.0209 7.1056 50.9671 7.12384 50.9133C7.14209 50.7878 7.17859 50.6982 7.23333 50.6444C7.28808 50.5906 7.36107 50.5906 7.45232 50.6085C7.54356 50.6265 7.6348 50.6444 7.68954 50.6265C7.72604 50.6265 7.74429 50.5727 7.74429 50.5368C7.74429 50.501 7.70779 50.4831 7.6713 50.4831C7.45232 50.4831 7.25158 50.4293 7.05085 50.3396C6.97786 50.3038 6.90486 50.3038 6.83187 50.3396C6.68588 50.4113 6.4669 50.4472 6.21143 50.4651C6.17493 50.4651 6.13843 50.4293 6.13843 50.3934V50.3576L6.19318 50.25C6.21143 50.2141 6.19318 50.1604 6.15668 50.1424C6.13843 50.1424 6.12018 50.1424 6.08369 50.1424L5.82821 50.2141C5.77346 50.2141 5.71872 50.1962 5.70047 50.1424C5.70047 50.1066 5.70047 50.0707 5.73697 50.0349C5.99245 49.8377 6.19318 49.8197 6.33916 49.9632C6.35741 49.999 6.41216 49.999 6.44865 49.9632L6.92311 49.6943C6.95961 49.6943 6.97786 49.6763 7.01435 49.6943C7.34282 49.7839 7.50706 49.6405 7.81728 49.8556C7.92677 49.9273 8.05451 49.8915 8.14575 49.748C8.18225 49.7122 8.164 49.6584 8.12751 49.6225H8.09101L6.94136 49.4971C6.90486 49.4971 6.88662 49.4971 6.86837 49.515C6.66763 49.6405 6.4669 49.5867 6.28442 49.3178C6.24792 49.2819 6.26617 49.2281 6.30267 49.1923C6.30267 49.1923 6.32092 49.1923 6.33916 49.1923C6.5399 49.1564 6.61289 49.0668 6.61289 48.9055C6.61289 48.8696 6.64939 48.8337 6.68588 48.8158C6.68588 48.8158 6.70413 48.8158 6.72238 48.8158C6.90486 48.8696 7.0326 48.8875 7.12384 48.8517C7.12384 48.8517 7.14209 48.8517 7.14209 48.8337L7.36107 48.6007C7.41582 48.5469 7.50706 48.5111 7.58005 48.5469L8.01801 48.7083C8.03626 48.7083 8.07276 48.7083 8.07276 48.6724C8.07276 48.6545 8.07276 48.6365 8.07276 48.6186L7.85378 48.4931C7.79903 48.4573 7.78079 48.3856 7.81728 48.3318C7.83553 48.2959 7.89028 48.2601 7.92677 48.278L9.38664 48.4573C9.44139 48.4573 9.47789 48.4752 9.51438 48.4931L9.95234 48.7262C10.0253 48.762 10.0436 48.8517 10.0071 48.9234C9.98884 48.9592 9.95234 48.9951 9.8976 48.9951C9.53263 49.0668 9.2589 49.0489 9.05817 48.9772C9.03992 48.9772 9.00343 48.9772 8.98518 49.013C8.98518 49.013 8.98518 49.0309 8.98518 49.0489C8.98518 49.0489 9.02168 49.0847 9.07642 49.1385C9.11292 49.1923 9.11292 49.264 9.07642 49.2999L8.89394 49.4791C8.85744 49.515 8.83919 49.5688 8.85744 49.6046C8.85744 49.6943 8.89394 49.766 8.94868 49.8018C9.02168 49.8377 9.09467 49.8377 9.18591 49.766C9.22241 49.7301 9.2589 49.7122 9.31365 49.6943C9.3319 49.6943 9.36839 49.6943 9.38664 49.6943L9.84285 49.9452C9.87935 49.9632 9.91585 49.9452 9.95234 49.9273C10.0436 49.8018 10.1896 49.7839 10.3903 49.8556C10.4086 49.8556 10.4268 49.8556 10.445 49.8556L10.8465 49.748C10.9013 49.748 10.9378 49.6943 10.9195 49.6405C10.9195 49.6225 10.9013 49.5867 10.8648 49.5867L10.664 49.4791C10.6275 49.4612 10.5728 49.4433 10.5363 49.4791L9.8976 49.6405C9.87935 49.6405 9.8611 49.6405 9.84285 49.6225C9.84285 49.6225 9.84285 49.6046 9.84285 49.5867C9.91585 49.4971 9.91585 49.3895 9.84285 49.3178C9.80636 49.2819 9.8246 49.2102 9.8611 49.1923C9.8611 49.1923 9.87935 49.1923 9.8976 49.1923L10.1713 49.1206C10.2261 49.1206 10.2808 49.0668 10.2991 49.0309C10.3903 48.8696 10.518 48.762 10.6458 48.6724C10.7005 48.6545 10.7188 48.5828 10.7005 48.529C10.664 48.3676 10.664 48.1884 10.7005 48.0091C10.7005 47.9195 10.6458 47.8298 10.5545 47.8119C10.5545 47.8119 10.5545 47.8119 10.5363 47.8119C10.1896 47.8119 9.91585 47.7223 9.69687 47.5609C9.69687 47.5609 9.67862 47.5251 9.69687 47.5071C9.69687 47.4892 9.73336 47.4892 9.76986 47.5071C9.8611 47.5788 9.93409 47.6326 10.0253 47.6685C10.0618 47.6685 10.1166 47.6685 10.1166 47.6326C10.1166 47.6147 10.1166 47.5968 10.1166 47.5788C10.0253 47.4175 9.91585 47.2741 9.75161 47.1486C9.73336 47.1486 9.73336 47.1127 9.75161 47.0948C9.75161 47.0769 9.78811 47.0589 9.8246 47.0948C9.91585 47.1665 10.0983 47.3279 10.3538 47.5968C10.5545 47.8119 10.7553 47.8119 10.956 47.5788C10.9925 47.5251 11.0655 47.4892 11.1385 47.4713C11.2297 47.4533 11.3027 47.4175 11.3575 47.3637C11.3757 47.3458 11.4305 47.3279 11.4487 47.3637L11.4852 47.4175V47.4533C11.0107 47.5251 10.8283 47.8298 10.9195 48.3676C10.9195 48.4214 10.9743 48.4573 11.029 48.4393C11.029 48.4393 11.0655 48.4393 11.0837 48.4214C11.1932 48.3318 11.2662 48.2421 11.3027 48.1346C11.321 48.0808 11.394 48.0449 11.4487 48.0449C11.5947 48.0449 11.6859 48.1346 11.6859 48.278C11.6859 48.3139 11.7224 48.3497 11.7589 48.3497C11.8319 48.3318 11.9049 48.3497 11.9779 48.4393C12.0144 48.4752 12.0874 48.4931 12.1239 48.4393C12.2151 48.3676 12.3611 48.3497 12.5436 48.4035C12.5984 48.4035 12.6349 48.4035 12.6531 48.3318C12.7078 47.8657 13.602 47.7043 13.894 48.1346C13.9122 48.1704 13.9487 48.1884 13.9852 48.2063L14.3137 48.3318C14.332 48.3318 14.3502 48.3676 14.3502 48.3856C14.3502 48.3856 14.3502 48.3856 14.3502 48.4035C14.2955 48.4393 14.2407 48.4752 14.186 48.4752C14.1495 48.4752 14.1312 48.4931 14.113 48.529V48.5469C14.2772 48.6724 14.4962 48.6545 14.6422 48.4931C14.6422 48.4752 14.6787 48.4573 14.6787 48.4393C14.8064 48.1884 14.8612 47.9195 14.8429 47.5968C14.8429 47.4533 14.7334 47.3996 14.5692 47.4354C14.5144 47.4354 14.4779 47.4354 14.4597 47.3816C14.4049 47.2741 14.2955 47.1665 14.113 47.0589C14.0582 47.0231 13.9852 47.0231 13.9487 47.0589C13.821 47.1665 13.675 47.2024 13.4925 47.1486C13.456 47.1486 13.4378 47.0948 13.456 47.0769C13.456 47.0769 13.456 47.0589 13.4743 47.041C13.4925 47.0231 13.529 46.9872 13.5473 46.9155C13.5655 46.8438 13.5473 46.7542 13.456 46.7363C13.383 46.7183 13.3283 46.7363 13.2918 46.79L13.2371 46.8797C13.2006 46.9335 13.1276 46.9693 13.0546 46.9335C12.9451 46.8617 12.7991 46.8438 12.5801 46.8797C12.5436 46.8797 12.5071 46.8797 12.4889 46.8259C12.4889 46.79 12.4889 46.7721 12.5254 46.7542C12.7078 46.6287 12.8538 46.5749 12.9633 46.5928C12.9998 46.5928 13.0546 46.5749 13.0546 46.5211C13.0546 46.5211 13.0546 46.5211 13.0546 46.5032C13.0546 46.4315 13.0546 46.3598 13.0546 46.306C13.0546 46.2343 13.1276 46.1984 13.2006 46.1984C13.4378 46.1984 13.602 46.2522 13.675 46.3419C13.7845 46.4494 13.967 46.4494 14.0947 46.3419C14.1312 46.306 14.1677 46.2522 14.186 46.1984C14.2225 46.0192 14.1312 45.9116 13.9122 45.8578C13.8575 45.8578 13.821 45.7861 13.8392 45.7323C13.8757 45.5351 14.0217 45.4455 14.2225 45.4634C14.2772 45.4634 14.3137 45.4276 14.332 45.3738C14.4597 44.818 15.6093 44.8001 15.9743 44.818C16.1203 44.818 16.2298 44.9615 16.2298 45.1049V45.2124C16.2298 45.3021 16.1568 45.3738 16.0655 45.3738C16.0473 45.3738 16.0108 45.3738 15.9926 45.3738C15.8283 45.3021 15.6093 45.3738 15.3356 45.571C15.2809 45.6068 15.2809 45.6785 15.3174 45.7323C15.3174 45.7323 15.3356 45.7503 15.3539 45.7682C15.5911 45.8937 15.7736 45.8757 15.9378 45.7144C15.9926 45.6606 16.0838 45.6248 16.175 45.6248C16.3758 45.6427 16.5948 45.6248 16.832 45.5172C17.1057 45.4096 17.4159 45.4813 17.6714 45.5531C17.7262 45.5531 17.7626 45.6068 17.7626 45.6606C17.7626 45.8399 17.8721 45.9833 18.0729 46.0909C18.1276 46.1088 18.1459 46.1805 18.1094 46.2164C18.0911 46.2522 18.0546 46.2701 17.9999 46.2701H17.8356C17.7809 46.2522 17.7262 46.2701 17.6897 46.306C17.4342 46.557 17.1969 46.5391 16.9962 46.306C16.9962 46.2881 16.9597 46.2881 16.9415 46.306C16.9415 46.306 16.9232 46.3419 16.9232 46.3598L16.978 46.557C16.978 46.6108 16.978 46.6825 16.9232 46.7183C16.8867 46.7363 16.8685 46.7542 16.8685 46.7542C16.8685 46.79 16.8685 46.8438 16.9232 46.8438C16.9597 46.8438 16.9962 46.8438 17.0145 46.8259C17.0145 46.8259 17.0145 46.8259 17.0145 46.79C17.0145 46.7542 17.051 46.7363 17.0875 46.7363C17.5984 46.7542 17.9634 46.7004 18.1824 47.0948C18.2006 47.1307 18.2554 47.1486 18.2919 47.1127C18.3101 47.1127 18.3283 47.0589 18.3283 47.041V46.9514C18.2919 46.8797 18.3101 46.808 18.3466 46.7542C18.4378 46.6466 18.5108 46.5211 18.5291 46.3777C18.5291 46.306 18.6021 46.2343 18.6933 46.2522L19.2773 46.3239C19.3138 46.3239 19.332 46.3419 19.3503 46.3598C19.4232 46.4673 19.624 46.4853 19.9342 46.4315C19.9889 46.4315 20.0619 46.4673 20.0619 46.5211C20.0619 46.5211 20.0619 46.5391 20.0619 46.557C20.0619 46.6825 20.0619 46.7542 20.0984 46.79C20.1349 46.8438 20.2262 46.8438 20.2809 46.79C20.4452 46.6645 20.6459 46.5928 20.9014 46.557C20.9561 46.557 21.0109 46.5749 21.0291 46.6287C21.0656 46.7363 21.1933 46.79 21.3758 46.7721C21.4123 46.7721 21.4306 46.7721 21.4306 46.808C21.4306 46.808 21.4306 46.808 21.4306 46.8259V46.8797C21.4123 46.8797 21.3941 46.8976 21.3758 46.8976L20.7006 46.8259C20.6641 46.8259 20.6459 46.8259 20.6276 46.8617V46.9155C20.5911 46.9514 20.6276 46.9872 20.6459 47.0052C20.6459 47.0052 20.6459 47.0052 20.6641 47.0052C20.8466 47.0052 20.9926 47.1127 21.1021 47.292C21.1203 47.3279 21.1021 47.3816 21.0839 47.3996C20.9926 47.4354 20.9379 47.5251 20.9379 47.6505C20.9379 47.7043 20.9014 47.7402 20.8466 47.7402C20.8466 47.7402 20.8284 47.7402 20.8101 47.7402C20.6824 47.6864 20.6276 47.794 20.6276 48.0449C20.6276 48.0987 20.5911 48.1346 20.5364 48.1525C20.5364 48.1525 20.5182 48.1525 20.4999 48.1525L20.1532 48.027C20.0984 48.0091 20.0254 48.027 19.9889 48.0808C19.8247 48.2959 19.6422 48.3139 19.405 48.1167C19.3685 48.0808 19.3138 48.0808 19.2773 48.1167C19.2773 48.1167 19.2773 48.1167 19.2773 48.1346C19.0765 48.5469 18.7481 48.6365 18.2919 48.3856C18.2371 48.3497 18.2006 48.278 18.2189 48.2242C18.2189 48.1884 18.2189 48.1704 18.2189 48.1704C18.2189 48.0987 18.1641 48.0449 18.1094 48.0449C17.7626 48.0808 17.2882 47.8477 17.0327 48.0091C16.9232 48.0808 16.7407 48.1346 16.5035 48.1346C16.1568 48.1346 15.8283 48.4573 16.0655 48.7979C16.175 48.9772 16.3758 49.1027 16.6677 49.1564C16.9232 49.2102 17.124 49.3895 17.3612 49.3536C17.4707 49.3536 17.5802 49.4074 17.5984 49.515L17.6349 49.9094C17.6349 49.9811 17.5984 50.0528 17.5254 50.0707C17.3429 50.1245 17.1787 50.1245 17.0327 50.0707C16.9962 50.0707 16.9415 50.0707 16.9415 50.1245V50.1604L16.978 50.2859C16.978 50.3396 16.978 50.3934 16.905 50.4113C16.905 50.4113 16.8867 50.4113 16.8685 50.4113L15.9196 50.3038C15.8466 50.3038 15.7918 50.3217 15.7553 50.3755L15.7188 50.4293C15.7006 50.4831 15.7188 50.5368 15.7736 50.5727C15.7736 50.5727 15.7918 50.5727 15.8101 50.5727C16.1568 50.6265 16.4123 50.5906 16.5583 50.501C16.613 50.4651 16.6677 50.501 16.7042 50.5368C16.759 50.6265 16.8137 50.6623 16.832 50.6803C16.8867 50.7161 16.9597 50.7161 17.0145 50.6803C17.1969 50.6265 17.3064 50.6803 17.3247 50.8954C17.3247 50.9312 17.3612 50.9492 17.3977 50.9492C17.4342 50.9492 17.4524 50.9133 17.4707 50.8775C17.4707 50.8416 17.4707 50.8237 17.4707 50.8237C17.4342 50.752 17.4159 50.6803 17.4159 50.6085C17.4159 50.5548 17.4342 50.501 17.4707 50.4651C17.6349 50.3217 17.6897 50.1604 17.6349 49.9632C17.6349 49.9094 17.6349 49.8556 17.7079 49.8197L18.1459 49.5688C18.2006 49.5329 18.2189 49.4612 18.2006 49.4074C18.1824 49.3716 18.1459 49.3536 18.0911 49.3536H17.9086C17.8356 49.3536 17.7991 49.2999 17.7809 49.2461C17.7444 49.013 17.5984 48.9234 17.3429 48.9413C17.2882 48.9413 17.2334 48.9055 17.2152 48.8517L17.1604 48.6724C17.1604 48.6365 17.1605 48.6007 17.1969 48.6007L17.6349 48.4931C17.7262 48.4752 17.8174 48.4931 17.8539 48.5828L17.9816 48.78C18.0181 48.8337 18.0729 48.8517 18.1276 48.8158C18.1276 48.8158 18.1459 48.8158 18.1641 48.7979C18.3648 48.5469 18.5838 48.4573 18.8211 48.529C19.2773 48.6724 19.4962 48.2421 19.9342 48.4931C19.9889 48.529 20.0619 48.529 20.1167 48.4931C20.5911 48.3139 20.8101 48.7979 21.2663 48.3676C21.2846 48.3497 21.3211 48.3497 21.3576 48.3676L21.4306 48.4035C21.4671 48.4214 21.4853 48.4752 21.4671 48.529L21.3211 48.762C21.3028 48.7979 21.3211 48.8337 21.3393 48.8517C21.3393 48.8517 21.3576 48.8517 21.3758 48.8517C21.4853 48.8517 21.5583 48.8337 21.5948 48.7979C21.6313 48.762 21.7043 48.762 21.7408 48.7979C21.7408 48.7979 21.7408 48.8158 21.759 48.8337C21.759 48.8696 21.832 48.9413 21.9415 49.0489C21.978 49.0847 21.978 49.1206 21.9415 49.1564C21.9415 49.1564 21.905 49.1923 21.8868 49.1923C21.8868 49.1923 21.8868 49.1923 21.8503 49.1923C21.7773 49.1923 21.7225 49.2281 21.7043 49.2999C21.7043 49.2999 21.7043 49.2999 21.7043 49.3178C21.7043 49.3536 21.7043 49.3895 21.7225 49.4253C21.759 49.515 21.7408 49.5688 21.686 49.5688C21.6496 49.5688 21.6131 49.5688 21.5766 49.5508C21.5766 49.5508 21.5401 49.5508 21.5218 49.5508L20.4817 49.8197C20.4269 49.8197 20.4087 49.8915 20.4087 49.9273C20.4087 49.9632 20.4452 49.999 20.4817 49.999C20.6824 50.0169 20.9196 50.0169 21.1568 49.999C21.1933 49.999 21.2298 49.999 21.2846 49.999L22.0693 50.25C22.124 50.2679 22.197 50.25 22.2153 50.1962L22.5255 49.6763C22.6167 49.5329 22.781 49.4612 22.9452 49.4971C23.2189 49.5508 23.5291 49.4971 23.8576 49.3178C23.8941 49.3178 23.9123 49.2999 23.9488 49.2999L24.5328 49.264C24.5328 49.264 24.5693 49.264 24.5693 49.2819C24.5693 49.2999 24.5693 49.3178 24.5328 49.3178H24.2591C24.2043 49.3357 24.1678 49.3895 24.1678 49.4433C24.1678 49.4791 24.1861 49.515 24.2226 49.515L24.6788 49.6763C24.6788 49.6763 24.697 49.6763 24.6788 49.6943V49.748C24.6788 49.748 24.6788 49.748 24.6605 49.748C24.4233 49.7122 24.2226 49.6584 24.0766 49.5508C24.0036 49.515 23.9306 49.4971 23.8576 49.515L23.3102 49.6584C23.3102 49.6584 23.2919 49.6763 23.2919 49.6943L23.7299 50.0528C23.7664 50.0887 23.8211 50.0887 23.8759 50.0887L24.3868 49.9452C24.4233 49.9452 24.4416 49.9452 24.4781 49.9452C24.6058 49.999 24.7153 49.9632 24.8248 49.8735C24.8795 49.8377 24.9525 49.8197 25.0073 49.8735C25.2262 50.0169 25.4817 50.0707 25.7737 50.0349C25.8649 50.0349 25.9379 50.0887 25.9379 50.1604C25.9379 50.1962 25.9379 50.2321 25.9197 50.2679C25.8467 50.3576 25.7919 50.4113 25.7189 50.4113C25.5912 50.4113 25.5182 50.4113 25.5182 50.4472C25.5182 50.4472 25.5182 50.501 25.5 50.5548C25.5 50.6085 25.427 50.6444 25.3722 50.6265C25.2992 50.5906 25.208 50.6265 25.1167 50.6623C25.0437 50.6982 24.9525 50.6982 24.8795 50.6623L24.7335 50.5906C24.6788 50.5548 24.624 50.5906 24.5875 50.6265C24.5875 50.6265 24.5875 50.6444 24.5875 50.6623C24.551 50.7878 24.5875 50.8954 24.624 50.985C24.6605 51.0388 24.624 51.0926 24.5875 51.1105C24.3686 51.236 24.1861 51.2181 24.0766 51.0388C24.0401 50.985 23.9671 50.9671 23.9123 50.985L23.6751 51.0388C23.6204 51.0388 23.5656 51.0388 23.5109 51.0029C23.4561 50.9492 23.4196 50.8775 23.4379 50.7878C23.4379 50.7161 23.3831 50.6623 23.3284 50.6623H23.0912C23.0364 50.6265 22.9817 50.6623 22.9817 50.7161C22.9817 50.7161 22.9817 50.7161 22.9817 50.734C22.9999 50.8954 22.8904 51.0029 22.6532 51.0029C22.5985 51.0029 22.562 51.0388 22.562 51.0926C22.562 51.1464 22.5985 51.1822 22.6532 51.1822L23.4744 51.2719C23.5291 51.2719 23.5656 51.3077 23.5839 51.3615L23.6386 51.5945C23.6386 51.6483 23.7116 51.6842 23.7846 51.6663C23.8211 51.6663 23.8394 51.6483 23.8576 51.6125C24.0401 51.3077 24.3138 51.2539 24.6788 51.4153C24.7335 51.4332 24.7883 51.4332 24.843 51.4153C24.916 51.3794 24.989 51.3615 25.0437 51.3794C25.0985 51.3794 25.1532 51.4332 25.1897 51.5228C25.1897 51.5408 25.208 51.6483 25.2445 51.8276C25.2445 51.8814 25.2262 51.9172 25.1715 51.9172C25.0437 51.9352 24.8978 52.0069 24.77 52.0965C24.697 52.1503 24.697 52.2399 24.7335 52.3116C24.77 52.3475 24.8065 52.3654 24.8613 52.3654H25.2445C25.2992 52.3654 25.3357 52.3296 25.354 52.2758C25.3722 52.1682 25.4452 52.1324 25.573 52.1503C25.6277 52.1503 25.6824 52.1503 25.7372 52.1144L26.1387 51.8097C26.1751 51.7917 26.1934 51.7559 26.1751 51.72V51.487C26.1569 51.3973 26.2116 51.3256 26.2846 51.3077L26.6679 51.2181C26.7226 51.2181 26.7773 51.236 26.7956 51.2898C26.7956 51.3436 26.8321 51.3973 26.8503 51.4332C26.8868 51.4691 26.9233 51.4691 26.9598 51.4332C26.9598 51.4332 26.9598 51.4332 26.9781 51.4153L27.2336 50.985C27.2883 50.8954 27.3978 50.8775 27.4708 50.9133C27.5073 50.9312 27.5438 50.9671 27.5438 51.0209C27.5803 51.1284 27.5985 51.2181 27.5803 51.2719C27.5803 51.3256 27.6168 51.3794 27.6898 51.3973C27.6898 51.3973 27.708 51.3973 27.7263 51.3973C27.8358 51.3794 27.9452 51.3973 28.0547 51.4511C28.1095 51.487 28.1825 51.4511 28.219 51.4153V51.3794C28.219 51.3794 28.219 51.3794 28.219 51.3436C28.219 51.2898 28.2737 51.236 28.3285 51.236C28.3285 51.236 28.3467 51.236 28.365 51.236C28.4927 51.2719 28.5839 51.2898 28.6387 51.2719C28.6934 51.2719 28.7664 51.2719 28.7847 51.3256C28.8759 51.4691 29.0766 51.5228 29.4051 51.4691C29.4781 51.4691 29.5146 51.4153 29.5328 51.3436C29.5328 51.2898 29.5328 51.2539 29.5693 51.236C29.6058 51.1822 29.6788 51.1643 29.7518 51.1822C29.9708 51.2539 30.135 51.4153 30.281 51.6483C30.3175 51.7021 30.281 51.7917 30.2263 51.8276L30.135 51.8814C30.0985 51.8993 30.0803 51.9531 30.0985 51.9889C30.0985 52.0069 30.135 52.0248 30.1715 52.0248H30.646C30.7007 52.0248 30.7372 52.0069 30.7737 51.9531L30.8467 51.8276C30.8832 51.7738 30.938 51.7559 30.9927 51.7917C31.084 51.8635 31.2299 51.8993 31.4307 51.9172C31.5037 51.9172 31.5767 51.9889 31.5949 52.0607L31.7044 52.4551C31.7044 52.5088 31.7044 52.5447 31.6679 52.5805C31.3942 52.7598 31.1934 52.8674 31.0292 52.8853C30.9927 52.8853 30.9745 52.9212 30.9745 52.957C30.9745 52.957 30.9745 52.9929 30.9927 52.9929C30.9927 52.9929 31.0475 52.9929 31.1387 52.9749C31.1935 52.9749 31.2482 52.9929 31.2664 53.0646C31.2664 53.0825 31.2664 53.1004 31.2664 53.1184L31.1935 53.3156C31.1935 53.3156 31.1934 53.3514 31.157 53.3514C30.7372 53.5845 30.5913 53.8355 29.9891 53.6741C29.9343 53.6741 29.8796 53.6741 29.8248 53.692C29.6971 53.7637 29.4964 53.7817 29.2044 53.7279C29.1679 53.7279 29.1496 53.692 29.1496 53.6562C29.1496 53.6562 29.1496 53.6562 29.1496 53.6383L29.2956 53.3873C29.3139 53.3514 29.2956 53.2976 29.2591 53.2618C29.2409 53.2618 29.2226 53.2618 29.2044 53.2618L28.7847 53.3693C28.7117 53.3873 28.6204 53.3693 28.5474 53.3156C28.4379 53.2259 28.3285 53.208 28.1825 53.2439C28.1095 53.2618 28.0547 53.2439 28.0365 53.2259C28.0365 53.1901 28.0182 53.1542 28.0182 53.1184C28.0182 53.0825 28.0365 53.0646 28.073 53.0467C28.146 53.0108 28.1825 52.9749 28.2007 52.957C28.2007 52.9212 28.2007 52.8853 28.1825 52.8674C28.1825 52.8674 28.1642 52.8674 28.146 52.8674C27.5255 52.957 27.1058 52.4013 26.4671 52.7957C26.4306 52.8315 26.4124 52.8853 26.4306 52.9212C26.4306 52.9391 26.4671 52.957 26.5036 52.957H26.8868C26.9963 52.957 27.0876 53.0467 27.0876 53.1542C27.0876 53.2259 27.0511 53.2976 26.9781 53.3335L26.7408 53.459C26.6679 53.4948 26.5949 53.4948 26.5036 53.4769C26.5036 53.4769 26.4854 53.4769 26.4489 53.4411C26.3941 53.3873 26.3029 53.3693 26.2299 53.4052C26.0474 53.4769 25.9014 53.5128 25.7737 53.4948C25.7372 53.4948 25.7007 53.5128 25.6824 53.5665C25.6824 53.5665 25.6824 53.5845 25.6824 53.6024C25.7554 53.7996 25.7737 53.9789 25.7007 54.1761C25.6824 54.2478 25.5912 54.2836 25.5182 54.2657C25.5182 54.2657 25.5 54.2657 25.4817 54.2657L25.0437 54.0147H25.0255C25.0255 54.0147 25.0255 54.0147 25.0255 54.0327C25.1167 54.1761 25.0985 54.3195 24.9525 54.4988C24.916 54.5525 24.8065 54.5884 24.6605 54.6422C24.551 54.678 24.4963 54.7677 24.4598 54.8932C24.4598 54.9649 24.4963 55.0366 24.5875 55.0545C24.6058 55.0545 24.6423 55.0545 24.6605 55.0545C24.7153 55.0545 24.7518 55.0545 24.8065 55.0724C24.8248 55.0724 24.843 55.1262 24.8248 55.1441C24.8248 55.1441 24.8248 55.1441 24.8065 55.1621C24.6788 55.2338 24.6058 55.3055 24.5875 55.3951C24.5875 55.431 24.551 55.4668 24.4963 55.4668C24.4963 55.4668 24.478 55.4668 24.4598 55.4668C24.3686 55.4131 24.2226 55.3951 24.0401 55.431C23.9488 55.431 23.8759 55.431 23.8394 55.3593C23.8029 55.3055 23.7664 55.2696 23.7299 55.2517C23.6934 55.2517 23.6386 55.2517 23.5839 55.2876C23.4561 55.3951 23.3284 55.3593 23.2554 55.2159C23.0912 54.929 22.9634 54.7677 22.8904 54.696C22.708 54.5525 22.4342 54.5525 22.27 54.7318C22.2335 54.7856 22.197 54.8394 22.1788 54.8932C22.1788 54.8932 22.2517 55.0187 22.416 55.2517C22.4342 55.2876 22.416 55.3234 22.3977 55.3593C22.3977 55.3593 22.3795 55.3593 22.3612 55.3593C22.27 55.3593 22.1788 55.3951 22.1058 55.431C22.0693 55.4489 22.051 55.5027 22.0875 55.5565C22.1058 55.5923 22.1423 55.5923 22.1788 55.5923L22.3795 55.5385C22.4342 55.5385 22.5072 55.5565 22.5255 55.6282L22.562 55.7537C22.562 55.8254 22.6532 55.8612 22.708 55.8433C22.9452 55.7537 23.1459 55.7537 23.3284 55.8433C23.3831 55.8612 23.4379 55.8792 23.4926 55.8433C23.8394 55.7537 24.0766 55.5923 24.4051 55.5923C24.5145 55.5923 24.6605 55.5744 24.843 55.5206C24.8613 55.5206 24.8978 55.5027 24.8978 55.4848L25.1715 55.0007C25.1897 54.9649 25.1897 54.9111 25.1715 54.8752L25.0985 54.7677C25.0802 54.7318 25.0985 54.696 25.1167 54.678C25.135 54.678 25.1532 54.678 25.1897 54.678C25.1897 54.678 25.1897 54.678 25.2262 54.7139C25.281 54.7677 25.3905 54.7856 25.4635 54.7318C26.0839 54.3912 26.7043 54.3912 27.3248 54.696C27.343 54.696 27.3613 54.7318 27.343 54.7497C27.343 54.7677 27.3065 54.7856 27.2883 54.7677C26.6679 54.445 26.0657 54.4988 25.5 54.929C25.3722 55.0187 25.2992 55.1441 25.281 55.2696C25.281 55.3234 25.3175 55.3593 25.354 55.3593C25.354 55.3593 25.354 55.3593 25.3722 55.3593C25.8649 55.2696 26.1022 55.0904 26.6861 55.3951C26.7408 55.431 26.8138 55.431 26.8686 55.3951C27.0693 55.3055 27.3248 55.3234 27.635 55.4489C27.6533 55.4489 27.6715 55.4848 27.6533 55.5027C27.6533 55.5027 27.6533 55.5206 27.6168 55.5385C27.5073 55.5744 27.4708 55.6282 27.4708 55.6999C27.4708 55.7357 27.489 55.7716 27.5438 55.7895C27.7263 55.8254 27.8905 55.8254 28.0182 55.7895C28.073 55.7716 28.1277 55.7895 28.1825 55.7895C28.292 55.8433 28.365 55.8792 28.365 55.8792C28.4379 55.9509 28.4379 56.0405 28.365 56.1122C28.3102 56.166 28.2555 56.1839 28.1825 56.166C28.0912 56.1481 28.0182 56.166 27.9452 56.2736C27.9087 56.3273 27.854 56.3453 27.7993 56.3273C27.7263 56.3094 27.562 56.2198 27.5073 56.2736C27.4343 56.3273 27.3065 56.3453 27.1241 56.2736C27.0876 56.2736 27.0693 56.2736 27.0511 56.3094V56.3453C27.2153 56.5604 27.343 56.668 27.4708 56.6142C27.6533 56.5604 27.781 56.5783 27.8722 56.668C27.8905 56.7038 28.0547 56.7576 28.3285 56.8472C28.3832 56.8652 28.4379 56.8472 28.4927 56.8114C28.6022 56.7217 28.7117 56.6859 28.8212 56.6859C28.8759 56.6859 28.9124 56.65 28.9124 56.5963C28.9124 56.5963 28.9124 56.5963 28.9124 56.5783C28.8759 56.5066 28.8212 56.4528 28.7299 56.417C28.6934 56.417 28.6569 56.3811 28.6569 56.3453C28.6022 56.2198 28.6022 56.1122 28.6569 56.0405C28.7117 55.9688 28.7847 55.9509 28.8577 55.9688C29.1861 56.0764 29.4781 56.0764 29.7518 55.9509C29.7883 55.9329 29.8431 55.9509 29.8796 55.9867C29.8796 56.0047 29.8796 56.0405 29.8796 56.0584L29.8066 56.2556C29.7883 56.3094 29.8066 56.3632 29.8613 56.3811C29.8613 56.3811 29.8978 56.3811 29.9161 56.3811C30.0621 56.3811 30.1898 56.3094 30.3175 56.2198C30.354 56.1839 30.4088 56.1839 30.4635 56.2019C30.5 56.2019 30.5365 56.2556 30.5365 56.3094C30.5365 56.3632 30.6095 56.417 30.6825 56.3991C30.865 56.3632 30.9562 56.3453 30.9562 56.3453C31.011 56.3273 31.084 56.3453 31.1022 56.417C31.1022 56.4528 31.1022 56.5066 31.084 56.5245C31.0475 56.5604 31.0475 56.5963 31.0475 56.6142C31.0475 56.65 31.1022 56.6859 31.1387 56.6859C31.3212 56.668 31.4489 56.668 31.5402 56.6859C31.5949 56.6859 31.6314 56.7576 31.6132 56.8114C31.6132 56.8293 31.6132 56.8472 31.5767 56.8652C31.3577 57.0444 31.1935 57.1161 31.0475 57.0444C30.7737 56.9189 30.573 57.0803 30.281 57.0086C30.2445 57.0086 30.208 57.0086 30.1898 57.0624V57.1161C30.1898 57.1161 30.1898 57.152 30.208 57.152C30.208 57.152 30.208 57.152 30.2263 57.152C30.2993 57.0982 30.4635 57.1879 30.7007 57.4209C30.7372 57.4568 30.8102 57.4747 30.865 57.4568C31.2299 57.2775 31.5584 57.3492 31.8504 57.636C31.8869 57.6898 31.9051 57.7615 31.8686 57.8153C31.8686 57.8332 31.8686 57.8512 31.8686 57.8512C31.8686 57.8691 31.8686 57.9049 31.9051 57.9049C31.9051 57.9049 31.9234 57.9049 31.9416 57.9049C32.0329 57.8512 32.2701 57.7974 32.6533 57.7615C32.7081 57.7615 32.7628 57.7974 32.7811 57.8512C32.8176 58.0663 32.7446 58.1918 32.5621 58.2456C32.5256 58.2456 32.5073 58.2993 32.5073 58.3352C32.5438 58.4428 32.4526 58.5683 32.2701 58.7117C32.2336 58.7475 32.1789 58.7475 32.1241 58.7117L31.7956 58.5145C31.7591 58.4965 31.7044 58.5145 31.6862 58.5503C31.6497 58.6758 31.4854 58.7117 31.1935 58.6758C31.0292 58.6579 30.8102 58.3531 30.5913 58.2097C30.5365 58.1739 30.4635 58.1918 30.427 58.2456C30.3723 58.3352 30.2993 58.3531 30.1898 58.3173C30.135 58.3173 30.0803 58.3173 30.062 58.389C30.062 58.4428 30.0621 58.4965 30.0985 58.5324C30.0985 58.5324 30.0985 58.5683 30.0985 58.5862C30.0985 58.5862 30.0985 58.5862 30.062 58.5862C29.9526 58.5862 29.8796 58.64 29.8431 58.8013C29.8431 58.8551 29.7883 58.8909 29.7336 58.873L29.3139 58.8192C29.2591 58.8192 29.2044 58.8551 29.1861 58.9089C29.1861 58.9268 29.1861 58.9447 29.1861 58.9627C29.2409 59.0523 29.2226 59.1419 29.1496 59.2316C29.1131 59.2674 29.1131 59.3212 29.1496 59.375C29.1861 59.4288 29.1861 59.4646 29.1496 59.4825C29.1314 59.4825 29.0949 59.5005 29.0766 59.5005C28.8029 59.4825 28.5292 59.5005 28.2737 59.5722C28.219 59.5901 28.1825 59.6618 28.2007 59.7156C28.2007 59.7515 28.2372 59.7694 28.2555 59.7873L28.6934 60.0383C28.8212 60.11 28.8577 60.2713 28.7847 60.3968C28.7482 60.4506 28.6934 60.5044 28.6204 60.5223L28.1825 60.6299C28.146 60.6299 28.0912 60.6299 28.073 60.5761L28.0365 60.5223C28.0182 60.4865 27.9452 60.4685 27.9087 60.4865C27.9087 60.4865 27.8905 60.5044 27.8722 60.5223C27.8175 60.6478 27.6715 60.7375 27.4525 60.8092C27.3795 60.8271 27.3065 60.8092 27.2518 60.7554C27.1606 60.6478 26.9963 60.6657 26.7591 60.845C26.7226 60.8809 26.6496 60.8809 26.5949 60.8809C26.5584 60.8809 26.5219 60.8271 26.5036 60.7554C26.5036 60.7016 26.4306 60.6478 26.3759 60.6478C26.3394 60.6478 26.3211 60.6478 26.3029 60.6478C26.2664 60.6657 26.2116 60.6478 26.1934 60.612C26.1934 60.612 26.1934 60.5761 26.1934 60.5582L26.2299 60.3431C26.2299 60.3251 26.2299 60.2893 26.1934 60.2893C26.1934 60.2893 26.1934 60.2893 26.1751 60.2893C25.9562 60.3968 25.8284 60.4685 25.8102 60.5223C25.7919 60.5761 25.7189 60.594 25.6642 60.5761C25.5547 60.5223 25.3905 60.4865 25.135 60.4865C25.0802 60.4865 25.0437 60.4327 25.0437 60.3789V60.3251C25.0437 60.3072 25.062 60.2893 25.0802 60.2893L25.3722 60.2176C25.4087 60.2176 25.4087 60.1817 25.4087 60.1459V60.1279C25.3722 60.0921 25.3357 60.0741 25.2992 60.0562C25.1715 59.9845 25.1167 59.8411 25.1897 59.7156C25.2262 59.6439 25.281 59.608 25.354 59.5722C25.3722 59.5722 25.427 59.5722 25.5182 59.5722C25.573 59.5722 25.6277 59.5363 25.6459 59.4825C25.6459 59.4288 25.6094 59.375 25.5547 59.3571L25.135 59.2495C25.0802 59.2495 25.0255 59.2495 24.989 59.2495C24.4963 59.3212 24.0218 59.3033 23.5839 59.1599C23.4196 59.1061 23.2554 59.1957 23.2189 59.3391C23.1642 59.5184 23.1277 59.6618 23.0912 59.7335C22.9634 60.1638 21.978 60.5582 21.9963 60.7554C21.9963 60.8271 22.0693 60.8629 22.124 60.845C22.1423 60.845 22.1788 60.845 22.197 60.8092C22.416 60.6299 22.5255 60.5582 22.8539 60.5403C23.1459 60.5403 23.3467 60.4327 23.4744 60.2534C23.5109 60.1996 23.5656 60.1638 23.6386 60.1817C23.8029 60.2176 23.9853 60.1817 24.0583 60.0383C24.0948 59.9666 24.1313 59.9307 24.1678 59.8949C24.1678 59.8949 24.2043 59.8949 24.2226 59.8949C24.2226 59.8949 24.2226 59.9128 24.2226 59.9307C24.1131 60.2713 23.6934 60.4148 23.5656 60.5582C23.5291 60.594 23.5291 60.6478 23.5656 60.6657C23.8394 60.8092 24.3503 60.6657 24.5875 60.8988C24.7335 61.0243 25.0437 61.1498 25.2992 61.096C25.573 61.0422 25.8467 61.096 26.1204 61.2394C26.1751 61.2753 26.1934 61.3291 26.1934 61.3828C26.1934 61.3828 26.1934 61.4008 26.1934 61.4187C26.1934 61.4725 26.2299 61.5263 26.2846 61.5442C26.4306 61.58 26.6131 61.58 26.7591 61.4366C27.0328 61.1498 27.635 61.3649 27.9087 61.2573C27.9452 61.2573 27.9635 61.2573 28 61.2573C28.2007 61.3111 28.2737 61.4008 28.2555 61.5263C28.219 61.6697 28.2555 61.7772 28.365 61.831C28.5109 61.9027 28.6569 61.9386 28.7664 61.9386C28.8212 61.9386 28.8759 61.9744 28.8942 62.0282C28.8942 62.082 28.9489 62.1179 29.0219 62.1179C29.0949 62.1179 29.1679 62.1896 29.1679 62.2613V62.4585C29.1679 62.5123 29.1314 62.5481 29.0766 62.5481C29.0766 62.5481 29.0766 62.5481 29.0584 62.5481C28.9307 62.5123 28.8394 62.5481 28.8029 62.6736C28.7482 62.7991 28.6752 62.8349 28.5839 62.7812C28.4197 62.6915 28.3285 62.6019 28.3102 62.5302C28.3102 62.4943 28.2737 62.4764 28.2555 62.4764L27.635 62.4047C27.635 62.4047 27.5985 62.4047 27.5985 62.4405C27.5985 62.4405 27.5985 62.4585 27.5985 62.4764C27.8175 62.6377 27.8175 62.9067 28.0365 62.9963C28.0912 63.0142 28.146 63.0501 28.1825 63.1218C28.2007 63.1576 28.1825 63.1935 28.1642 63.2114C28.1642 63.2114 28.146 63.2114 28.1277 63.2114C27.9635 63.2114 27.8175 63.3011 27.708 63.4624C27.635 63.57 27.5803 63.6058 27.5438 63.552C27.5073 63.5162 27.489 63.4803 27.489 63.4445C27.489 63.3907 27.416 63.3548 27.3613 63.3548C27.2518 63.3907 27.0328 63.3548 26.7408 63.2652C26.6679 63.2473 26.6314 63.1935 26.6314 63.1218V62.9604C26.6314 62.8887 26.5766 62.8529 26.5219 62.8349C26.4124 62.8349 26.3211 62.8529 26.2846 62.9604C26.2299 63.0501 26.1751 63.0859 26.0839 63.068C25.9562 63.0321 25.8649 63.0859 25.7919 63.2293C25.7554 63.2831 25.7007 63.3011 25.6459 63.2831C25.573 63.2473 25.5182 63.1935 25.4817 63.1039C25.4817 63.0501 25.4087 63.0142 25.354 63.0142C25.1532 62.9963 24.989 63.0321 24.843 63.1397C24.7883 63.1756 24.7335 63.1756 24.697 63.1397C24.697 63.1397 24.697 63.1218 24.6788 63.1039L24.5875 62.7812C24.5875 62.7453 24.5875 62.7095 24.6058 62.6915C24.697 62.6019 24.7335 62.5123 24.697 62.4405C24.697 62.4047 24.697 62.3688 24.7335 62.3509C24.7335 62.3509 24.7335 62.3509 24.7518 62.3509C24.8795 62.3509 24.9708 62.3151 25.0073 62.2613C25.0255 62.2254 25.0073 62.1716 24.989 62.1358C24.989 62.1358 24.989 62.1358 24.9708 62.1358C24.7335 62.0641 24.5693 61.8848 24.4598 61.598C24.4233 61.5083 24.3321 61.4366 24.2408 61.4545C23.8211 61.4545 23.4196 61.4187 23.0364 61.2932C22.7627 61.2036 22.4707 61.3111 22.3247 61.5442L21.5948 62.6736C21.5948 62.6915 21.5583 62.7095 21.5401 62.7274L20.9926 63.068C20.9561 63.0859 20.9379 63.1397 20.9744 63.1756C20.9744 63.1935 21.0291 63.2114 21.0474 63.2114C21.4671 63.1756 21.7773 63.068 21.9415 62.9067C21.978 62.8708 22.0328 62.8349 22.1058 62.817L22.9269 62.6557C22.9452 62.6557 22.9634 62.6557 22.9634 62.6736V62.7274C22.9817 62.7453 22.9634 62.7812 22.9452 62.7812C22.8357 62.7812 22.7262 62.817 22.6715 62.8708C22.635 62.8887 22.635 62.9425 22.6715 62.9604C22.6715 62.9604 22.6715 62.9604 22.6897 62.9784C22.9817 63.1218 23.2737 63.1397 23.5656 62.9963C23.6021 62.9963 23.6204 62.9963 23.6386 63.0321C23.6386 63.0501 23.6386 63.068 23.6386 63.0859C23.3102 63.2293 23.0912 63.2652 22.9817 63.2293C22.6167 63.0859 22.3065 63.068 22.051 63.1935C21.7773 63.319 21.5766 63.3728 21.4123 63.3907C21.0109 63.4086 20.4452 63.7492 20.2262 64.1436C20.1532 64.2871 20.0254 64.3588 19.8612 64.3588C19.8065 64.3588 19.7517 64.4125 19.7517 64.4663C19.7517 64.6456 19.7517 64.789 19.8247 64.8966C19.843 64.9504 19.8247 65.0041 19.7882 65.0579C18.8028 66.0439 19.478 67.5319 19.7152 68.6613C19.8977 69.5397 19.7152 70.221 20.7554 70.6512C20.8101 70.6692 20.8649 70.6871 20.9196 70.6692C21.4123 70.6333 21.7225 70.6333 21.8685 70.6692C22.7992 70.8664 23.8029 70.9201 24.843 70.8305C24.916 70.8305 24.989 70.8305 25.062 70.8305C25.6642 70.956 26.2481 70.9919 26.8321 70.9739C27.0876 70.9739 27.3795 70.956 27.7263 70.956C51.3579 70.956 74.9713 70.956 98.5847 70.956C98.6212 70.956 98.6759 70.9919 98.6759 71.0277V71.3145C98.6759 71.3683 98.6395 71.4042 98.5847 71.4042H9.8611V71.3504V71.3325L10.7188 71.1173C10.7918 71.0994 10.8648 71.0815 10.9378 71.0815L16.905 70.6871C16.9597 70.6871 16.9962 70.6512 16.9962 70.5975L17.2882 67.8725C17.2882 67.8187 17.2882 67.7829 17.2882 67.7291C17.1057 67.0299 17.3064 66.2053 17.3794 65.4703C17.4342 64.8966 17.3794 64.4305 17.5072 63.9285C17.5254 63.8389 17.5072 63.7313 17.4342 63.6596C17.2334 63.4624 16.9962 63.3011 16.7042 63.1576C16.6312 63.1218 16.5765 63.0859 16.5218 63.0321C16.3393 62.817 16.175 62.6019 16.0473 62.3688C15.9013 62.0999 15.5911 61.9744 15.3721 62.082C15.1349 62.2075 14.9159 62.3688 14.7334 62.566C14.6969 62.6019 14.6239 62.6019 14.5874 62.566C14.5692 62.5481 14.5509 62.5123 14.5509 62.4764L14.5874 62.2613C14.5874 62.2075 14.5509 62.1716 14.5144 62.1537C14.5144 62.1537 14.5144 62.1537 14.4962 62.1537C14.4597 62.1537 14.4232 62.1537 14.3685 62.1358C14.332 62.1358 14.3137 62.082 14.332 62.0461C14.3502 62.0103 14.3867 61.9924 14.4232 62.0103C14.6057 62.1179 14.7517 62.082 14.8977 61.9027C14.9159 61.8669 14.8977 61.831 14.8977 61.8131H14.8612C14.4414 61.8131 14.0217 61.7055 13.602 61.4187C13.2735 61.2036 12.7078 61.096 12.2881 61.3649C12.0509 61.5083 11.7589 61.5442 11.4122 61.4725C11.394 61.4725 11.3575 61.4725 11.3392 61.4366C11.1567 61.2932 10.9743 61.3291 10.7918 61.5083C10.7553 61.5442 10.7005 61.5621 10.6458 61.5621C10.4086 61.5263 10.2443 61.4545 10.1348 61.347C10.0801 61.2932 10.0801 61.2215 10.1348 61.1677C10.1348 61.1498 10.1713 61.1319 10.1713 61.1319C10.1713 61.1139 10.1713 61.0781 10.1531 61.0601H10.1166C9.93409 61.1498 9.93409 61.3291 10.0983 61.598C10.0983 61.6338 10.0983 61.6697 10.0801 61.6876H10.0436C9.87935 61.6517 9.73336 61.6876 9.64212 61.7414C9.60562 61.7772 9.53263 61.7772 9.49613 61.7414C9.40489 61.6876 9.36839 61.6159 9.36839 61.5263C9.36839 61.4366 9.31365 61.3649 9.24066 61.3649C9.18591 61.3649 9.13117 61.3828 9.09467 61.4366C9.00343 61.6159 8.80269 61.6876 8.51072 61.6517C8.45598 61.6517 8.41948 61.598 8.41948 61.5442C8.41948 61.5263 8.41948 61.5083 8.45598 61.4904C8.58371 61.3649 8.67496 61.2573 8.6932 61.1319C8.6932 61.0781 8.7662 61.0422 8.82094 61.0601C8.94868 61.0781 9.09467 61.0601 9.2589 60.9526C9.31365 60.9167 9.36839 60.9167 9.42314 60.9526L9.58738 61.0422C9.62387 61.0601 9.67862 61.0422 9.69687 61.0243C9.69687 61.0243 9.69687 60.9884 9.69687 60.9705V60.8988C9.66037 60.8629 9.64212 60.845 9.60562 60.845C9.36839 60.845 9.20416 60.845 9.13117 60.7733C9.07642 60.7375 9.00343 60.7375 8.94868 60.7733C8.82094 60.845 8.60196 60.845 8.30999 60.8092C8.25524 60.8092 8.2005 60.7375 8.21875 60.6837C8.21875 60.6478 8.21875 60.6299 8.21875 60.6299C8.21875 60.594 8.18225 60.5582 8.14575 60.5761C8.1275 60.5761 8.10926 60.5761 8.09101 60.612C7.90852 60.8629 7.72604 60.9705 7.50706 60.9526C7.28808 60.9347 7.1056 61.0781 7.08735 61.2932C7.08735 61.3649 7.08735 61.4545 7.14209 61.5263C7.21509 61.6517 7.28808 61.7414 7.34282 61.7772C7.37932 61.7952 7.37932 61.8489 7.34282 61.8669C7.17859 61.9924 6.95961 62.0461 6.68588 62.0282C6.63114 62.0282 6.59464 62.0103 6.57639 61.9744C6.5034 61.8848 6.39391 61.831 6.24792 61.831C6.17493 61.831 6.12018 61.8848 6.12018 61.9565V62.0641C6.12018 62.1179 6.08369 62.1537 6.04719 62.1537C6.04719 62.1537 6.04719 62.1537 6.02894 62.1537C5.84646 62.1179 5.62748 62.1716 5.4085 62.3151C5.31726 62.3688 5.20777 62.3509 5.15302 62.2613C5.11652 62.2075 5.11652 62.1358 5.15302 62.082C5.18952 62.0282 5.17127 61.9924 5.13477 61.9386C5.09827 61.9027 5.06178 61.8848 5.02528 61.8848C4.93404 61.8848 4.87929 61.8848 4.87929 61.8669C4.8428 61.8489 4.8428 61.7952 4.87929 61.7772C4.87929 61.7772 4.89754 61.7593 4.91579 61.7593C5.13477 61.7055 5.372 61.598 5.59098 61.4366C5.64573 61.4008 5.71872 61.3828 5.79171 61.3828L6.10194 61.4187C6.17493 61.4187 6.24792 61.3828 6.28442 61.3111C6.33916 61.1677 6.4669 61.1139 6.66764 61.1319C6.72238 61.1319 6.79537 61.1139 6.81362 61.0601C6.90486 60.9347 7.05085 60.8271 7.26983 60.7375C7.30633 60.7375 7.30633 60.6837 7.30633 60.6657C7.30633 60.6657 7.30633 60.6657 7.28808 60.6478C6.94136 60.3789 6.59464 60.3072 6.22967 60.4148C5.9012 60.5044 5.62748 60.5582 5.57273 60.8271C5.55448 60.9705 5.39025 61.0422 5.22601 61.0064C5.17127 61.0064 5.11652 60.9526 5.06178 60.9167C5.06178 60.9167 5.06178 60.8809 5.06178 60.8271C5.06178 60.7912 5.04353 60.7554 4.98878 60.7375C4.71506 60.7554 4.51433 60.8271 4.42309 60.9167C4.38659 60.9526 4.35009 60.9526 4.31359 60.9167C4.31359 60.9167 4.31359 60.9167 4.31359 60.8988C4.31359 60.8988 4.31359 60.8629 4.31359 60.8271C4.31359 60.7733 4.2771 60.7375 4.22235 60.7195C4.22235 60.7195 4.2041 60.7195 4.18586 60.7195L3.69315 60.845C3.6749 60.845 3.65665 60.845 3.6384 60.8092C3.6384 60.7195 3.6749 60.6657 3.7479 60.6299C3.78439 60.6299 3.80264 60.5761 3.80264 60.5223C3.80264 60.4865 3.76614 60.4685 3.72965 60.4685L3.32818 60.4327C3.29169 60.4327 3.27344 60.3968 3.27344 60.361C3.29169 60.3072 3.34643 60.2713 3.41942 60.2534C3.47417 60.2534 3.49242 60.2176 3.49242 60.1638C3.49242 60.1279 3.47417 60.11 3.43767 60.0921C3.38293 60.0562 3.34643 60.0383 3.30993 60.0024C3.27344 59.9307 3.29169 59.859 3.34643 59.8052L3.38293 59.7694C3.43767 59.7156 3.47417 59.6439 3.45592 59.5722C3.45592 59.3391 3.40118 59.1778 3.34643 59.0881C3.34643 59.0702 3.34643 59.0344 3.36468 59.0164C3.36468 59.0164 3.40118 59.0164 3.41942 59.0164C3.6749 59.124 3.91213 59.1061 4.13111 58.9627C4.18586 58.9268 4.2406 58.9627 4.2771 58.9985C4.2771 58.9985 4.2771 58.9985 4.2771 59.0164C4.35009 59.2136 4.49608 59.2853 4.69681 59.2674C5.00703 59.2316 5.39025 59.2674 5.82821 59.3212C5.86471 59.3212 5.88296 59.3571 5.86471 59.375C5.86471 59.3929 5.86471 59.4108 5.82821 59.4108C5.71872 59.4467 5.64573 59.5005 5.60923 59.5722C5.57273 59.6439 5.60923 59.6977 5.70047 59.7694C5.9012 59.9307 6.12018 59.9845 6.35741 59.9487C6.43041 59.9487 6.5034 59.9487 6.55815 60.0024C6.86837 60.2534 7.39757 60.6657 7.83553 60.4506C7.96327 60.3968 8.01801 60.2355 7.96327 60.1279C7.94502 60.0741 7.90852 60.0383 7.85378 60.0204L7.58005 59.859C7.54356 59.8411 7.52531 59.7873 7.54356 59.7515C7.54356 59.7335 7.54356 59.7156 7.54356 59.6977C7.54356 59.6618 7.52531 59.608 7.47056 59.608H7.43407C7.41582 59.608 7.37932 59.6618 7.37932 59.7335C7.37932 59.7873 7.34282 59.8232 7.28808 59.8411C7.26983 59.8411 7.21509 59.8411 7.14209 59.7873C7.08735 59.7515 7.0326 59.7515 6.99611 59.7873C6.88662 59.859 6.75888 59.8769 6.64939 59.859C6.57639 59.859 6.5399 59.7873 6.55815 59.7335C6.55815 59.6977 6.57639 59.6797 6.61289 59.6439C6.61289 59.6439 6.63114 59.6439 6.63114 59.6797C6.63114 59.6977 6.64939 59.7156 6.68588 59.7156L6.64939 60.0204ZM14.9706 45.6785C14.9341 45.6427 14.8794 45.6427 14.8429 45.6785C14.8064 45.7144 14.8064 45.7682 14.8429 45.804C14.8794 45.8399 14.9341 45.8399 14.9706 45.804C15.0071 45.7682 15.0071 45.7144 14.9706 45.6785ZM14.4414 45.9654V46.0012C14.4414 46.0371 14.4779 46.055 14.5144 46.055C14.5144 46.055 14.5509 46.055 14.5509 46.0371C14.5692 46.0012 14.5692 45.9833 14.5509 45.9475C14.5509 45.9116 14.4962 45.8937 14.4779 45.9116C14.4597 45.9116 14.4414 45.9475 14.4414 45.9654ZM17.1969 46.9514C17.1969 46.9872 17.2699 47.0231 17.3612 47.041C17.4524 47.0589 17.5437 47.041 17.5437 47.0231C17.5437 46.9872 17.4707 46.9514 17.3794 46.9335C17.2882 46.9155 17.1969 46.9335 17.1969 46.9514ZM15.3539 47.4354C15.4086 47.4175 15.4451 47.3816 15.4634 47.3458C15.4816 47.3099 15.4634 47.2561 15.4269 47.2382C15.4269 47.2382 15.4086 47.2382 15.3904 47.2382C15.2991 47.2382 15.2444 47.2741 15.2261 47.3279C15.2261 47.3816 15.2444 47.4354 15.2991 47.4533C15.3174 47.4533 15.3356 47.4533 15.3721 47.4533L15.3539 47.4354ZM19.259 47.6864C19.2955 47.6685 19.2955 47.6326 19.259 47.5788C19.2043 47.5251 19.1678 47.5071 19.1495 47.5251C19.113 47.5609 19.113 47.6147 19.1495 47.6685C19.186 47.7043 19.2225 47.7043 19.2773 47.6864H19.259ZM15.3539 47.7223C15.3174 47.8298 15.3904 47.9015 15.5363 47.9553C15.6458 47.9912 15.7553 47.9553 15.7918 47.8477C15.8283 47.794 15.7918 47.7223 15.7736 47.6864C15.7371 47.6505 15.6276 47.6326 15.4451 47.6505C15.4086 47.6505 15.3721 47.6864 15.3539 47.7223ZM20.3539 47.8477C20.3722 47.8477 20.4087 47.8477 20.4087 47.8298C20.4087 47.8298 20.4087 47.8119 20.4087 47.794C20.4087 47.7402 20.3904 47.7223 20.3539 47.7043C20.3357 47.7043 20.2992 47.7043 20.2809 47.7043C20.2809 47.7043 20.2809 47.7223 20.2809 47.7402C20.2809 47.776 20.3174 47.8119 20.3539 47.8298V47.8477ZM16.6312 47.9553C16.7407 48.0091 16.832 48.0091 16.9232 47.9553C16.978 47.9374 16.978 47.8836 16.9415 47.8298C16.9415 47.8119 16.905 47.794 16.8685 47.776C16.832 47.776 16.7407 47.776 16.6312 47.8298C16.5948 47.8298 16.5948 47.8836 16.5948 47.9015C16.5948 47.9015 16.5948 47.9195 16.6312 47.9374V47.9553ZM16.4488 47.9195C16.4305 47.8836 16.394 47.8836 16.3393 47.9195C16.3028 47.9374 16.321 47.9553 16.3393 47.9912C16.3758 48.0091 16.4123 47.9912 16.4305 47.9912C16.4305 47.9912 16.4305 47.9553 16.4305 47.9374L16.4488 47.9195ZM13.31 48.3497C13.4013 48.3497 13.4743 48.3497 13.5108 48.3497C13.5473 48.3497 13.5655 48.2959 13.5473 48.2601C13.5473 48.2601 13.529 48.2242 13.5108 48.2242C13.4013 48.1884 13.3283 48.1884 13.2735 48.2601C13.2553 48.278 13.2735 48.3139 13.2735 48.3318C13.2735 48.3318 13.2735 48.3318 13.2918 48.3318L13.31 48.3497ZM8.71145 48.7979C8.65671 48.762 8.52897 48.7262 8.30999 48.7262C8.27349 48.7262 8.21875 48.762 8.21875 48.7979C8.21875 48.8337 8.237 48.8696 8.29174 48.8696C8.32824 48.8696 8.45598 48.8696 8.65671 48.8875C8.6932 48.8875 8.7297 48.8696 8.7297 48.8337C8.7297 48.8158 8.7297 48.7979 8.71145 48.78V48.7979ZM20.9014 49.3178C20.8649 49.3178 20.8101 49.3536 20.7919 49.4074C20.7919 49.4612 20.7919 49.5329 20.8466 49.5329C20.8831 49.5329 20.9379 49.4971 20.9561 49.4433C20.9561 49.3895 20.9561 49.3178 20.9014 49.3178ZM8.62021 49.515C8.62021 49.4791 8.62021 49.4253 8.56547 49.3895C8.54722 49.3716 8.51072 49.3536 8.49247 49.3895C8.49247 49.3895 8.49247 49.3895 8.49247 49.4074C8.47422 49.4791 8.49247 49.5329 8.49247 49.5508C8.51072 49.5867 8.56547 49.6046 8.60196 49.5688C8.62021 49.5688 8.63846 49.5329 8.63846 49.515H8.62021ZM11.1567 49.766L11.8137 49.8377C11.8502 49.8377 11.9049 49.8197 11.9049 49.766C11.9232 49.5688 11.7772 49.4074 11.5764 49.3895H11.5217C11.321 49.3536 11.1385 49.4791 11.1202 49.6584C11.1202 49.7301 11.1385 49.766 11.1932 49.766H11.1567ZM12.9998 50.0169C12.9998 49.999 12.9633 49.9811 12.9268 49.9811C12.7261 50.0349 12.5436 49.9811 12.3611 49.8197C12.3246 49.7839 12.2516 49.7839 12.2151 49.8197C12.2151 49.8197 12.1969 49.8556 12.1786 49.8915C12.1421 50.3038 12.4706 50.4831 13.1641 50.4293C13.1823 50.4293 13.2006 50.4113 13.2006 50.3934L12.9998 50.0349V50.0169ZM10.9925 51.72L11.8319 51.5587C11.9049 51.5587 11.9779 51.5945 11.9962 51.6663V51.7021C11.9962 51.72 11.9962 51.7559 11.9962 51.7738C11.9962 51.8097 11.9962 51.8635 12.0509 51.8814H12.0874L12.2699 51.8455C12.3246 51.8455 12.3611 51.7917 12.3794 51.7559L12.5436 51.3077C12.5436 51.2719 12.5436 51.236 12.5071 51.2181C12.5071 51.2181 12.4889 51.2181 12.4706 51.2181C12.3246 51.2181 12.2334 51.236 12.1786 51.2719C12.1421 51.2898 12.1057 51.2719 12.0874 51.2539L11.9779 50.8237C11.9779 50.7878 11.9779 50.7699 12.0144 50.752C12.0144 50.752 12.0509 50.752 12.0692 50.752C12.1969 50.8595 12.3429 50.9133 12.4889 50.9133C12.5436 50.9133 12.5984 50.8775 12.5984 50.8237C12.5984 50.7699 12.5801 50.734 12.5254 50.7161C12.2699 50.6265 12.0692 50.4293 11.9232 50.1245C11.8867 50.0528 11.8137 49.999 11.7224 49.9811L11.0655 49.9094C11.0107 49.9094 10.956 49.9452 10.9378 49.9811C10.883 50.1424 10.8465 50.2321 10.8465 50.25C10.7553 50.501 10.4815 50.6265 10.2261 50.5368C10.2078 50.5368 10.1896 50.5368 10.1713 50.5189C10.1713 50.5189 10.1166 50.5189 10.0618 50.5189C9.98884 50.5189 9.93409 50.5906 9.95234 50.6623C9.95234 50.8057 9.95234 50.9492 9.87935 51.0926C9.84285 51.2001 9.87935 51.3256 10.0071 51.3615C10.0253 51.3615 10.0618 51.3615 10.0801 51.3615C10.2808 51.3615 10.3903 51.3615 10.4086 51.3256C10.4998 51.1105 10.737 51.0029 10.9378 51.0747C10.9925 51.0926 11.0472 51.1464 11.0837 51.2001C11.175 51.3256 11.1385 51.4511 10.9925 51.6125C10.9743 51.6304 10.9743 51.6663 10.9925 51.7021C10.9925 51.7021 11.029 51.72 11.0472 51.7021L10.9925 51.72ZM22.6167 50.3934C22.8722 50.3576 23.1459 50.3934 23.4379 50.4651C23.4926 50.4651 23.5656 50.4651 23.5839 50.3934C23.5839 50.3576 23.5839 50.3217 23.5839 50.3038C23.4379 50.1245 23.2189 49.9811 22.9269 49.8735C22.8539 49.8556 22.781 49.8735 22.7627 49.9452L22.562 50.2859C22.5437 50.3217 22.562 50.3755 22.5985 50.3934C22.5985 50.3934 22.635 50.3934 22.6532 50.3934H22.6167ZM13.8575 50.0887C13.894 50.0887 13.9305 50.0349 13.9122 49.9811C13.9122 49.9632 13.894 49.9452 13.8757 49.9452C13.8028 49.9094 13.748 49.9094 13.6933 49.9273C13.6385 49.9452 13.6203 49.999 13.6385 50.0528C13.6385 50.0707 13.6568 50.0887 13.675 50.1066C13.7298 50.1245 13.7845 50.1424 13.8392 50.1066L13.8575 50.0887ZM14.6604 50.0528C14.6057 50.0528 14.5509 50.1424 14.5692 50.25C14.5692 50.3396 14.6422 50.4113 14.7152 50.4113C14.7699 50.4113 14.8247 50.3217 14.8064 50.2141C14.8064 50.1245 14.7334 50.0528 14.6604 50.0528ZM20.0254 50.25C20.0437 50.2141 20.0437 50.1604 20.0254 50.1245C20.0254 50.0887 19.9889 50.0707 19.9525 50.0707C19.9525 50.0707 19.9525 50.0707 19.9342 50.0707C19.8247 50.1424 19.8065 50.2141 19.843 50.25C19.8795 50.2859 19.9525 50.3038 19.9889 50.2679C19.9889 50.2679 20.0072 50.25 20.0072 50.2321L20.0254 50.25ZM7.47056 50.1245C7.39757 50.1245 7.41582 50.25 7.47056 50.2679C7.50706 50.2679 7.54356 50.2679 7.56181 50.2141C7.56181 50.2141 7.56181 50.1783 7.56181 50.1604C7.56181 50.1066 7.52531 50.0887 7.47056 50.1066V50.1245ZM9.91585 50.1424C9.87935 50.1783 9.87935 50.2141 9.87935 50.2141C9.87935 50.2321 9.8976 50.2679 9.93409 50.25C9.93409 50.25 9.97059 50.25 9.97059 50.2141C9.97059 50.1962 9.97059 50.1783 9.97059 50.1424C9.97059 50.1245 9.97059 50.1066 9.93409 50.1066C9.93409 50.1066 9.91585 50.1066 9.8976 50.1066L9.91585 50.1424ZM15.2991 50.1604C15.2261 50.1245 15.1349 50.1604 15.0984 50.2679C15.0619 50.3576 15.0984 50.4472 15.1531 50.4831C15.2261 50.5189 15.3174 50.4831 15.3539 50.3755C15.3904 50.2859 15.3539 50.1962 15.2991 50.1604ZM18.0364 50.2321C18.0364 50.2679 18.0364 50.3038 18.0364 50.3396C18.0364 50.3934 18.0911 50.4472 18.1459 50.4472C18.1641 50.4472 18.1824 50.4472 18.2006 50.4472C18.2554 50.4113 18.2919 50.3576 18.3101 50.2859C18.3101 50.2321 18.3101 50.1962 18.2371 50.1783C18.1824 50.1604 18.1459 50.1604 18.1094 50.1783C18.0729 50.1783 18.0546 50.2141 18.0546 50.25L18.0364 50.2321ZM18.5656 50.3396C18.5656 50.4293 18.6386 50.5189 18.7481 50.5368C18.8575 50.5368 18.967 50.501 18.9853 50.4113C18.9853 50.3217 18.9123 50.2321 18.8028 50.2141C18.6933 50.2141 18.5838 50.25 18.5656 50.3396ZM24.9525 50.501C24.9525 50.5368 24.9708 50.5727 25.0255 50.5727C25.0437 50.5727 25.062 50.5727 25.0802 50.5727C25.135 50.5368 25.1532 50.5189 25.1167 50.4651C25.0985 50.4293 25.062 50.4113 25.0255 50.4293C24.989 50.4472 24.9525 50.4831 24.9525 50.501ZM9.55088 50.6803C9.47789 50.6803 9.44139 50.7161 9.40489 50.734C9.36839 50.7699 9.36839 50.8057 9.40489 50.8595C9.51438 51.0388 9.58738 51.1284 9.62387 51.1284C9.66037 51.1284 9.69687 51.0209 9.73336 50.8057C9.73336 50.752 9.73336 50.7161 9.69687 50.6803C9.66037 50.6623 9.60562 50.6623 9.55088 50.6803ZM18.7846 51.3794C18.7846 51.3436 18.7298 51.3256 18.6751 51.3794C18.6021 51.4153 18.5656 51.5049 18.6021 51.5766C18.6021 51.5766 18.6203 51.6125 18.6386 51.6125C18.6751 51.6304 18.7116 51.6483 18.7298 51.6125C18.8028 51.5587 18.8211 51.4691 18.7846 51.3794ZM12.9633 51.6304C12.9451 51.487 12.8903 51.4153 12.8356 51.3794C12.7626 51.3436 12.6531 51.3794 12.6166 51.487C12.6166 51.5228 12.5984 51.5587 12.6166 51.5945C12.6349 51.7738 12.7261 51.8097 12.8903 51.7559C12.9633 51.72 12.9816 51.6842 12.9633 51.6304ZM14.5692 51.5945C14.6057 51.6842 14.6422 51.738 14.6969 51.7559C14.7699 51.7738 14.8064 51.7559 14.7882 51.6483C14.7882 51.5766 14.7152 51.5228 14.6422 51.5228C14.6057 51.5228 14.5874 51.5408 14.5874 51.5766C14.5874 51.5766 14.5874 51.5945 14.5874 51.6125L14.5692 51.5945ZM10.3721 51.738C10.3903 51.7021 10.3903 51.6663 10.3721 51.6483C10.3721 51.6483 10.3721 51.6483 10.3538 51.6483C10.3173 51.6483 10.2991 51.6483 10.2808 51.6483C10.2808 51.6842 10.2808 51.72 10.2991 51.738C10.2991 51.738 10.2991 51.738 10.3173 51.738C10.3356 51.738 10.3538 51.738 10.3721 51.738ZM29.0766 51.7559C29.0036 51.7738 28.9671 51.8635 29.0036 51.9352C29.0219 52.0069 29.1131 52.0607 29.1861 52.0427C29.2591 52.0248 29.2956 51.9352 29.2591 51.8635C29.2409 51.7917 29.1496 51.738 29.0766 51.7559ZM17.0692 52.0607C17.0875 52.0607 17.124 52.0607 17.1422 52.0248C17.1422 52.0248 17.1422 52.0069 17.1422 51.9889C17.1422 51.9172 17.124 51.8635 17.0692 51.8097C17.0327 51.7738 16.978 51.7738 16.9415 51.8097C16.9415 51.8276 16.9232 51.8455 16.9232 51.8814C16.9232 51.9352 16.978 51.9889 17.0692 52.0427V52.0607ZM17.5619 52.0607C17.5619 52.0607 17.5984 52.0607 17.6714 52.0607C17.7626 52.0607 17.7809 52.0069 17.7809 51.9352C17.7809 51.8814 17.7444 51.8455 17.6897 51.8276C17.6349 51.8276 17.5802 51.8276 17.5437 51.8635C17.4889 51.8993 17.4889 51.971 17.5072 52.0248C17.5072 52.0248 17.5254 52.0427 17.5437 52.0607H17.5619ZM27.9452 52.3475C27.8722 52.0607 27.7263 51.8993 27.4708 51.8635C27.4343 51.8635 27.3795 51.8814 27.3795 51.9352C27.3795 52.0607 27.3248 52.1503 27.1606 52.2041C27.1241 52.2041 27.0876 52.2579 27.1058 52.3116C27.1058 52.3475 27.1423 52.3654 27.1788 52.3654L27.854 52.4371C27.9087 52.4371 27.9452 52.4013 27.9635 52.3475C27.9635 52.3475 27.9635 52.3296 27.9635 52.3116L27.9452 52.3475ZM17.051 52.6164C17.051 52.6164 17.124 52.6523 17.2699 52.724C17.3064 52.7419 17.3429 52.724 17.3612 52.706C17.3612 52.6702 17.3612 52.6343 17.3612 52.6164C17.2699 52.5088 17.1969 52.4551 17.1422 52.4371C17.0875 52.4192 16.978 52.4013 16.8502 52.4192C16.8137 52.4192 16.7772 52.4371 16.7772 52.4909C16.7772 52.5268 16.7955 52.5626 16.832 52.5626C16.978 52.6164 17.051 52.6343 17.051 52.6523V52.6164ZM21.0839 52.5805C21.0839 52.6343 21.1386 52.6881 21.2116 52.6702C21.2481 52.6702 21.3028 52.6343 21.3211 52.6164C21.3576 52.5626 21.3758 52.5268 21.3211 52.4909C21.2846 52.4551 21.2481 52.4551 21.1933 52.4909C21.1203 52.5447 21.0656 52.5805 21.0656 52.5985L21.0839 52.5805ZM26.3759 52.5626L26.0109 52.473C25.9927 52.473 25.9744 52.473 25.9562 52.473C25.9197 52.5088 25.9014 52.5626 25.9197 52.6343C25.9197 52.6523 25.9379 52.6702 25.9562 52.6702C26.1022 52.706 26.2481 52.706 26.3941 52.6343C26.4124 52.6343 26.4124 52.5985 26.3941 52.5805C26.3941 52.5805 26.3941 52.5805 26.3759 52.5626ZM21.9598 52.6343C21.8685 52.6702 21.8138 52.6881 21.7955 52.706C21.759 52.724 21.759 52.7777 21.7955 52.8136C21.7955 52.8136 21.832 52.8315 21.8503 52.8315C21.9415 52.8315 21.9963 52.7777 22.0328 52.724C22.0328 52.6881 22.0328 52.6523 21.9963 52.6523H21.9598V52.6343ZM28 52.724C27.9635 52.6702 27.9087 52.6881 27.854 52.724C27.8357 52.7419 27.8175 52.7777 27.854 52.8136C27.8722 52.8315 27.9087 52.8315 27.927 52.8136L28 52.7777C28.0182 52.7777 28.0365 52.7419 28 52.724ZM16.832 52.9032C16.7955 52.957 16.8502 53.0467 16.9597 53.1184C17.0692 53.1901 17.1787 53.208 17.2152 53.1542C17.2517 53.1004 17.1969 53.0108 17.0875 52.9391C16.978 52.8674 16.8685 52.8495 16.832 52.9032ZM22.5072 52.8674C22.4707 52.8674 22.416 52.9032 22.343 52.957C22.2882 52.9929 22.27 53.0646 22.3065 53.1184C22.3065 53.1542 22.3612 53.1721 22.3977 53.1542C22.416 53.1542 22.489 53.1004 22.562 53.0108C22.5985 52.9749 22.5985 52.9212 22.562 52.9032C22.562 52.9032 22.5255 52.8853 22.5072 52.8853V52.8674ZM30.3905 53.0108C30.6095 53.0108 30.719 52.9929 30.7372 52.9749C30.7555 52.9391 30.7372 52.9032 30.719 52.8853C30.719 52.8853 30.7007 52.8853 30.6825 52.8853C30.5183 52.8853 30.4088 52.8853 30.3723 52.9391C30.354 52.957 30.354 52.9929 30.3723 53.0108C30.3723 53.0108 30.3905 53.0108 30.4088 53.0108H30.3905ZM12.4341 53.1363C12.3976 53.1184 12.3429 53.1363 12.3246 53.1542C12.3246 53.1542 12.3246 53.1721 12.3246 53.1901C12.3246 53.2618 12.3611 53.2976 12.4159 53.2976C12.4706 53.2976 12.4889 53.2976 12.4889 53.2259C12.4889 53.1721 12.4889 53.1363 12.4524 53.1184L12.4341 53.1363ZM15.2809 53.2618C15.2261 53.208 15.1714 53.1901 15.0801 53.1901C15.0619 53.1901 15.0254 53.208 15.0436 53.2439C15.0436 53.2439 15.0436 53.2439 15.0436 53.2618C15.1166 53.3514 15.1896 53.3873 15.2626 53.3514C15.2991 53.3514 15.2991 53.2976 15.2991 53.2797L15.2809 53.2618ZM21.1386 53.1901C21.1386 53.2259 21.2116 53.2976 21.3211 53.3514C21.4488 53.4052 21.5583 53.4231 21.5766 53.3873C21.5766 53.3514 21.5036 53.2797 21.3941 53.2259C21.2663 53.1721 21.1568 53.1542 21.1386 53.1901ZM22.9087 53.4052C22.9452 53.4052 22.9634 53.3514 22.9452 53.3156C22.9452 53.3156 22.9452 53.2976 22.9269 53.2976C22.8904 53.2618 22.8357 53.2618 22.7992 53.2797C22.7627 53.2976 22.7445 53.3514 22.7627 53.3873C22.7627 53.3873 22.7627 53.4052 22.7992 53.4231C22.8357 53.4411 22.8722 53.4411 22.9087 53.4231V53.4052ZM11.9232 53.8355C11.9779 53.8355 11.9962 53.7996 12.0144 53.7637C12.0509 53.5845 11.9232 53.4231 11.7407 53.3693C11.7407 53.3693 11.7042 53.3693 11.6859 53.3693C11.6677 53.3693 11.6129 53.3693 11.54 53.4231C11.4852 53.459 11.4487 53.5307 11.4852 53.5845C11.5035 53.6203 11.54 53.6562 11.5947 53.6562C11.6312 53.6562 11.6859 53.6562 11.7407 53.6203C11.7954 53.6024 11.8502 53.6203 11.8684 53.6741C11.8684 53.6741 11.8684 53.71 11.8502 53.7637C11.8502 53.7996 11.8502 53.8355 11.8867 53.8534C11.8867 53.8534 11.9049 53.8534 11.9232 53.8534V53.8355ZM13.2006 53.5128C13.1641 53.4769 13.0911 53.4769 13.0546 53.5128C13.0181 53.5486 12.9998 53.6203 13.0546 53.6562C13.0911 53.692 13.1641 53.692 13.2006 53.6562C13.2371 53.6203 13.2553 53.5486 13.2006 53.5128ZM10.1166 54.4629C10.1896 54.696 10.591 54.7677 10.7553 54.7139C10.7918 54.7139 10.81 54.7139 10.8283 54.7497C10.8283 54.7497 10.8283 54.7497 10.8283 54.7677C10.8283 54.8573 10.8283 54.9649 10.8648 55.0545C10.8648 55.0904 10.8648 55.1083 10.8283 55.1262C10.8283 55.1262 10.81 55.1262 10.7918 55.1262C10.6275 55.1083 10.4815 55.1262 10.3721 55.1979C10.3356 55.2338 10.2626 55.2159 10.2443 55.18C10.2078 55.0904 10.1348 55.0366 10.0253 55.0187C9.98884 55.0187 9.97059 55.0187 9.95234 55.0545V55.0904L10.0253 55.2159C10.0436 55.2517 10.0253 55.3055 9.98884 55.3234C9.98884 55.3234 9.95234 55.3234 9.93409 55.3234C9.8976 55.3234 9.8611 55.2876 9.84285 55.2517C9.80636 55.2159 9.75161 55.2159 9.71511 55.2517C9.71511 55.2517 9.71511 55.2517 9.71511 55.2696L9.40489 55.7895C9.36839 55.8433 9.38664 55.8971 9.40489 55.9329C9.60562 56.1301 9.8246 56.2736 10.0801 56.3453C10.445 56.4528 10.664 56.668 10.737 56.9727C10.7553 57.0624 10.7918 57.0982 10.8465 57.0982C10.9013 57.0982 10.956 57.0803 10.9925 57.0265C11.0472 56.9548 11.1202 56.9369 11.2115 56.9548C11.321 56.9727 11.4487 56.9548 11.5582 56.9369C11.6312 56.9189 11.7042 56.9369 11.7589 56.9369C12.0327 57.0803 12.1786 57.1699 12.1969 57.2237C12.1969 57.2596 12.2334 57.2596 12.2699 57.2596C12.2699 57.2596 12.2881 57.2596 12.3064 57.2416C12.4341 57.0624 12.5984 57.0265 12.8173 57.1699C12.8356 57.1699 12.8721 57.1699 12.8721 57.1699C12.8721 57.1699 12.8721 57.152 12.8721 57.1341C12.8721 57.0624 12.7443 56.9369 12.5436 56.7576C12.5071 56.7217 12.4524 56.7038 12.3976 56.6859L11.4305 56.5245C11.394 56.5245 11.3757 56.4887 11.3757 56.4528C11.3757 56.4349 11.394 56.417 11.4122 56.3991C11.4122 56.3991 11.4487 56.3991 11.467 56.3991C11.5035 56.3991 11.54 56.3453 11.5217 56.3094C11.5217 56.3094 11.5217 56.3094 11.5217 56.2915C11.5035 56.2556 11.4487 56.2377 11.3757 56.2377C11.0837 56.2556 10.7553 56.4349 10.4815 56.3632C10.445 56.3632 10.4268 56.3273 10.445 56.2915C10.445 56.2556 10.4815 56.2377 10.4998 56.2377C10.664 56.2377 10.7553 56.2377 10.7918 56.2019C10.81 56.1839 10.8283 56.1481 10.7918 56.1122C10.7918 56.1122 10.7553 56.0943 10.737 56.0943C10.4815 56.0943 10.2991 56.0226 10.1713 55.915C10.1166 55.8612 10.0618 55.8612 9.98884 55.8792C9.8976 55.915 9.84285 55.9329 9.8246 55.8971C9.76986 55.8612 9.76986 55.7716 9.80636 55.7178C10.0436 55.4131 10.2808 55.3951 10.5363 55.6103C10.6275 55.6999 10.7735 55.682 10.8465 55.6103C10.883 55.5744 10.9013 55.5385 10.9013 55.4848L10.9378 55.1979C10.9378 55.1441 10.9743 55.0904 11.029 55.0724C11.321 54.9649 11.5217 55.0007 11.6312 55.18C11.6677 55.2338 11.7224 55.2517 11.7954 55.2338C11.9414 55.1979 12.0509 55.1083 12.1057 55.0007C12.1421 54.9111 12.1057 54.8035 12.0327 54.7677C12.0327 54.7677 12.0144 54.7677 11.9962 54.7677C11.2662 54.6063 11.7224 53.943 11.1202 53.692C11.0655 53.6741 11.0107 53.692 10.956 53.692C10.6093 53.8534 10.2626 53.9072 9.93409 53.8892C9.8976 53.8892 9.8611 53.9072 9.8611 53.943V53.9789C9.95234 54.1223 10.1166 54.2119 10.3173 54.2478C10.3538 54.2478 10.3721 54.2836 10.3721 54.3195C10.3721 54.3553 10.3721 54.3733 10.3538 54.3912C10.3173 54.445 10.2808 54.445 10.2443 54.3912C10.2261 54.3733 10.1896 54.3374 10.1531 54.3195C10.1348 54.3195 10.0983 54.3195 10.0983 54.3195C10.0983 54.3195 10.0983 54.3374 10.0983 54.3553L10.1166 54.4629ZM12.7078 54.6063L12.8356 54.2119C12.8538 54.1402 12.8356 54.0506 12.7443 54.0327L12.5619 53.9789C12.2334 53.8713 11.9414 53.943 11.8867 54.1223V54.1581C11.8137 54.3374 12.0327 54.5705 12.3429 54.6601L12.5254 54.7139C12.5984 54.7318 12.6896 54.7139 12.7078 54.6243V54.6063ZM22.3065 54.2119C22.3065 54.1581 22.2335 54.1223 22.1788 54.1402C22.1058 54.1402 22.0693 54.194 22.0693 54.2478C22.0693 54.3016 22.1423 54.3374 22.197 54.3195C22.27 54.3195 22.3065 54.2657 22.3065 54.2119ZM13.6568 54.8752C13.4925 54.8573 13.4013 54.7677 13.383 54.6063C13.383 54.5346 13.31 54.4629 13.2188 54.4808C13.1641 54.4808 13.1276 54.5167 13.1093 54.5525L12.8356 55.0007C12.7991 55.0724 12.8356 55.1621 12.8903 55.1979C12.9086 55.1979 12.9451 55.2159 12.9816 55.2159C13.1823 55.2159 13.3648 55.2159 13.4925 55.2517C13.5655 55.2696 13.6568 55.2517 13.7115 55.18L13.7663 55.0904C13.8027 55.0187 13.7663 54.929 13.7115 54.8932C13.7115 54.8932 13.675 54.8932 13.6568 54.8752ZM22.5985 54.5525C22.5985 54.5167 22.5802 54.4988 22.5437 54.4988C22.489 54.4988 22.4525 54.5346 22.4342 54.5705C22.4342 54.5884 22.4342 54.6063 22.4342 54.6243C22.4525 54.6422 22.489 54.6422 22.5437 54.6243C22.5802 54.6243 22.5985 54.5884 22.5802 54.5525H22.5985ZM20.8101 54.8394C20.6824 54.7856 20.6094 54.7677 20.5911 54.7677C20.5182 54.7677 20.4634 54.8215 20.4634 54.9111C20.4634 54.9649 20.4999 55.0007 20.5364 55.0366C20.6459 55.1083 20.7371 55.0904 20.8466 54.9828C20.8831 54.9469 20.8831 54.8932 20.8466 54.8752C20.8466 54.8752 20.8466 54.8752 20.8284 54.8752L20.8101 54.8394ZM14.6239 54.9111C14.6239 54.8752 14.5874 54.8394 14.5509 54.8394C14.5144 54.8394 14.4779 54.8752 14.4779 54.9111C14.4779 54.9469 14.5144 54.9828 14.5509 54.9828C14.5874 54.9828 14.6239 54.9469 14.6239 54.9111ZM18.3101 55.1979C18.3648 55.2159 18.4378 55.2517 18.4743 55.2696C18.5108 55.2696 18.5473 55.2696 18.5656 55.2338C18.5656 55.2338 18.5656 55.1979 18.5656 55.18C18.5291 55.0724 18.4743 55.0007 18.3831 54.9649C18.2919 54.929 18.2006 54.9469 18.1094 54.9828C18.0729 54.9828 18.0729 55.0366 18.0911 55.0724C18.0911 55.0724 18.1094 55.0904 18.1276 55.1083C18.1824 55.1262 18.2371 55.1441 18.3101 55.18V55.1979ZM18.6751 56.1122C18.6751 56.2019 18.6751 56.2915 18.7298 56.3453C18.7481 56.3811 18.8028 56.3811 18.8211 56.3453C18.8211 56.3453 18.8211 56.3453 18.8393 56.3273C19.0035 55.9329 18.894 55.664 18.5108 55.5206C18.1459 55.3772 17.8904 55.2876 17.7262 55.2338C17.5984 55.1979 17.4889 55.2159 17.3977 55.2876C17.3612 55.3234 17.3612 55.3951 17.3977 55.4131C17.4159 55.4131 17.4342 55.431 17.4707 55.431C17.6714 55.431 17.8174 55.5027 17.9086 55.664C17.9269 55.7178 17.9816 55.7537 18.0181 55.7716L18.5656 55.9688C18.6203 55.9688 18.6386 56.0226 18.6386 56.0764L18.6751 56.1122ZM19.8247 55.2876C19.7152 55.3413 19.697 55.5027 19.77 55.664C19.843 55.8254 19.9889 55.915 20.0984 55.8612C20.2079 55.8075 20.2262 55.6461 20.1532 55.4848C20.0802 55.3234 19.9342 55.2338 19.8247 55.2876ZM21.759 56.4349C21.6496 56.3273 21.6313 56.166 21.7043 55.9509C21.7955 55.7357 21.7043 55.5027 21.5218 55.431C21.4306 55.3951 21.3393 55.3593 21.2846 55.3234C21.1751 55.2517 21.0109 55.2696 20.9379 55.3772C20.9014 55.431 20.8831 55.5027 20.9014 55.5565C20.9744 55.9509 20.8101 56.2377 20.4269 56.4349C20.3539 56.4708 20.3174 56.5425 20.3174 56.6142V56.6859C20.3174 56.7397 20.3722 56.7935 20.4269 56.7935C20.4452 56.7935 20.4634 56.7935 20.4817 56.7935C20.8649 56.5783 21.2481 56.5425 21.6496 56.668C21.7225 56.6859 21.7955 56.668 21.8138 56.5963C21.832 56.5425 21.8138 56.4887 21.7773 56.4528L21.759 56.4349ZM9.27715 55.5744C9.3319 55.5744 9.38664 55.5206 9.42314 55.431C9.44139 55.3951 9.42314 55.3593 9.40489 55.3413C9.40489 55.3413 9.38664 55.3413 9.36839 55.3413C9.2954 55.3413 9.24066 55.3593 9.20416 55.3951C9.16766 55.431 9.14941 55.5027 9.18591 55.5385C9.20416 55.5744 9.24066 55.5744 9.27715 55.5744ZM25.9379 55.7178C25.8649 55.7357 25.7919 55.7537 25.7007 55.7895C25.6642 55.7895 25.6459 55.8254 25.6459 55.8612C25.6459 55.8792 25.6642 55.8971 25.6824 55.915C25.7737 55.9509 25.8832 55.9509 25.9927 55.915C26.1204 55.8792 26.1934 55.8075 26.2481 55.7357C26.2664 55.6999 26.2481 55.664 26.2299 55.6461C26.2116 55.6461 26.1934 55.6461 26.1569 55.6461C26.0657 55.682 25.9927 55.7178 25.9197 55.7357L25.9379 55.7178ZM24.4416 56.2198C24.478 56.2556 24.551 56.2556 24.624 56.2198C24.6605 56.2198 24.6788 56.166 24.6605 56.1301C24.6058 56.0764 24.551 56.0584 24.4781 56.1122C24.4416 56.1481 24.4233 56.2019 24.4416 56.2377C24.4416 56.2377 24.4416 56.2377 24.4416 56.2556V56.2198ZM9.71511 56.5245C9.67862 56.5783 9.80636 56.7217 9.98884 56.8472C10.1896 56.9727 10.3721 57.0265 10.4086 56.9727C10.445 56.9189 10.3173 56.7755 10.1348 56.65C9.93409 56.5245 9.75161 56.4708 9.71511 56.5245ZM18.2371 56.5783C18.2006 56.6321 18.2736 56.7397 18.4013 56.7935C18.5291 56.8652 18.6386 56.8652 18.6751 56.7935C18.7116 56.7397 18.6386 56.6321 18.5108 56.5783C18.3831 56.5066 18.2736 56.5066 18.2371 56.5783ZM14.6787 56.5963C14.6057 56.6321 14.6239 56.7576 14.6787 56.8652C14.7517 56.9727 14.8429 57.0444 14.9159 57.0086C14.9889 56.9727 14.9706 56.8472 14.9159 56.7397C14.8429 56.6321 14.7517 56.5604 14.6787 56.5963ZM14.1312 56.7755C14.113 56.7038 14.04 56.65 13.9487 56.668L13.6203 56.7576C13.5655 56.7576 13.529 56.8293 13.5473 56.8831C13.5473 56.901 13.5655 56.9369 13.5838 56.9369C13.7298 57.0265 13.894 57.0803 14.0765 57.0982C14.1312 57.0982 14.1677 57.0624 14.1677 57.0265C14.1677 57.0265 14.1677 57.0086 14.1677 56.9907L14.113 56.7755H14.1312ZM17.4889 57.0624C17.4707 57.0624 17.4524 57.0982 17.4524 57.1161C17.4524 57.1341 17.4707 57.152 17.4889 57.152C17.7262 57.2058 17.9269 57.152 18.1094 57.0265C18.1459 56.9907 18.2189 57.0086 18.2554 57.0265C18.3283 57.1161 18.4743 57.2058 18.6568 57.3133C18.6933 57.3133 18.7298 57.3133 18.7481 57.2775C18.7481 57.2596 18.7481 57.2237 18.7481 57.2058C18.6751 57.1341 18.4743 57.0086 18.1641 56.8293C18.1094 56.7935 18.0364 56.8114 17.9999 56.8293C17.8539 56.9369 17.6897 56.9907 17.5072 57.0265L17.4889 57.0624ZM15.4816 56.9727L15.7006 57.6002C15.7006 57.6181 15.7371 57.636 15.7553 57.636H15.7736C16.0655 57.5285 16.248 57.2954 16.175 57.0982C16.102 56.8831 15.8101 56.8114 15.5181 56.901H15.4816C15.4634 56.901 15.4451 56.9369 15.4451 56.9727H15.4816ZM19.0583 56.9548V57.3492C19.0948 57.403 19.1313 57.4388 19.186 57.4388C19.2225 57.4388 19.259 57.403 19.2773 57.3671C19.2955 57.2775 19.259 57.1341 19.1313 56.9369C19.1313 56.9189 19.0948 56.9189 19.0765 56.9369C19.0765 56.9369 19.0583 56.9548 19.0583 56.9727V56.9548ZM20.7189 57.9049L20.7919 57.7077C20.7919 57.6719 20.8284 57.654 20.8649 57.654L21.5401 57.4747C21.6131 57.4568 21.6678 57.3671 21.6496 57.2954C21.6496 57.2775 21.6496 57.2596 21.6131 57.2416C21.3211 56.8831 20.9926 56.8652 20.6459 57.1699C20.5911 57.2237 20.5546 57.2954 20.5546 57.3851V57.887C20.5546 57.9229 20.5911 57.9587 20.6459 57.9587C20.6824 57.9587 20.7189 57.9408 20.7189 57.9049ZM24.2591 57.0265C24.2043 56.9727 24.0766 57.0265 24.0036 57.1341C23.9306 57.2416 23.9123 57.3492 23.9671 57.403C24.0218 57.4568 24.1496 57.403 24.2226 57.2954C24.2956 57.1879 24.3138 57.0803 24.2591 57.0265ZM29.1679 57.2058C29.2226 57.1699 29.2409 57.1341 29.2591 57.1161C29.2591 57.0803 29.2409 57.0265 29.1861 57.0265C29.1496 57.0265 29.1314 57.0265 29.0949 57.0624C29.0766 57.0803 29.0766 57.1161 29.0766 57.1699C29.0766 57.2058 29.1131 57.2237 29.1314 57.2237H29.1496L29.1679 57.2058ZM24.8613 57.3851C24.8248 57.3133 24.697 57.2954 24.5875 57.3671C24.4781 57.4209 24.4233 57.5285 24.4781 57.6002C24.5145 57.6719 24.6423 57.6898 24.7518 57.6181C24.8613 57.5643 24.916 57.4568 24.8613 57.3851ZM12.1421 57.5105C12.1421 57.4568 12.0874 57.403 12.0327 57.403C11.9779 57.403 11.9232 57.4568 11.9232 57.5105C11.9232 57.5643 11.9779 57.6181 12.0327 57.6181C12.0874 57.6181 12.1421 57.5643 12.1421 57.5105ZM13.967 57.5464C13.9122 57.6002 13.967 57.6898 14.0217 57.7615C14.0947 57.8332 14.2042 57.8332 14.259 57.7795C14.3137 57.7257 14.259 57.636 14.2042 57.5643C14.1312 57.4926 14.0217 57.4926 13.967 57.5464ZM26.4854 57.5464C26.3576 57.5464 26.2664 57.5464 26.2299 57.5643C26.1934 57.5823 26.1934 57.636 26.2299 57.6719C26.2299 57.6719 26.2664 57.6898 26.2846 57.7077C26.4124 57.7077 26.4854 57.7077 26.5401 57.636C26.5584 57.6181 26.5401 57.5823 26.5401 57.5643C26.5401 57.5643 26.5401 57.5643 26.5219 57.5643L26.4854 57.5464ZM26.5949 58.0484C26.9963 58.0484 27.2336 58.0304 27.2701 58.0125C27.343 57.9946 27.3978 57.9229 27.3978 57.8332C27.3978 57.7795 27.343 57.7436 27.3065 57.7436C27.2153 57.7436 27.1241 57.7615 27.0328 57.8512C26.8868 57.9767 26.6131 57.9049 26.5584 57.9587C26.5401 57.9767 26.5401 58.0125 26.5584 58.0304C26.5584 58.0304 26.5766 58.0304 26.5949 58.0304V58.0484ZM16.467 58.0663C16.467 57.9946 16.3393 57.9587 16.1933 57.9587C16.0473 57.9587 15.9378 58.0484 15.9378 58.1021C15.9378 58.1739 16.0655 58.2097 16.2115 58.2097C16.3575 58.2097 16.467 58.1201 16.467 58.0663ZM13.1093 59.7156L13.2553 59.4825C13.2918 59.4288 13.2553 59.3571 13.2188 59.3212C13.0911 59.2495 13.0363 59.1419 13.0728 58.9985C13.0728 58.9447 13.0363 58.9089 12.9998 58.8909C12.9998 58.8909 12.9998 58.8909 12.9816 58.8909L12.5436 58.9268C12.5071 58.9268 12.4524 58.9268 12.4159 58.873C12.3611 58.8192 12.2881 58.7834 12.1969 58.7834C12.1604 58.7834 12.1421 58.8013 12.1421 58.8372V58.873C12.1786 58.9089 12.2334 58.9268 12.2881 58.9268C12.3611 58.9268 12.4341 58.9806 12.4341 59.0702C12.4341 59.1778 12.5254 59.2853 12.6349 59.3212C12.7808 59.375 12.8356 59.4825 12.7808 59.626C12.7443 59.7694 12.7808 59.9128 12.8538 60.0383C12.9268 60.1279 13.0363 60.1459 13.2006 60.0741C13.2735 60.0383 13.3283 59.9666 13.31 59.8949C13.31 59.8411 13.2553 59.8052 13.2006 59.8052C13.1823 59.8052 13.1641 59.8052 13.1458 59.8052C13.1093 59.8052 13.0911 59.7694 13.0911 59.7335C13.0911 59.7335 13.0911 59.7335 13.0911 59.7156H13.1093ZM13.7663 58.873C13.7115 58.8013 13.6203 58.7834 13.5473 58.8192C13.4925 58.8551 13.4743 58.9089 13.4925 58.9627C13.4925 58.9806 13.5655 59.0164 13.675 59.0344C13.6933 59.0344 13.7298 59.0344 13.7298 59.0344C13.7845 58.9806 13.8027 58.9268 13.7663 58.873ZM28.6934 58.9447C28.6934 58.873 28.6387 58.8192 28.5839 58.8192C28.5109 58.8192 28.4744 58.873 28.4744 58.9447C28.4744 59.0164 28.5292 59.0523 28.5839 59.0523C28.6387 59.0523 28.6934 58.9985 28.6934 58.9447ZM24.8795 58.9268L24.1131 59.0702C24.1131 59.0702 24.0948 59.0702 24.0948 59.1061C24.1131 59.2495 24.2956 59.3391 24.4963 59.3033H24.5875C24.7883 59.2495 24.9343 59.1061 24.8978 58.9806C24.8978 58.9627 24.8978 58.9447 24.8613 58.9447L24.8795 58.9268ZM25.4087 59.1778C25.354 59.1778 25.3357 59.2136 25.3357 59.2674C25.354 59.3571 25.4452 59.3929 25.5365 59.375C25.5547 59.375 25.573 59.375 25.573 59.3391C25.5912 59.2674 25.5547 59.1957 25.4817 59.1778C25.4635 59.1778 25.427 59.1778 25.4087 59.1778ZM12.2334 59.4646L11.9779 59.2316C11.9414 59.1957 11.9049 59.1957 11.8684 59.2316C11.8137 59.3212 11.7954 59.3929 11.7954 59.4288C11.7954 59.5184 11.8502 59.5722 11.9779 59.608C12.3246 59.6977 12.4159 59.6439 12.2699 59.4646C12.2699 59.4646 12.2699 59.4467 12.2516 59.4288L12.2334 59.4646ZM21.4488 59.375C21.3211 59.4467 21.2663 59.5184 21.2846 59.608C21.2846 59.6797 21.3576 59.7156 21.4306 59.7156C21.4853 59.7156 21.5218 59.6797 21.5218 59.626L21.5766 59.4646C21.5766 59.4288 21.5766 59.375 21.5218 59.3571C21.5036 59.3571 21.4671 59.3571 21.4488 59.3571V59.375ZM22.7627 59.3929C22.635 59.3929 22.5437 59.4467 22.4707 59.5184C22.416 59.5722 22.343 59.5901 22.27 59.5901H22.1605C22.0875 59.5901 22.0328 59.6439 22.0328 59.6977C21.9963 59.8949 22.051 60.0383 22.1788 60.1638C22.2882 60.2713 22.4707 60.2534 22.5802 60.1279C22.5802 60.1279 22.5802 60.11 22.5985 60.0921C22.6897 59.9666 22.781 59.7694 22.8722 59.5005C22.8904 59.4467 22.8722 59.3929 22.8174 59.375C22.8174 59.375 22.7992 59.375 22.781 59.375L22.7627 59.3929ZM27.4708 59.6797C27.2883 59.6797 27.1788 59.6797 27.1423 59.6977C27.1241 59.7335 27.1241 59.7694 27.1423 59.7873C27.1423 59.7873 27.1606 59.7873 27.1788 59.7873C27.3065 59.8052 27.416 59.7873 27.489 59.7515C27.5073 59.7515 27.5073 59.6977 27.489 59.6797C27.489 59.6797 27.4708 59.6618 27.4525 59.6618L27.4708 59.6797ZM8.93043 60.0562C8.83919 60.0383 8.78445 60.0383 8.74795 60.0562C8.71145 60.0741 8.71145 60.1279 8.74795 60.1459C8.74795 60.1459 8.7662 60.1638 8.78445 60.1638C8.85744 60.1638 8.91219 60.1638 8.94868 60.1638C8.98518 60.1638 8.98518 60.11 8.98518 60.0741C8.98518 60.0741 8.96693 60.0383 8.94868 60.0383L8.93043 60.0562ZM5.99245 60.3968C5.95595 60.3968 5.9377 60.4327 5.9377 60.4685C5.9377 60.5044 5.95595 60.5223 5.99245 60.5223C6.12018 60.5582 6.21143 60.5582 6.26617 60.5223C6.28442 60.5044 6.30267 60.4685 6.26617 60.4506C6.26617 60.4506 6.24792 60.4506 6.22967 60.4327C6.13843 60.4148 6.06544 60.3968 5.99245 60.4148V60.3968ZM14.5144 60.7912C14.6239 60.7912 14.7517 60.8092 14.8977 60.8809C14.9706 60.9167 15.0619 60.8809 15.0801 60.8271C15.0801 60.8092 15.0801 60.7733 15.0801 60.7554C15.0801 60.6837 15.0436 60.612 15.0071 60.5582C14.9706 60.5044 14.9159 60.4865 14.8429 60.5044C14.6787 60.5403 14.5692 60.5403 14.5144 60.5223C14.2407 60.4148 13.9305 60.5582 13.821 60.8092C13.821 60.845 13.8028 60.8988 13.7845 60.9347C13.7845 61.0064 13.8392 61.1498 13.9852 61.3828C14.0217 61.4366 14.0582 61.4725 14.113 61.4904C14.5874 61.6697 15.0984 61.7235 15.5911 61.6697C15.6276 61.6697 15.6641 61.6697 15.7006 61.6876L15.9561 61.831C15.9561 61.831 15.9743 61.831 15.9926 61.831V61.7952C16.0291 61.7772 16.0291 61.7414 15.9926 61.7414C15.8283 61.598 15.6276 61.5083 15.4086 61.4725C15.3356 61.4725 15.2626 61.4187 15.2261 61.3649C15.0436 61.1498 14.7882 60.9884 14.4597 60.8809C14.4414 60.8809 14.4232 60.845 14.4232 60.8271C14.4232 60.8271 14.4414 60.7912 14.4597 60.7912H14.5144ZM17.124 61.3111L17.0692 61.1319C17.0692 61.096 17.0327 61.0601 17.0145 61.0422C16.832 60.8629 16.613 60.7554 16.394 60.6837C16.321 60.6657 16.248 60.7016 16.2298 60.7733C16.2298 60.7912 16.2298 60.8271 16.2298 60.845L16.2663 60.9884C16.3028 61.096 16.3758 61.1677 16.4853 61.1677C16.7042 61.1856 16.8867 61.2573 17.0327 61.3649C17.051 61.3828 17.0875 61.3649 17.1057 61.3649C17.1057 61.3649 17.1057 61.3291 17.1057 61.3111H17.124ZM10.6093 61.4725C10.591 61.5083 10.6093 61.5621 10.6458 61.58C10.6458 61.58 10.6823 61.58 10.7005 61.58C11.0837 61.4725 11.4487 61.4725 11.7772 61.58C11.8319 61.598 11.9049 61.58 11.9414 61.58C12.1057 61.4904 12.2334 61.4008 12.3064 61.3111C12.3429 61.2753 12.3246 61.2036 12.3064 61.1677C12.2881 61.1498 12.2516 61.1498 12.2151 61.1677C11.9597 61.2394 11.5947 61.1856 11.102 61.0243C10.9925 60.9884 10.883 61.0243 10.8465 61.1139L10.6275 61.4904L10.6093 61.4725ZM19.3138 61.2394L18.967 61.3291C18.9123 61.3291 18.8575 61.3291 18.8028 61.2932C18.6751 61.1677 18.5656 61.1319 18.4743 61.1856C18.4196 61.2215 18.3648 61.2753 18.3831 61.347C18.4196 61.6876 18.3101 61.9207 18.0729 62.0461C17.9269 62.1179 17.8721 62.2971 17.9634 62.4405C17.9816 62.4943 18.0364 62.5302 18.0729 62.5481L19.0583 63.1039C19.0765 63.1039 19.113 63.1039 19.1313 63.1039C19.3685 62.9246 19.4962 62.7632 19.5145 62.6198C19.5145 62.584 19.5145 62.5481 19.5145 62.5302L19.2955 61.7593C19.2955 61.7055 19.2955 61.6338 19.2955 61.58L19.3868 61.3291C19.3868 61.2932 19.3868 61.2573 19.3503 61.2394C19.3503 61.2394 19.332 61.2394 19.3138 61.2394ZM23.1459 61.4366L24.0948 61.58C24.0948 61.58 24.0948 61.58 24.1131 61.58V61.5442C24.1131 61.4545 23.9306 61.3649 23.6751 61.3291H23.6021C23.3466 61.2753 23.1277 61.3291 23.1277 61.4008V61.4366H23.1459ZM24.3321 61.4366C24.4598 61.4725 24.551 61.4904 24.624 61.4725C24.6423 61.4725 24.6605 61.4545 24.6605 61.4187C24.6605 61.4187 24.6605 61.4008 24.6605 61.3828C24.5145 61.2932 24.4051 61.2573 24.3321 61.3111C24.2956 61.3291 24.2956 61.3649 24.3321 61.4008C24.3321 61.4008 24.3503 61.4187 24.3686 61.4187L24.3321 61.4366ZM21.5583 61.4008C21.3576 61.4008 21.2298 61.4366 21.1568 61.5083C21.1203 61.5442 21.0474 61.5621 20.9926 61.5442L20.7736 61.4725C20.7006 61.4545 20.6276 61.4725 20.6094 61.5442C20.6094 61.5621 20.6094 61.598 20.6094 61.6159L20.8466 62.4764C20.8649 62.566 20.9744 62.6198 21.0656 62.6019C21.1021 62.6019 21.1203 62.584 21.1386 62.566C21.4306 62.2792 21.6131 61.9386 21.6678 61.5263C21.6678 61.4725 21.6313 61.4187 21.5766 61.4187L21.5583 61.4008ZM25.1167 61.7055C25.1167 61.7593 25.2627 61.831 25.573 61.9207C25.8832 62.0103 26.0474 61.9744 26.0657 61.8131C26.0839 61.6517 25.9379 61.58 25.6094 61.598C25.281 61.6159 25.1167 61.6517 25.1167 61.7055ZM24.6788 61.8131C24.7518 62.0282 24.8795 62.1716 25.0985 62.2075C25.1715 62.2075 25.2262 62.1896 25.2445 62.1179C25.2445 62.082 25.2445 62.0461 25.2262 62.0103C25.1532 61.9207 25.0073 61.831 24.77 61.7414C24.7335 61.7414 24.697 61.7414 24.697 61.7772C24.697 61.7772 24.697 61.7952 24.697 61.8131H24.6788Z" fill="white"/>
<path d="M88.311 51.2361L87.9096 52.724C87.9096 52.7778 87.8548 52.7957 87.8001 52.7957C87.8001 52.7957 87.7636 52.7957 87.7636 52.7778C85.957 51.1106 83.8767 50.6983 81.4861 51.5408C79.4606 52.2579 78.3474 54.1224 78.0372 56.184C77.508 59.5723 78.6759 63.7852 82.8365 64.2154C84.8073 64.4126 86.5957 63.8569 88.1833 62.5303C88.2198 62.4944 88.2928 62.4944 88.3293 62.5303C88.3475 62.5482 88.3658 62.584 88.3475 62.6199L88.0373 63.7493C88.0373 63.8031 87.9826 63.8389 87.9461 63.8748C86.1212 64.9863 83.8949 65.2731 81.7964 64.9504C77.0335 64.2333 74.9897 60.1997 75.9569 55.8075C77.1795 50.2501 83.6942 49.3358 88.238 51.0747C88.311 51.0927 88.3475 51.1823 88.3293 51.254L88.311 51.2361Z" fill="white"/>
<path d="M35.6465 50.5908C35.9203 50.5908 36.2305 50.5908 36.559 50.537C36.5955 50.537 36.6502 50.5728 36.6502 50.6087C36.5772 52.6524 36.5225 55.0009 36.5407 57.6182C36.5407 60.2536 36.5772 62.5841 36.6685 64.6278C36.6685 64.6637 36.632 64.6995 36.5955 64.7174C36.267 64.6816 35.9568 64.6637 35.683 64.6637C35.4093 64.6637 35.0991 64.6637 34.7706 64.7174C34.7341 64.7174 34.6794 64.6816 34.6794 64.6457C34.7524 62.602 34.8071 60.2536 34.7889 57.6182C34.7889 54.9829 34.7524 52.6524 34.6611 50.6087C34.6611 50.5728 34.6976 50.537 34.7341 50.519C35.0626 50.5549 35.3728 50.5728 35.6465 50.5728V50.5908Z" fill="white"/>
<path d="M112.837 54.8931C112.837 55.6281 112.235 56.2377 111.468 56.2377C110.72 56.2377 110.1 55.6461 110.1 54.8931C110.1 54.1402 110.702 53.5486 111.468 53.5486C112.235 53.5486 112.837 54.1402 112.837 54.8931ZM111.468 53.7996C110.884 53.7996 110.428 54.2836 110.41 54.9111C110.41 55.5206 110.866 56.0225 111.45 56.0225C112.034 56.0225 112.49 55.5385 112.508 54.9111C112.508 54.3015 112.052 53.7996 111.468 53.7996Z" fill="white"/>
<path d="M112.052 55.5744C112.07 55.6102 112.052 55.664 112.015 55.682H111.979H111.906C111.869 55.682 111.833 55.664 111.815 55.6282L111.486 55.0545C111.45 55.0007 111.358 54.9649 111.304 55.0007C111.267 55.0186 111.231 55.0724 111.231 55.1083V55.5744C111.231 55.6282 111.194 55.664 111.14 55.664H111.085C111.012 55.664 110.957 55.6102 110.957 55.5385V54.2657C110.957 54.2119 111.012 54.1581 111.067 54.1581C111.541 54.1581 112.234 54.0864 112.07 54.7318C112.034 54.8932 111.942 54.9111 111.815 54.9828C111.76 55.0007 111.742 55.0545 111.778 55.1083L112.052 55.5565V55.5744ZM111.815 54.5705C111.815 54.4808 111.742 54.3912 111.65 54.3912H111.377C111.285 54.3912 111.194 54.4629 111.194 54.5525V54.6422C111.194 54.7318 111.267 54.8214 111.358 54.8214H111.632C111.723 54.8214 111.815 54.7497 111.815 54.6601V54.5705Z" fill="white"/>
<path d="M95.9936 63.6238C95.9936 63.588 95.9571 63.5701 95.9206 63.5701C95.9206 63.5701 95.8841 63.5701 95.8841 63.588C95.1724 64.3409 94.3695 64.7891 93.457 64.9325C91.2672 65.2731 89.5154 64.2154 89.8804 61.8132C90.0811 60.5224 91.1212 59.9308 92.3074 59.7157C93.7308 59.4647 94.8257 59.3392 95.8658 58.7655C95.9206 58.7297 95.9571 58.6938 95.9753 58.6401C96.0483 58.3532 96.0483 57.9767 95.9753 57.5286C95.5191 54.8753 92.1614 55.0725 90.9935 56.9907C90.957 57.0445 90.884 57.0625 90.8293 57.0266C90.7928 57.0087 90.7745 56.9728 90.7745 56.919V56.0047C90.738 55.9151 90.7745 55.8255 90.8658 55.7717C91.5957 55.2697 92.3621 54.947 93.1833 54.7678C94.9352 54.4092 96.8695 54.8753 97.4899 56.7218C97.6542 57.1879 97.6907 57.9767 97.6359 59.0703C97.5629 60.5224 97.4534 62.1179 97.6724 63.5342C97.7089 63.7673 97.8731 63.9465 98.0921 64.0182C98.2199 64.0541 98.4206 64.0541 98.7126 64.0182C98.7673 64.0182 98.8221 64.0541 98.8403 64.1079V64.2871C98.8403 64.3589 98.8038 64.4306 98.7126 64.4664C97.6177 64.8429 96.176 64.9863 95.9753 63.588L95.9936 63.6238ZM95.9023 59.6261C94.6249 59.877 93.5665 60.1459 92.6724 60.4328C91.5957 60.7913 91.4132 61.7953 91.6504 62.7633C91.8877 63.7493 92.8366 64.2154 93.8038 64.0541C94.5702 63.9286 95.2271 63.5521 95.7563 62.9067C96.0118 62.602 95.9388 62.4227 95.9571 62.0821C95.9936 61.0065 96.0118 60.2177 96.0118 59.6978C96.0118 59.644 95.9753 59.5902 95.9206 59.5902C95.9206 59.5902 95.9206 59.5902 95.9023 59.5902V59.6261Z" fill="white"/>
<path d="M101.596 56.7936C101.632 56.7578 101.778 56.5606 102.033 56.2199C102.617 55.4491 103.366 54.965 104.26 54.8037C106.085 54.481 107.508 54.965 108.566 56.2737C109.734 57.7438 109.844 60.2715 109.169 61.9925C108.493 63.7136 107.289 64.6995 105.537 64.9147C104.223 65.094 102.964 64.7354 102.088 63.7494C102.052 63.7135 101.924 63.5701 101.723 63.3371C101.723 63.3192 101.669 63.3192 101.65 63.3371C101.65 63.3371 101.632 63.355 101.632 63.3729L101.778 68.8587C101.778 68.8945 101.742 68.9304 101.705 68.9304L100.081 68.9662C100.026 68.9662 99.9897 68.9304 99.9714 68.8766C100.099 64.1617 100.081 59.5365 99.8984 54.983C99.8984 54.965 99.9167 54.9292 99.9532 54.9292H101.504C101.523 54.9292 101.541 54.9471 101.541 54.965V56.7578V56.7757L101.596 56.7936ZM101.577 59.8413C101.541 61.7774 102.07 64.1797 104.552 64.2155C107.034 64.2514 107.654 61.867 107.672 59.9309C107.709 57.9948 107.18 55.5925 104.698 55.5387C102.216 55.5029 101.596 57.8872 101.577 59.8233V59.8413Z" fill="white"/>
<path d="M40.8839 56.6501C40.8839 56.668 40.8839 56.6859 40.9204 56.6859C40.9204 56.6859 40.9569 56.6859 40.9569 56.668C41.8693 55.1621 43.238 54.5705 45.0993 54.8394C46.9241 55.1083 47.8366 56.5605 47.7636 58.2815C47.6906 60.5403 47.6723 62.6557 47.6906 64.6636C47.6906 64.7174 47.6541 64.7532 47.5993 64.7532C47.0701 64.6636 46.5227 64.6636 45.9935 64.7532C45.9387 64.7532 45.9022 64.7353 45.9022 64.6815C45.9022 64.6815 45.9022 64.6815 45.9022 64.6636C46.0665 62.7095 46.1212 60.7375 46.103 58.7655C46.0665 56.7577 45.1358 55.5207 42.9277 55.8971C41.0847 56.2198 40.9204 58.2635 40.9022 59.6977C40.9022 62.4585 40.9022 64.1078 40.9569 64.6457C40.9569 64.6994 40.9204 64.7353 40.8839 64.7353C40.8839 64.7353 40.8839 64.7353 40.8657 64.7353C40.3365 64.6457 39.8255 64.6457 39.2963 64.7353C39.2598 64.7353 39.2233 64.7174 39.2051 64.6815C39.2051 64.6815 39.2051 64.6815 39.2051 64.6636C39.4058 61.4367 39.4423 58.2277 39.3146 55.0008C39.3146 54.9829 39.3328 54.947 39.3693 54.947H40.8839C40.9022 54.947 40.9204 54.9649 40.9204 54.9829V56.6322L40.8839 56.6501Z" fill="white"/>
<path d="M71.1938 55.0009V56.8116C71.1938 56.8295 71.1938 56.8474 71.2303 56.8474C71.2303 56.8474 71.2668 56.8474 71.2668 56.8295C72.1245 55.7001 72.9274 54.4989 74.5333 54.8216C74.6063 54.8216 74.6427 54.8933 74.6427 54.9651L74.4603 56.5606C74.4603 56.6144 74.4238 56.6323 74.369 56.6323H74.3325C73.8216 56.2737 73.2741 56.202 72.6719 56.4172C71.5588 56.7936 71.2303 58.0665 71.1938 59.1242C71.1391 60.8811 71.1573 62.7455 71.2485 64.6996C71.2485 64.7533 71.2121 64.7892 71.1756 64.7892C70.6646 64.6996 70.1354 64.6996 69.6244 64.7892C69.5879 64.7892 69.5332 64.7713 69.5332 64.7175C69.6792 61.4906 69.6974 58.2637 69.5332 55.0368C69.5332 55.0009 69.5514 54.983 69.5879 54.983H71.1756C71.1938 54.983 71.2121 54.983 71.2121 55.0188L71.1938 55.0009Z" fill="white"/>
<path d="M67.1608 62.8529L67.0695 63.7134C67.0695 63.7851 67.033 63.8389 66.9783 63.8748C65.7009 64.7711 64.314 65.1476 62.8177 65.0221C59.168 64.7173 57.8724 61.7056 58.4745 58.5145C58.7665 56.9728 59.6059 55.8971 60.9746 55.2697C62.1607 54.7318 63.7666 54.6781 65.0075 55.0904C67.0513 55.7537 67.7082 57.8153 67.544 59.7515C67.544 59.7873 67.5075 59.8232 67.471 59.8232H60.3359C60.2629 59.8232 60.1899 59.877 60.1899 59.9666C60.1351 61.7056 60.7373 63.4445 62.4892 64.0361C64.1133 64.5739 65.8469 64.054 67.033 62.817C67.0695 62.7812 67.1243 62.7812 67.1608 62.817C67.179 62.835 67.1973 62.8529 67.179 62.8888L67.1608 62.8529ZM60.3724 59.0344H65.7191C65.7921 59.0344 65.8469 58.9806 65.8469 58.9089C65.7556 57.2058 65.2082 55.3593 63.0731 55.4848C61.23 55.5924 60.3176 57.2775 60.2264 58.891C60.2264 58.9627 60.2811 59.0344 60.3541 59.0344H60.3724Z" fill="white"/>
<path d="M57.8541 54.983C56.3395 58.0665 54.7519 61.634 53.657 64.6637C53.6388 64.7175 53.5658 64.7533 53.511 64.7354C53.1826 64.6637 52.8358 64.6637 52.4891 64.7354C52.4161 64.7354 52.3431 64.7175 52.3249 64.6458C51.0657 61.2755 49.7154 58.0665 48.292 55.0188C48.292 54.983 48.292 54.9651 48.3285 54.9471C48.3285 54.9471 48.3285 54.9471 48.3467 54.9471H50.1351C50.1898 54.9471 50.2446 54.983 50.2446 55.0368C51.084 57.5107 52.1242 60.0743 53.3833 62.7096C53.3833 62.7276 53.4198 62.7455 53.4563 62.7276C53.4563 62.7276 53.4745 62.7276 53.4745 62.6917C53.9672 61.5444 54.6424 60.0205 55.4819 58.1203C55.9381 57.0984 56.2848 56.0407 56.5585 54.983C56.5585 54.9471 56.595 54.9292 56.6315 54.9292H57.8359C57.8359 54.9292 57.8724 54.9292 57.8724 54.9651L57.8541 54.983Z" fill="white"/>
<path d="M21.4854 56.1123C21.4854 56.0944 21.4854 56.0586 21.5218 56.0227C21.5218 56.0227 21.5218 56.0227 21.5401 56.0227C21.5401 56.0227 21.5401 56.0406 21.5583 56.0765C21.5583 56.0944 21.5583 56.1303 21.5401 56.1303C21.5218 56.1303 21.4854 56.1303 21.4854 56.1123Z" fill="white"/>
<path d="M6.9411 56.1483C6.95935 56.1124 7.01409 56.1124 7.06884 56.0945C7.10534 56.0945 7.12358 56.1124 7.12358 56.1483C7.12358 56.1662 7.12358 56.1841 7.10534 56.202C7.08709 56.202 7.05059 56.2379 6.99584 56.2379C6.95935 56.2379 6.9411 56.2379 6.92285 56.202C6.92285 56.1841 6.92285 56.1662 6.92285 56.1483H6.9411Z" fill="white"/>
<path d="M80.8707 66.2679L80.8577 69.9429C80.8575 69.9825 80.8901 70.0148 80.9304 70.0149L81.5144 70.0169C81.5547 70.017 81.5875 69.985 81.5876 69.9454L81.6007 66.2704C81.6008 66.2308 81.5682 66.1986 81.5279 66.1984L80.944 66.1964C80.9037 66.1963 80.8709 66.2283 80.8707 66.2679Z" fill="white"/>
<path d="M87.8756 66.497L87.8692 66.9451C87.8686 66.9847 87.9008 67.0173 87.9412 67.0178L88.4521 67.0249C88.4924 67.0254 88.5255 66.9938 88.5261 66.9542L88.5324 66.506C88.533 66.4664 88.5008 66.4339 88.4605 66.4333L87.9496 66.4263C87.9092 66.4257 87.8761 66.4574 87.8756 66.497Z" fill="white"/>
<path d="M94.3511 66.5102C94.3511 66.4743 94.3876 66.4385 94.4241 66.4385H94.9351C94.9715 66.4385 95.008 66.4743 95.008 66.5102V67.0839C95.008 67.1376 95.0445 67.1735 95.0993 67.1735H95.519C95.5737 67.1735 95.6102 67.2093 95.6102 67.2631V67.7113C95.6102 67.7472 95.5737 67.783 95.519 67.783H95.1175C95.0628 67.783 95.008 67.8368 95.008 67.8906V69.271C95.008 69.3606 95.081 69.4503 95.154 69.4861C95.2453 69.522 95.3548 69.522 95.519 69.504C95.5555 69.504 95.592 69.522 95.592 69.5578V69.8805C95.592 69.9343 95.5555 69.9701 95.519 69.9701C94.9351 70.0598 94.3329 70.0239 94.3329 69.271C94.3329 68.4284 94.3329 67.9444 94.3329 67.8727C94.3329 67.8189 94.2781 67.7651 94.2234 67.7651H93.9496C93.8949 67.7651 93.8584 67.7292 93.8584 67.6755V67.2452C93.8584 67.1914 93.8949 67.1556 93.9496 67.1556H94.2781C94.3329 67.1556 94.3694 67.1197 94.3694 67.0659V66.4743L94.3511 66.5102Z" fill="white"/>
<path d="M89.625 68.7153C89.5155 68.7153 89.4243 68.8049 89.4243 68.9125C89.4243 68.9483 89.4243 68.9842 89.4425 69.0021L89.4973 69.0917C89.6068 69.3248 89.844 69.4861 90.1177 69.4861C90.4827 69.5041 90.7199 69.4144 90.8476 69.1814C90.9024 69.0738 90.9936 69.02 91.1214 69.02H91.3951C91.4681 69.02 91.5411 69.0738 91.5411 69.1634C91.5411 69.1814 91.5411 69.2172 91.5228 69.2351C91.1944 69.8088 90.6652 70.0598 89.9352 69.9702C88.2016 69.7371 88.4571 66.9763 90.2819 67.0839C91.1214 67.1377 91.6141 67.783 91.5958 68.5898C91.5958 68.6615 91.5411 68.6973 91.4863 68.6973H89.625V68.7153ZM89.4973 68.3209H90.9024C90.9024 68.3209 90.9389 68.3209 90.9389 68.285C90.9389 67.8906 90.6104 67.6038 90.2272 67.6038H90.1907C89.7892 67.6038 89.479 67.9085 89.479 68.2671C89.479 68.3029 89.479 68.3209 89.5155 68.3209H89.4973Z" fill="white"/>
<path d="M96.7238 68.7153C96.6143 68.7153 96.5231 68.8049 96.5231 68.9125C96.5231 68.9483 96.5231 68.9842 96.5414 69.0021L96.5961 69.0917C96.7056 69.3248 96.9428 69.4861 97.2165 69.4861C97.5815 69.5041 97.8187 69.4144 97.9465 69.1814C98.0012 69.0738 98.0925 69.02 98.2202 69.02H98.4939C98.5669 69.02 98.6399 69.0738 98.6399 69.1634C98.6399 69.1814 98.6399 69.2172 98.6217 69.2351C98.2932 69.8088 97.764 70.0598 97.0341 69.9702C95.3005 69.7371 95.5559 66.9763 97.399 67.0839C98.2385 67.1377 98.7312 67.783 98.7129 68.5898C98.7129 68.6435 98.6582 68.6973 98.5852 68.6973H96.7238V68.7153ZM96.5778 68.3209H97.9647C97.9647 68.3209 98.0012 68.3209 98.0012 68.3029C98.0012 67.9265 97.691 67.6217 97.2895 67.6217H97.253C96.8698 67.6217 96.5414 67.9265 96.5414 68.285C96.5414 68.3209 96.5414 68.3388 96.5778 68.3388V68.3209Z" fill="white"/>
<path d="M82.6902 67.55C83.3471 66.8688 84.6063 67.1018 84.6063 68.1954C84.6063 68.8766 84.6063 69.4682 84.6063 69.9523C84.6063 69.9881 84.5698 70.024 84.5333 70.024H84.0223C83.9858 70.024 83.9493 69.9881 83.9493 69.9523V68.1954C83.9493 67.9086 83.7121 67.6755 83.4201 67.6755C83.4019 67.6755 83.3654 67.6755 83.3471 67.6755H83.2559C82.9092 67.7472 82.6537 68.0341 82.6537 68.3747V69.9344C82.6537 69.9881 82.6172 70.024 82.5625 70.024H82.0698C82.015 70.024 81.9785 69.9881 81.9785 69.9344V67.3528C81.9785 67.299 82.0333 67.2453 82.088 67.2453H82.4895C82.5442 67.2453 82.599 67.299 82.599 67.3528V67.4962C82.599 67.5321 82.6172 67.55 82.6537 67.55H82.6902Z" fill="white"/>
<path d="M92.5815 67.6038C92.91 67.3348 93.0377 67.1197 93.5304 67.1914C93.5669 67.1914 93.6034 67.2273 93.6034 67.2811V67.7292C93.6034 67.7651 93.5669 67.801 93.5304 67.801C92.3078 67.6575 92.5085 69.0559 92.5268 69.9522C92.5268 70.006 92.4903 70.0419 92.4355 70.0419H91.9428C91.8881 70.0419 91.8516 70.006 91.8516 69.9522V67.3528C91.8516 67.299 91.8881 67.2631 91.9428 67.2631H92.3625C92.4173 67.2631 92.4538 67.299 92.4538 67.3528V67.55C92.4538 67.5858 92.4903 67.6038 92.5085 67.6038H92.545H92.5815Z" fill="white"/>
<path d="M86.1945 69.2708C86.2127 69.2708 86.231 69.2708 86.231 69.2708C86.4865 68.5537 86.7054 67.9083 86.8879 67.3705C86.9062 67.2988 86.9792 67.2629 87.0522 67.2629H87.5266C87.5631 67.2629 87.5996 67.2988 87.5996 67.3346C87.5996 67.3346 87.5996 67.3526 87.5996 67.3705L86.6325 69.9162C86.6142 69.97 86.5595 70.0237 86.4865 70.0237C86.4865 70.0237 86.3952 70.0237 86.2127 70.0237H85.939C85.866 70.0237 85.8295 69.97 85.793 69.9162L84.8076 67.3705C84.8076 67.3346 84.8076 67.2809 84.8441 67.2629C84.8441 67.2629 84.8624 67.2629 84.8806 67.2629H85.3551C85.4281 67.2629 85.4828 67.2988 85.5193 67.3705C85.7018 67.9083 85.9208 68.5537 86.1762 69.2708C86.1762 69.2708 86.1762 69.2708 86.2127 69.2708H86.1945Z" fill="white"/>
<path d="M88.4752 67.2629H87.9278C87.8976 67.2629 87.873 67.287 87.873 67.3167V69.97C87.873 69.9997 87.8976 70.0237 87.9278 70.0237H88.4752C88.5055 70.0237 88.53 69.9997 88.53 69.97V67.3167C88.53 67.287 88.5055 67.2629 88.4752 67.2629Z" fill="white"/>
</g>
<defs>
<clipPath id="clip0_35_674">
<rect width="109.673" height="26.8909" fill="white" transform="translate(3.16406 44.8181)"/>
</clipPath>
</defs>
</svg>
