<svg width="116" height="116" viewBox="0 0 116 116" fill="none" xmlns="http://www.w3.org/2000/svg">
<g clip-path="url(#clip0_35_839)">
<path d="M56.7702 44.0481H56.7978C57.5258 43.0201 58.2445 41.9374 58.9632 40.8093C59.0922 40.6091 59.3594 40.5454 59.5621 40.6728L59.5898 40.691C59.7925 40.8184 59.8478 41.0913 59.7096 41.2823L57.3507 44.8214C57.3323 44.8487 57.3323 44.8851 57.3507 44.9124L58.309 46.2134C58.3274 46.2407 58.355 46.2407 58.3827 46.2134C60.4191 44.503 62.6858 42.9746 65.0816 41.9738C66.4084 41.4188 67.8367 41.0549 69.2373 41.2823C70.2877 41.4552 71.1538 42.0648 71.5408 43.0382C71.9924 44.1755 71.504 45.7676 70.6194 46.541C70.3706 46.7593 70.0297 47.0231 69.5782 47.3325C69.5505 47.3507 69.5505 47.378 69.5598 47.4053C69.6427 47.5508 69.7809 47.751 69.8454 47.9329C70.4628 49.6615 69.486 50.8352 67.9012 51.4174C66.3716 51.9815 64.5563 51.8814 62.9991 51.4174C62.1975 51.1809 61.4511 50.7715 60.7508 50.1801C59.8201 49.3977 58.9908 48.5243 58.2537 47.5508C58.2353 47.5235 58.1984 47.5235 58.18 47.5508L57.4428 48.2787C57.4152 48.306 57.4152 48.3423 57.4428 48.3605C58.2906 49.2703 58.9816 50.1892 59.4147 51.3083C59.9031 52.5729 59.9123 53.9467 59.4516 55.2204C59.1291 56.1029 58.4288 56.9854 57.7193 57.5767C57.4797 57.7769 57.1019 58.0589 56.7886 58.0589C56.4753 58.0589 56.0975 57.7769 55.858 57.5767C55.1577 56.9854 54.4481 56.1029 54.1256 55.2204C53.6649 53.9467 53.6741 52.5729 54.1625 51.3083C54.5956 50.1892 55.2867 49.2703 56.1344 48.3605C56.1528 48.3332 56.1528 48.2969 56.1344 48.2787L55.3972 47.5508C55.3788 47.5326 55.3419 47.5326 55.3235 47.5508C54.5864 48.5152 53.7571 49.3977 52.8264 50.171C52.1261 50.7624 51.3798 51.1718 50.5781 51.4083C49.0301 51.8723 47.2056 51.9633 45.676 51.4083C44.0912 50.8261 43.1144 49.6433 43.7318 47.9238C43.7963 47.7419 43.9345 47.5417 44.0175 47.3962C44.0359 47.3689 44.0175 47.3416 43.999 47.3234C43.5475 47.014 43.1974 46.7502 42.9578 46.5319C42.0732 45.7585 41.5849 44.1573 42.0364 43.0201C42.4234 42.0466 43.2895 41.437 44.34 41.2642C45.7405 41.0367 47.1688 41.4006 48.4956 41.9556C50.8914 42.9564 53.1581 44.4939 55.1945 46.2043C55.2129 46.2225 55.2498 46.2225 55.2682 46.2043L56.2265 44.9033C56.245 44.876 56.245 44.8396 56.2265 44.8123L53.8676 41.2732C53.7386 41.0731 53.7939 40.8093 53.9874 40.6819L54.0151 40.6637C54.2178 40.5363 54.485 40.5909 54.614 40.782C55.3327 41.9101 56.0515 42.9928 56.7794 44.0208H56.807L56.7702 44.0481ZM54.614 47.0049C54.6324 46.9777 54.6324 46.9413 54.614 46.9231C52.9093 45.431 51.0388 44.1755 49.0117 43.1565C48.1179 42.7016 47.1964 42.3832 46.2473 42.183C45.289 41.9829 44.0451 42.0011 43.2803 42.7107C42.3128 43.6023 42.709 45.2308 43.6212 45.986C43.953 46.268 44.2939 46.5137 44.6256 46.7229C44.6532 46.7411 44.6901 46.7411 44.727 46.7229C45.5747 46.177 46.5975 45.9587 47.5742 45.895C48.6062 45.8222 49.5553 45.8495 50.4122 45.9678C50.5781 45.9951 50.79 46.0588 51.0665 46.1588C51.7299 46.4136 52.0893 46.8867 51.9879 47.6327C51.7483 49.3886 48.6615 49.1066 47.4729 48.8518C46.6343 48.6699 45.759 48.3423 44.8375 47.8602C44.8099 47.8602 44.7822 47.8602 44.7638 47.8602C44.6901 47.942 44.6348 48.0239 44.5887 48.1149C43.9069 49.6342 45.1785 50.4349 46.4501 50.7533C47.6203 51.0444 48.855 50.9444 50.016 50.6623C50.8914 50.4531 51.693 49.9891 52.4118 49.3613C53.2318 48.6426 53.969 47.8511 54.6232 46.9868H54.614V47.0049ZM58.9079 47.0049C59.5621 47.8693 60.2993 48.6608 61.1194 49.3795C61.8381 50.0073 62.6397 50.4713 63.5151 50.6805C64.6761 50.9625 65.9109 51.0626 67.0811 50.7715C68.3527 50.4531 69.6243 49.6524 68.9424 48.1331C68.8963 48.0421 68.841 47.9511 68.7673 47.8783C68.7489 47.8602 68.7212 47.8511 68.6936 47.8783C67.7814 48.3605 66.8968 48.6881 66.0583 48.87C64.8696 49.1248 61.7736 49.4068 61.5432 47.6509C61.4419 46.9049 61.8012 46.4318 62.4647 46.177C62.7319 46.077 62.953 46.0133 63.1189 45.986C63.9758 45.8677 64.9249 45.8404 65.9569 45.9132C66.9336 45.9769 67.9564 46.2043 68.8134 46.7411C68.841 46.7593 68.8779 46.7593 68.9147 46.7411C69.2465 46.5319 69.5874 46.2862 69.9191 46.0042C70.8313 45.249 71.2183 43.6205 70.26 42.7289C69.4953 42.0193 68.2513 42.0011 67.293 42.2012C66.3439 42.4014 65.4225 42.7289 64.5287 43.1747C62.5015 44.1937 60.631 45.4492 58.9263 46.9413C58.8987 46.9595 58.8987 46.9958 58.9263 47.0231H58.9079V47.0049ZM57.6455 46.8412C57.6455 46.8412 57.6455 46.8139 57.6455 46.8048L56.7886 45.6403C56.7886 45.6403 56.761 45.6221 56.7517 45.6403L55.8948 46.8048V46.8412L56.7517 47.6873C56.7517 47.6873 56.7794 47.6873 56.7886 47.6873L57.6455 46.8412ZM45.6023 47.2779C46.3026 47.6145 47.0306 47.8602 47.7677 48.0239C48.4772 48.1786 49.2697 48.2059 50.1542 48.1058C50.4122 48.0785 50.7716 47.9602 50.9651 47.7874C51.0941 47.6782 51.1402 47.5235 51.1033 47.3143C51.048 46.9322 50.2556 46.8139 49.9423 46.7775C48.9287 46.6683 47.9244 46.6956 46.9108 46.8412C46.4316 46.914 45.9893 47.0413 45.5931 47.2233C45.5747 47.2233 45.5747 47.2506 45.5747 47.2688C45.5747 47.2688 45.5747 47.2688 45.5931 47.287L45.6023 47.2779ZM67.9288 47.2779C67.9472 47.2779 67.9472 47.2506 67.9472 47.2324C67.9472 47.2324 67.9472 47.2324 67.9288 47.2142C67.5326 47.0322 67.0903 46.9049 66.6111 46.8321C65.6068 46.6865 64.5932 46.6592 63.5888 46.7684C63.2755 46.8048 62.4923 46.9231 62.437 47.3052C62.4094 47.5144 62.4555 47.6691 62.5845 47.7783C62.778 47.9511 63.1373 48.0694 63.3953 48.0967C64.2799 48.1968 65.0723 48.1695 65.7819 48.0148C66.519 47.8602 67.2377 47.6054 67.938 47.2688H67.9288V47.2779ZM56.761 51.2264H58.3366C58.355 51.2264 58.3735 51.2082 58.3735 51.19V51.1718C57.9773 50.3894 57.452 49.6615 56.7978 48.9792H56.7425C56.0883 49.6615 55.5631 50.3894 55.1669 51.1718C55.1669 51.19 55.1669 51.2082 55.1853 51.2173H56.7702H56.761V51.2264ZM54.6416 53.0551C54.6416 53.1097 54.6693 53.1552 54.7246 53.1642H58.8158C58.8711 53.1642 58.9079 53.1188 58.9079 53.0642V53.046L58.7605 52.1635C58.7605 52.118 58.7144 52.0816 58.6683 52.0816H54.8812C54.8351 52.0816 54.7891 52.118 54.7891 52.1635L54.6601 53.046H54.6416V53.0551ZM58.8526 54.1377C58.8711 54.0922 58.8526 54.0467 58.7973 54.0286H54.7799C54.7338 54.0286 54.6969 54.0649 54.6969 54.1104V54.1377L54.9549 55.0475C54.9549 55.0839 55.001 55.1112 55.0379 55.1112H58.4656C58.5025 55.1112 58.5393 55.0839 58.5486 55.0566L58.8526 54.1468V54.1377ZM56.7702 57.1491C56.7978 57.1491 56.8255 57.1491 56.8347 57.14C57.2585 56.8398 57.6363 56.4668 57.968 56.021V55.9846H57.9496C57.839 55.9755 57.4428 55.9664 56.7702 55.9664C56.0975 55.9664 55.7013 55.9664 55.5907 55.9846C55.5723 55.9846 55.5631 56.0028 55.5723 56.0119C55.904 56.4668 56.2818 56.8398 56.7057 57.14C56.7057 57.14 56.7333 57.1491 56.7702 57.1491Z" fill="white"/>
<path d="M30.3157 71.1508C30.1498 71.2873 30.0577 71.3601 30.0484 71.3692C29.3113 71.9151 28.5373 72.1698 27.7264 72.1516C25.1464 72.0788 24.4092 69.9044 24.7594 67.7482C24.9529 66.5564 25.5795 65.7376 26.6483 65.2918C27.8186 64.8096 29.4034 64.9461 30.3433 65.8467H30.371C30.371 64.4184 30.371 63.4722 30.3617 62.9991C30.3433 62.2531 29.8918 62.2986 29.3297 62.2076C29.3021 62.2076 29.2744 62.1803 29.2744 62.1439V61.3797C29.2744 61.3524 29.2929 61.3251 29.3297 61.316L33.0247 60.7246C33.0431 60.7246 33.0616 60.7337 33.0708 60.761V69.8407C33.0708 70.6505 33.338 70.887 34.1396 70.8779C34.1673 70.8779 34.1949 70.9052 34.1949 70.9325V71.7877C34.1949 71.815 34.1765 71.8332 34.1489 71.8332C32.8865 71.8605 31.707 71.9697 30.6197 72.1425C30.5829 72.1425 30.546 72.1243 30.5276 72.0879C30.4262 71.815 30.3802 71.5148 30.371 71.1781C30.371 71.1599 30.3525 71.1417 30.3341 71.1417H30.3065H30.3157V71.1508ZM30.3341 66.8657C29.4956 66.0014 28.0213 65.9104 27.6619 67.2933C27.45 68.1121 27.3855 69.7589 27.9844 70.5049C28.611 71.2782 29.7075 70.8051 30.2143 70.1592C30.3249 70.0136 30.3802 69.9044 30.3802 69.8225V66.9567C30.3802 66.9203 30.3617 66.8839 30.3341 66.8566V66.8657Z" fill="white"/>
<path d="M40.9579 71.1783C40.9579 71.1601 40.9394 71.1419 40.921 71.1419H40.8934C40.7275 71.2783 40.6354 71.3511 40.6261 71.3602C39.889 71.9061 39.115 72.1608 38.3041 72.1426C35.7149 72.0699 34.9869 69.8955 35.3371 67.7392C35.5306 66.5474 36.1664 65.7286 37.226 65.2828C38.3963 64.8006 39.9811 64.9371 40.921 65.8378H40.9487C40.9487 64.4094 40.9487 63.4632 40.9394 62.9901C40.921 62.2441 40.4695 62.2896 39.9074 62.1986C39.8798 62.1986 39.8521 62.1713 39.8521 62.1349V61.3616C39.8521 61.3343 39.8798 61.307 39.9074 61.2979L43.6024 60.7065C43.6208 60.7065 43.6393 60.7156 43.6485 60.7429V69.8318C43.6485 70.6415 43.9157 70.8871 44.7266 70.8689C44.7542 70.8689 44.7818 70.8962 44.7818 70.9235V71.7787C44.7818 71.806 44.7634 71.8242 44.7358 71.8242C43.4734 71.8515 42.294 71.9516 41.2067 72.1335C41.1698 72.1335 41.1329 72.1154 41.1145 72.079C41.0132 71.806 40.9671 71.5058 40.9579 71.1692V71.1783ZM40.9118 66.8658C40.0733 66.0015 38.599 65.9106 38.2396 67.2934C38.0277 68.1123 37.9632 69.759 38.5621 70.505C39.1887 71.2783 40.2852 70.8053 40.792 70.1593C40.9026 70.0137 40.9579 69.9046 40.9579 69.8227V66.9568C40.9579 66.9204 40.9394 66.884 40.9118 66.8567V66.8658Z" fill="white"/>
<path d="M12.3473 67.9667C12.3473 67.9758 12.3657 67.9849 12.3841 67.9849C12.3841 67.9849 12.4026 67.9758 12.4026 67.9667C12.7712 66.6657 13.1674 65.2556 13.5912 63.7089C13.8308 62.8537 13.9967 61.8802 12.7343 61.8438C12.6974 61.8438 12.6698 61.8165 12.6698 61.7801V60.9704C12.6698 60.9431 12.6974 60.9158 12.7251 60.9158H16.2265C16.2542 60.9158 16.2818 60.9431 16.2818 60.9704V61.7801C16.2818 61.8165 16.2542 61.8438 16.2173 61.8438C15.6737 61.8711 15.2775 62.1804 15.0471 62.7627C14.8536 63.2449 14.7062 63.6816 14.5864 64.0819C13.5728 67.6574 12.808 70.3595 12.3012 72.1791C12.292 72.2155 12.2644 72.2337 12.2275 72.2337H11.0388C11.002 72.2337 10.9743 72.2155 10.9651 72.1791L8.09945 64.9098C8.09945 64.8916 8.08102 64.8916 8.06259 64.8916C8.06259 64.8916 8.04417 64.9007 8.04417 64.9098L5.58392 72.17C5.58392 72.2064 5.53785 72.2337 5.50099 72.2337H4.27548C4.24784 72.2337 4.22019 72.2155 4.20176 72.1791C3.29875 69.2859 2.37731 66.3382 1.45587 63.345C1.35452 63.0175 1.22551 62.6808 1.05966 62.3351C0.884582 61.953 0.488363 61.8529 0.0737152 61.8347C0.0276432 61.8347 0 61.7983 0 61.771V60.9704C0 60.934 0.0276432 60.9067 0.0645008 60.9067H5.01263C5.07713 60.9067 5.13242 60.9613 5.13242 61.025V61.7528C5.13242 61.8074 5.08635 61.8438 5.04027 61.8438H5.02184C4.93892 61.8256 4.8007 61.8438 4.6072 61.9075C4.29391 62.0076 4.16491 62.2259 4.22941 62.5626C4.29391 62.8719 4.38605 63.2267 4.51505 63.6179C5.13242 65.5376 5.59314 66.9842 5.89721 67.9576C5.89721 67.9667 5.91564 67.9758 5.92486 67.9667C5.92486 67.9667 5.92486 67.9667 5.92486 67.9576L8.24688 60.9431C8.24688 60.9158 8.27453 60.9067 8.30217 60.9067H9.5369C9.55533 60.9067 9.58297 60.9249 9.59218 60.9431L12.3565 67.9667H12.3381H12.3473Z" fill="white"/>
<path d="M113.448 63.8816C113.448 63.1992 114.037 62.6534 114.747 62.6625C115.456 62.6716 116.019 63.2356 116 63.918C115.982 64.6003 115.41 65.1462 114.701 65.1371C113.991 65.128 113.429 64.5639 113.448 63.8816ZM114.719 62.9445C114.203 62.9445 113.789 63.3812 113.789 63.9089C113.789 64.4366 114.213 64.8642 114.729 64.8642C115.245 64.8642 115.659 64.4275 115.659 63.8998C115.659 63.3721 115.235 62.9445 114.719 62.9445Z" fill="white"/>
<path d="M115.097 63.8907C115.097 63.8907 115.078 63.9089 115.078 63.918C115.216 64.1 115.29 64.2819 115.299 64.473C115.299 64.5003 115.272 64.5276 115.244 64.5276H115.051C115.014 64.5276 114.986 64.5003 114.977 64.4639C114.912 64.2547 114.922 64.009 114.608 64.0454C114.571 64.0454 114.544 64.0818 114.544 64.1182V64.473C114.544 64.5003 114.525 64.5185 114.498 64.5185H114.286C114.258 64.5185 114.23 64.4912 114.23 64.4639V63.354C114.23 63.3085 114.267 63.2721 114.313 63.263C114.636 63.2448 115.299 63.1629 115.281 63.6269C115.281 63.7452 115.216 63.827 115.097 63.8634V63.8907ZM114.544 63.5632V63.7725C114.544 63.8089 114.571 63.827 114.608 63.827H114.7C114.839 63.827 114.958 63.7634 114.958 63.6815V63.6451C114.958 63.5632 114.839 63.4995 114.7 63.4995H114.608C114.571 63.4995 114.544 63.5268 114.544 63.5632Z" fill="white"/>
<path d="M18.4749 68.64C18.4749 69.6225 18.6961 70.8144 19.7189 71.1419C20.5942 71.4239 21.5065 70.9781 22.0409 70.2867C22.0685 70.2503 22.1238 70.2412 22.1699 70.2685L22.8241 70.6961C22.861 70.7234 22.8702 70.7689 22.8425 70.7962C21.23 72.6795 18.2814 72.7613 16.5123 71.06C15.5263 70.1138 15.3236 68.2852 15.8949 67.0569C16.4478 65.856 17.7654 65.1009 19.1015 65.0372C21.0365 64.9462 22.7504 65.7468 23.036 67.7939C23.0637 67.9667 23.0821 68.2124 23.1005 68.5308C23.1005 68.5581 23.0821 68.5854 23.0545 68.5854H18.5394C18.5118 68.5854 18.4841 68.6127 18.4841 68.64H18.4749ZM18.5026 67.7393L20.4929 67.7211C20.5021 67.7211 20.5205 67.712 20.5205 67.6938V67.4299C20.5205 66.6111 20.0874 65.947 19.5806 65.9561H19.3964C18.8804 65.9561 18.4749 66.6293 18.4841 67.4481V67.712C18.4841 67.7211 18.4933 67.7393 18.5118 67.7302H18.5026V67.7393Z" fill="white"/>
<path d="M49.3613 68.5762C49.3336 68.5762 49.306 68.6035 49.306 68.6308C49.306 69.6133 49.5271 70.8052 50.5499 71.1327C51.4253 71.4147 52.3375 70.9689 52.8719 70.2775C52.8996 70.2411 52.9549 70.232 53.0009 70.2593L53.646 70.6778C53.6828 70.7051 53.692 70.7506 53.6644 70.7779C52.0519 72.6611 49.1033 72.743 47.3433 71.0417C46.3574 70.0955 46.1547 68.2668 46.7259 67.0386C47.2788 65.8377 48.5965 65.0826 49.9326 65.0189C51.8676 64.9279 53.5815 65.7285 53.8671 67.7756C53.8947 67.9484 53.9132 68.1941 53.9316 68.5125C53.9316 68.5398 53.9132 68.5671 53.8855 68.5671H49.3613V68.5762ZM49.3244 67.7392H51.3055C51.3239 67.7301 51.3331 67.7119 51.3331 67.7028V67.4298C51.3331 66.611 50.9093 65.956 50.4025 65.956H50.2182C49.7114 65.956 49.2968 66.6201 49.2968 67.4389V67.7119C49.2968 67.7301 49.2968 67.7392 49.3244 67.7392Z" fill="white"/>
<path d="M59.2759 66.5747C59.2759 66.5929 59.2943 66.602 59.3035 66.602C59.3128 66.602 59.322 66.602 59.3312 66.5838C59.9025 65.5649 60.9161 64.8097 62.16 65.0736C62.7405 65.1919 63.0999 65.7923 63.1459 66.3382C63.1828 66.8295 62.934 67.3663 62.4457 67.53C62.031 67.6756 61.5611 67.5937 61.2846 67.2389C61.2293 67.1661 61.1188 67.066 60.9713 66.9387C60.6673 66.6748 60.354 66.6475 60.0315 66.8477C59.6721 67.0842 59.5063 67.7484 59.4602 68.1669C59.3773 68.9311 59.3588 69.6862 59.4233 70.4232C59.451 70.8053 59.6629 71.0236 60.0499 71.06C60.2526 71.0873 60.3908 71.0873 60.483 71.0782C60.5567 71.0691 60.6212 71.1146 60.6304 71.1874V71.8606C60.6304 71.9243 60.5843 71.9698 60.5198 71.9698H55.6915C55.6362 71.9698 55.5901 71.9243 55.5901 71.8697V71.1419C55.5901 71.1055 55.627 71.0782 55.6639 71.0782H55.6823C55.7284 71.0873 55.8297 71.0782 55.9956 71.06C56.5484 70.9781 56.659 70.687 56.6682 70.1775C56.6682 69.5134 56.6867 68.6218 56.6682 67.5209C56.6682 66.7931 56.3365 66.5838 55.627 66.602C55.5901 66.602 55.5625 66.5747 55.5625 66.5383V65.765C55.5625 65.7286 55.5901 65.7013 55.6178 65.6922L58.9718 64.9917C59.0087 64.9917 59.0363 65.0008 59.0455 65.0372C59.1653 65.4921 59.239 65.9925 59.2759 66.5383V66.5747Z" fill="white"/>
<path d="M65.33 72.2517L64.7218 72.2699C64.6665 72.2699 64.6205 72.2244 64.6112 72.1698L64.556 70.0773C64.556 70.05 64.5744 70.0318 64.602 70.0318L65.3023 70.0136C65.3484 70.0136 65.3852 70.0409 65.4037 70.0773C65.7446 70.7688 66.2883 71.1873 67.0346 71.3328C67.6059 71.4511 68.2878 71.442 68.8222 71.1964C69.0434 71.0963 69.3198 70.9325 69.3659 70.696C69.4396 70.3048 69.0894 70.1501 68.7393 70.0591C68.4721 69.9954 67.8363 69.8499 66.8227 69.6315C66.3896 69.5405 65.9842 69.4041 65.6156 69.2312C64.6112 68.7581 64.1689 67.821 64.4085 66.7566C64.4822 66.429 64.6481 66.1379 64.9153 65.8832C66.104 64.7277 68.1588 64.8915 69.6147 65.4192C69.6607 65.4374 69.716 65.4192 69.7437 65.3737L69.9464 65.0826C69.9648 65.0553 70.0017 65.0371 70.0293 65.0371L70.619 65.0189C70.6651 65.0189 70.6927 65.0553 70.702 65.0916L70.748 67.0204C70.748 67.0386 70.7296 67.0568 70.7112 67.0568L70.1399 67.075C70.1122 67.075 70.0846 67.0659 70.0754 67.0386C69.7344 66.4381 69.2 66.056 68.4813 65.9105C67.8547 65.774 66.6015 65.6921 66.2053 66.329C66.0671 66.5564 66.2053 66.8476 66.4265 66.9567C66.5831 67.0386 66.7766 67.1023 67.007 67.1569C67.6151 67.3024 68.7854 67.4935 69.6607 67.7937C70.7572 68.1667 71.4299 68.9492 71.2732 70.1592C71.1442 71.1418 70.232 71.815 69.3198 72.0789C68.168 72.4155 66.8595 72.279 65.7538 71.8241C65.7262 71.815 65.6893 71.8241 65.6617 71.8423C65.5511 71.9333 65.459 72.0516 65.4037 72.1971C65.4037 72.2335 65.3576 72.2517 65.3208 72.2517H65.33Z" fill="white"/>
<path d="M76.6269 71.3967H76.5992V73.7439C76.5992 73.9987 76.5992 74.2352 76.6361 74.4536C76.6822 74.7629 76.8572 74.9449 77.1797 74.9995C77.4838 75.0541 77.7234 75.0631 77.9077 75.045C77.9077 75.045 77.9261 75.045 77.9261 75.0631V75.9093C77.9261 75.9184 77.9261 75.9275 77.9077 75.9275H72.7845C72.7661 75.9275 72.7568 75.9184 72.7568 75.9002V75.0722C72.7568 75.0541 72.7568 75.045 72.7845 75.045C73.5216 75.0722 73.8902 74.8084 73.8902 74.2534V67.4573C73.8902 63.5725 73.8073 66.6021 73.2821 66.5475C73.0241 66.5202 72.8951 66.5111 72.8951 66.5111C72.8213 66.5111 72.7661 66.4474 72.7661 66.3746V65.7196C72.7661 65.6559 72.8121 65.5922 72.8766 65.5831L76.3597 65.0281C76.3873 65.0281 76.4057 65.0372 76.415 65.0645L76.59 66.1108C77.2811 65.4648 78.0551 65.0554 79.0042 65.019C79.7045 64.9917 80.3403 65.1737 80.9024 65.5558C82.1094 66.3746 82.5057 67.7393 82.3306 69.1586C82.0357 71.5968 79.5571 73.0434 77.2995 71.8243C77.0876 71.7151 76.8665 71.5695 76.6269 71.3967ZM76.6453 70.3595C77.493 71.242 78.9858 71.3421 79.3636 69.941C79.5847 69.1131 79.6584 67.43 79.0595 66.6658C78.4329 65.8742 77.3088 66.3473 76.7927 66.9933C76.6822 67.1388 76.6269 67.248 76.6269 67.339C76.6269 69.2678 76.6085 70.2412 76.6085 70.2503C76.6085 70.2867 76.6269 70.3231 76.6545 70.3504H76.6453V70.3595Z" fill="white"/>
<path d="M88.3569 65.0189C89.223 65.0007 90.0154 65.1645 90.771 65.5739C91.9781 66.2199 92.5402 67.2479 92.5586 68.5671C92.5771 69.8863 92.0518 70.9326 90.8724 71.6149C90.126 72.0516 89.3428 72.2336 88.4766 72.2518C87.6105 72.27 86.8181 72.1062 86.0625 71.6968C84.8554 71.0509 84.2933 70.0228 84.2749 68.7036C84.2565 67.3844 84.7817 66.3381 85.9611 65.6558C86.7075 65.2191 87.4907 65.0371 88.3569 65.0189ZM87.1406 68.649C87.1406 69.0675 87.159 69.486 87.2051 69.9045C87.2788 70.6051 87.5736 71.3329 88.4214 71.3329C89.2691 71.3329 89.5639 70.6142 89.6469 69.9136C89.6929 69.486 89.7206 69.0675 89.7206 68.6581C89.7206 68.2487 89.7022 67.8211 89.6561 67.4026C89.5824 66.7021 89.2875 65.9742 88.4398 65.9742C87.5921 65.9742 87.2972 66.693 87.2143 67.3935C87.1682 67.8211 87.1406 68.2396 87.1406 68.649Z" fill="white"/>
<path d="M93.8022 68.7126C93.7838 67.3934 94.309 66.3472 95.4885 65.6648C96.2348 65.2281 97.0181 65.0462 97.8842 65.028C98.7504 65.0098 99.5336 65.1735 100.298 65.5829C101.505 66.2289 102.068 67.257 102.086 68.5762C102.104 69.8954 101.579 70.9416 100.4 71.624C99.6534 72.0607 98.8701 72.2426 98.004 72.2608C97.1378 72.2699 96.3546 72.1153 95.5898 71.7059C94.3827 71.0599 93.8207 70.0318 93.8022 68.7126ZM96.6587 68.6489C96.6587 69.0674 96.6771 69.486 96.7232 69.9045C96.7969 70.605 97.0918 71.3328 97.9395 71.3328C98.7872 71.3328 99.0821 70.6141 99.165 69.9136C99.2111 69.486 99.2387 69.0675 99.2387 68.658C99.2387 68.2486 99.2203 67.821 99.1742 67.4025C99.1005 66.702 98.8056 65.9742 97.9579 65.9742C97.1102 65.9742 96.8153 66.6929 96.7324 67.3934C96.6863 67.821 96.6587 68.2395 96.6587 68.6489Z" fill="white"/>
<path d="M107.596 66.0924C107.596 66.1106 107.614 66.1197 107.633 66.1197C107.633 66.1197 107.633 66.1197 107.651 66.1106C108.278 65.4283 109.006 65.0644 109.844 65.028C110.969 64.9734 111.927 65.4101 112.314 66.4654C112.406 66.7202 112.452 67.1205 112.443 67.6664V70.0864C112.443 70.3776 112.489 70.8324 112.784 70.978C112.986 71.0781 113.226 71.1145 113.512 71.1054C113.512 71.1054 113.53 71.1054 113.53 71.1236V71.9606C113.53 71.9697 113.53 71.9879 113.502 71.9879H108.923C108.923 71.9879 108.895 71.9788 108.895 71.9606V71.1418C108.895 71.1236 108.895 71.1145 108.923 71.1145C109.697 71.0417 109.706 70.5595 109.715 69.959V67.3297C109.715 66.9294 109.55 66.52 109.098 66.4745C108.517 66.4199 107.946 66.9203 107.624 67.3661C107.596 67.4116 107.578 67.4571 107.578 67.5117V70.05C107.578 70.5868 107.679 71.1236 108.342 71.1054C108.342 71.1054 108.361 71.1054 108.361 71.1236V71.9788C108.361 71.9879 108.361 71.997 108.342 71.997H103.744C103.726 71.997 103.717 71.9879 103.717 71.9697V71.1327C103.717 71.1236 103.717 71.1054 103.744 71.1054C104.03 71.1327 104.297 71.0872 104.537 70.9689C104.795 70.8415 104.832 70.3503 104.832 70.0773V67.5572C104.832 67.2933 104.749 66.9203 104.454 66.8112C104.214 66.7202 103.975 66.6838 103.735 66.7111C103.735 66.7111 103.735 66.7111 103.735 66.702V65.8377C103.735 65.8286 103.735 65.8104 103.754 65.8104L107.356 65.2372C107.412 65.2372 107.458 65.2645 107.467 65.3191L107.596 66.1197V66.0924Z" fill="white"/>
</g>
<defs>
<clipPath id="clip0_35_839">
<rect width="116" height="35.3273" fill="white" transform="translate(0 40.6001)"/>
</clipPath>
</defs>
</svg>
